G04 #@! TF.FileFunction,Legend,Top*
%FSLAX46Y46*%
G04 Gerber Fmt 4.6, Leading zero omitted, Abs format (unit mm)*
G04 Created by KiCad (PCBNEW 4.0.2-stable) date 4/18/2016 9:54:35 PM*
%MOMM*%
G01*
G04 APERTURE LIST*
%ADD10C,0.100000*%
%ADD11C,0.150000*%
%ADD12C,0.152400*%
%ADD13C,0.203200*%
%ADD14C,0.127000*%
%ADD15R,0.600000X0.500000*%
%ADD16R,0.500000X0.600000*%
%ADD17R,0.797560X0.797560*%
%ADD18R,0.400000X0.600000*%
%ADD19R,0.600000X0.400000*%
%ADD20C,0.685800*%
%ADD21R,0.700000X0.250000*%
%ADD22R,0.250000X0.700000*%
%ADD23R,1.287500X1.287500*%
%ADD24R,0.758800X1.520800*%
%ADD25R,1.900000X0.900000*%
%ADD26R,1.727200X2.032000*%
%ADD27O,1.727200X2.032000*%
G04 APERTURE END LIST*
D10*
X194552310Y-97152690D02*
X194504691Y-97128881D01*
X194480882Y-97105071D01*
X194457072Y-97057452D01*
X194457072Y-96914595D01*
X194480882Y-96866976D01*
X194504691Y-96843167D01*
X194552310Y-96819357D01*
X194623739Y-96819357D01*
X194671358Y-96843167D01*
X194695167Y-96866976D01*
X194718977Y-96914595D01*
X194718977Y-97057452D01*
X194695167Y-97105071D01*
X194671358Y-97128881D01*
X194623739Y-97152690D01*
X194552310Y-97152690D01*
X194933263Y-96819357D02*
X194933263Y-97319357D01*
X194933263Y-96843167D02*
X194980882Y-96819357D01*
X195076120Y-96819357D01*
X195123739Y-96843167D01*
X195147548Y-96866976D01*
X195171358Y-96914595D01*
X195171358Y-97057452D01*
X195147548Y-97105071D01*
X195123739Y-97128881D01*
X195076120Y-97152690D01*
X194980882Y-97152690D01*
X194933263Y-97128881D01*
X195576120Y-97128881D02*
X195528501Y-97152690D01*
X195433263Y-97152690D01*
X195385644Y-97128881D01*
X195361834Y-97081262D01*
X195361834Y-96890786D01*
X195385644Y-96843167D01*
X195433263Y-96819357D01*
X195528501Y-96819357D01*
X195576120Y-96843167D01*
X195599929Y-96890786D01*
X195599929Y-96938405D01*
X195361834Y-96986024D01*
X195814215Y-96819357D02*
X195814215Y-97152690D01*
X195814215Y-96866976D02*
X195838024Y-96843167D01*
X195885643Y-96819357D01*
X195957072Y-96819357D01*
X196004691Y-96843167D01*
X196028500Y-96890786D01*
X196028500Y-97152690D01*
X196504691Y-97152690D02*
X196266596Y-97152690D01*
X196266596Y-96652690D01*
X196885643Y-97152690D02*
X196885643Y-96890786D01*
X196861834Y-96843167D01*
X196814215Y-96819357D01*
X196718977Y-96819357D01*
X196671358Y-96843167D01*
X196885643Y-97128881D02*
X196838024Y-97152690D01*
X196718977Y-97152690D01*
X196671358Y-97128881D01*
X196647548Y-97081262D01*
X196647548Y-97033643D01*
X196671358Y-96986024D01*
X196718977Y-96962214D01*
X196838024Y-96962214D01*
X196885643Y-96938405D01*
X197338024Y-96819357D02*
X197338024Y-97224119D01*
X197314215Y-97271738D01*
X197290405Y-97295548D01*
X197242786Y-97319357D01*
X197171358Y-97319357D01*
X197123739Y-97295548D01*
X197338024Y-97128881D02*
X197290405Y-97152690D01*
X197195167Y-97152690D01*
X197147548Y-97128881D01*
X197123739Y-97105071D01*
X197099929Y-97057452D01*
X197099929Y-96914595D01*
X197123739Y-96866976D01*
X197147548Y-96843167D01*
X197195167Y-96819357D01*
X197290405Y-96819357D01*
X197338024Y-96843167D01*
X197766596Y-97128881D02*
X197718977Y-97152690D01*
X197623739Y-97152690D01*
X197576120Y-97128881D01*
X197552310Y-97081262D01*
X197552310Y-96890786D01*
X197576120Y-96843167D01*
X197623739Y-96819357D01*
X197718977Y-96819357D01*
X197766596Y-96843167D01*
X197790405Y-96890786D01*
X197790405Y-96938405D01*
X197552310Y-96986024D01*
X198004691Y-97152690D02*
X198004691Y-96819357D01*
X198004691Y-96914595D02*
X198028500Y-96866976D01*
X198052310Y-96843167D01*
X198099929Y-96819357D01*
X198147548Y-96819357D01*
X195623739Y-97952690D02*
X195457072Y-97714595D01*
X195338025Y-97952690D02*
X195338025Y-97452690D01*
X195528501Y-97452690D01*
X195576120Y-97476500D01*
X195599929Y-97500310D01*
X195623739Y-97547929D01*
X195623739Y-97619357D01*
X195599929Y-97666976D01*
X195576120Y-97690786D01*
X195528501Y-97714595D01*
X195338025Y-97714595D01*
X196028501Y-97928881D02*
X195980882Y-97952690D01*
X195885644Y-97952690D01*
X195838025Y-97928881D01*
X195814215Y-97881262D01*
X195814215Y-97690786D01*
X195838025Y-97643167D01*
X195885644Y-97619357D01*
X195980882Y-97619357D01*
X196028501Y-97643167D01*
X196052310Y-97690786D01*
X196052310Y-97738405D01*
X195814215Y-97786024D01*
X196218977Y-97619357D02*
X196338024Y-97952690D01*
X196457072Y-97619357D01*
X197004690Y-97809833D02*
X197242785Y-97809833D01*
X196957071Y-97952690D02*
X197123738Y-97452690D01*
X197290404Y-97952690D01*
X193492786Y-98752690D02*
X193492786Y-98252690D01*
X193492786Y-98728881D02*
X193445167Y-98752690D01*
X193349929Y-98752690D01*
X193302310Y-98728881D01*
X193278501Y-98705071D01*
X193254691Y-98657452D01*
X193254691Y-98514595D01*
X193278501Y-98466976D01*
X193302310Y-98443167D01*
X193349929Y-98419357D01*
X193445167Y-98419357D01*
X193492786Y-98443167D01*
X194016596Y-98752690D02*
X193849929Y-98514595D01*
X193730882Y-98752690D02*
X193730882Y-98252690D01*
X193921358Y-98252690D01*
X193968977Y-98276500D01*
X193992786Y-98300310D01*
X194016596Y-98347929D01*
X194016596Y-98419357D01*
X193992786Y-98466976D01*
X193968977Y-98490786D01*
X193921358Y-98514595D01*
X193730882Y-98514595D01*
X194302310Y-98752690D02*
X194254691Y-98728881D01*
X194230882Y-98705071D01*
X194207072Y-98657452D01*
X194207072Y-98514595D01*
X194230882Y-98466976D01*
X194254691Y-98443167D01*
X194302310Y-98419357D01*
X194373739Y-98419357D01*
X194421358Y-98443167D01*
X194445167Y-98466976D01*
X194468977Y-98514595D01*
X194468977Y-98657452D01*
X194445167Y-98705071D01*
X194421358Y-98728881D01*
X194373739Y-98752690D01*
X194302310Y-98752690D01*
X194683263Y-98419357D02*
X194683263Y-98752690D01*
X194683263Y-98466976D02*
X194707072Y-98443167D01*
X194754691Y-98419357D01*
X194826120Y-98419357D01*
X194873739Y-98443167D01*
X194897548Y-98490786D01*
X194897548Y-98752690D01*
X195135644Y-98752690D02*
X195135644Y-98419357D01*
X195135644Y-98252690D02*
X195111834Y-98276500D01*
X195135644Y-98300310D01*
X195159453Y-98276500D01*
X195135644Y-98252690D01*
X195135644Y-98300310D01*
X195373739Y-98419357D02*
X195373739Y-98752690D01*
X195373739Y-98466976D02*
X195397548Y-98443167D01*
X195445167Y-98419357D01*
X195516596Y-98419357D01*
X195564215Y-98443167D01*
X195588024Y-98490786D01*
X195588024Y-98752690D01*
X196207072Y-98562214D02*
X196588024Y-98562214D01*
X197492786Y-98705071D02*
X197468976Y-98728881D01*
X197397548Y-98752690D01*
X197349929Y-98752690D01*
X197278500Y-98728881D01*
X197230881Y-98681262D01*
X197207072Y-98633643D01*
X197183262Y-98538405D01*
X197183262Y-98466976D01*
X197207072Y-98371738D01*
X197230881Y-98324119D01*
X197278500Y-98276500D01*
X197349929Y-98252690D01*
X197397548Y-98252690D01*
X197468976Y-98276500D01*
X197492786Y-98300310D01*
X197992786Y-98705071D02*
X197968976Y-98728881D01*
X197897548Y-98752690D01*
X197849929Y-98752690D01*
X197778500Y-98728881D01*
X197730881Y-98681262D01*
X197707072Y-98633643D01*
X197683262Y-98538405D01*
X197683262Y-98466976D01*
X197707072Y-98371738D01*
X197730881Y-98324119D01*
X197778500Y-98276500D01*
X197849929Y-98252690D01*
X197897548Y-98252690D01*
X197968976Y-98276500D01*
X197992786Y-98300310D01*
X198754690Y-98490786D02*
X198826119Y-98514595D01*
X198849928Y-98538405D01*
X198873738Y-98586024D01*
X198873738Y-98657452D01*
X198849928Y-98705071D01*
X198826119Y-98728881D01*
X198778500Y-98752690D01*
X198588024Y-98752690D01*
X198588024Y-98252690D01*
X198754690Y-98252690D01*
X198802309Y-98276500D01*
X198826119Y-98300310D01*
X198849928Y-98347929D01*
X198849928Y-98395548D01*
X198826119Y-98443167D01*
X198802309Y-98466976D01*
X198754690Y-98490786D01*
X198588024Y-98490786D01*
X199183262Y-98514595D02*
X199183262Y-98752690D01*
X199016595Y-98252690D02*
X199183262Y-98514595D01*
X199349928Y-98252690D01*
D11*
X200910000Y-111221500D02*
X200410000Y-111221500D01*
X200410000Y-112171500D02*
X200910000Y-112171500D01*
X196944000Y-110740000D02*
X196944000Y-110240000D01*
X195994000Y-110240000D02*
X195994000Y-110740000D01*
X196055000Y-110740000D02*
X196055000Y-110240000D01*
X195105000Y-110240000D02*
X195105000Y-110740000D01*
X192853500Y-105885000D02*
X193353500Y-105885000D01*
X193353500Y-104935000D02*
X192853500Y-104935000D01*
X201037000Y-108364000D02*
X200537000Y-108364000D01*
X200537000Y-109314000D02*
X201037000Y-109314000D01*
X200910000Y-112110500D02*
X200410000Y-112110500D01*
X200410000Y-113060500D02*
X200910000Y-113060500D01*
X194885500Y-100678000D02*
X195385500Y-100678000D01*
X195385500Y-99728000D02*
X194885500Y-99728000D01*
X199687000Y-98086000D02*
X201587000Y-98086000D01*
X199687000Y-96986000D02*
X201587000Y-96986000D01*
X200587000Y-97536000D02*
X201037000Y-97536000D01*
X200537000Y-97286000D02*
X200537000Y-97786000D01*
X200537000Y-97536000D02*
X200787000Y-97286000D01*
X200787000Y-97286000D02*
X200787000Y-97786000D01*
X200787000Y-97786000D02*
X200537000Y-97536000D01*
X199687000Y-99229000D02*
X201587000Y-99229000D01*
X199687000Y-98129000D02*
X201587000Y-98129000D01*
X200587000Y-98679000D02*
X201037000Y-98679000D01*
X200537000Y-98429000D02*
X200537000Y-98929000D01*
X200537000Y-98679000D02*
X200787000Y-98429000D01*
X200787000Y-98429000D02*
X200787000Y-98929000D01*
X200787000Y-98929000D02*
X200537000Y-98679000D01*
X193163000Y-105964500D02*
X192663000Y-105964500D01*
X192663000Y-107014500D02*
X193163000Y-107014500D01*
X204283500Y-98759500D02*
X204783500Y-98759500D01*
X204783500Y-97709500D02*
X204283500Y-97709500D01*
X204783500Y-98662000D02*
X204283500Y-98662000D01*
X204283500Y-99712000D02*
X204783500Y-99712000D01*
X200656000Y-109203000D02*
X200156000Y-109203000D01*
X200156000Y-110253000D02*
X200656000Y-110253000D01*
X204453000Y-100905500D02*
X204453000Y-101405500D01*
X205503000Y-101405500D02*
X205503000Y-100905500D01*
X193975500Y-112018000D02*
X193975500Y-112518000D01*
X195025500Y-112518000D02*
X195025500Y-112018000D01*
X195880500Y-112018000D02*
X195880500Y-112518000D01*
X196930500Y-112518000D02*
X196930500Y-112018000D01*
X203945000Y-112018000D02*
X203945000Y-112518000D01*
X204995000Y-112518000D02*
X204995000Y-112018000D01*
X195449000Y-108314000D02*
X194949000Y-108314000D01*
X194949000Y-109364000D02*
X195449000Y-109364000D01*
X193544000Y-98979500D02*
X193044000Y-98979500D01*
X193044000Y-100029500D02*
X193544000Y-100029500D01*
X203196000Y-97011000D02*
X202696000Y-97011000D01*
X202696000Y-98061000D02*
X203196000Y-98061000D01*
X202696000Y-99077000D02*
X203196000Y-99077000D01*
X203196000Y-98027000D02*
X202696000Y-98027000D01*
X201999000Y-100896000D02*
X201999000Y-101421000D01*
X194749000Y-108146000D02*
X194749000Y-107621000D01*
X201999000Y-108146000D02*
X201999000Y-107621000D01*
X194749000Y-100896000D02*
X195274000Y-100896000D01*
X194749000Y-108146000D02*
X195274000Y-108146000D01*
X201999000Y-108146000D02*
X201474000Y-108146000D01*
X201999000Y-100896000D02*
X201474000Y-100896000D01*
D12*
X199694800Y-111340900D02*
X199694800Y-110782100D01*
X198577200Y-110274100D02*
X197916800Y-110274100D01*
X196799200Y-110782100D02*
X196799200Y-111340900D01*
X197027803Y-110883704D02*
G75*
G02X197027800Y-111239300I-227573J-177796D01*
G01*
X197027803Y-110883704D02*
G75*
G02X197027800Y-111239300I-227573J-177796D01*
G01*
D13*
X193817000Y-104824000D02*
X193817000Y-104924000D01*
X193817000Y-104924000D02*
X192517000Y-104924000D01*
X192517000Y-104924000D02*
X192517000Y-104824000D01*
X192517000Y-101424000D02*
X192517000Y-101274000D01*
X192517000Y-101274000D02*
X193817000Y-101274000D01*
X193817000Y-101274000D02*
X193817000Y-101424000D01*
D14*
X193817000Y-102324000D02*
X193817000Y-102724000D01*
X193817000Y-103524000D02*
X193817000Y-103924000D01*
X192517000Y-102324000D02*
X192517000Y-102724000D01*
X192517000Y-103524000D02*
X192517000Y-103924000D01*
X192167000Y-101724000D02*
G75*
G03X192167000Y-101724000I-200000J0D01*
G01*
%LPC*%
D15*
X200110000Y-111696500D03*
X201210000Y-111696500D03*
D16*
X196469000Y-109940000D03*
X196469000Y-111040000D03*
X195580000Y-109940000D03*
X195580000Y-111040000D03*
D15*
X193653500Y-105410000D03*
X192553500Y-105410000D03*
X200237000Y-108839000D03*
X201337000Y-108839000D03*
X200110000Y-112585500D03*
X201210000Y-112585500D03*
X195685500Y-100203000D03*
X194585500Y-100203000D03*
D17*
X201536300Y-97536000D03*
X200037700Y-97536000D03*
X201536300Y-98679000D03*
X200037700Y-98679000D03*
D18*
X192463000Y-106489500D03*
X193363000Y-106489500D03*
X204983500Y-98234500D03*
X204083500Y-98234500D03*
X204083500Y-99187000D03*
X204983500Y-99187000D03*
X199956000Y-109728000D03*
X200856000Y-109728000D03*
D19*
X204978000Y-101605500D03*
X204978000Y-100705500D03*
X194500500Y-112718000D03*
X194500500Y-111818000D03*
X196405500Y-112718000D03*
X196405500Y-111818000D03*
X204470000Y-112718000D03*
X204470000Y-111818000D03*
D18*
X194749000Y-108839000D03*
X195649000Y-108839000D03*
X192844000Y-99504500D03*
X193744000Y-99504500D03*
X202496000Y-97536000D03*
X203396000Y-97536000D03*
X203396000Y-98552000D03*
X202496000Y-98552000D03*
D20*
X191579500Y-108839000D03*
X202692000Y-103441500D03*
D21*
X194974000Y-101771000D03*
X194974000Y-102271000D03*
X194974000Y-102771000D03*
X194974000Y-103271000D03*
X194974000Y-103771000D03*
X194974000Y-104271000D03*
X194974000Y-104771000D03*
X194974000Y-105271000D03*
X194974000Y-105771000D03*
X194974000Y-106271000D03*
X194974000Y-106771000D03*
X194974000Y-107271000D03*
D22*
X195624000Y-107921000D03*
X196124000Y-107921000D03*
X196624000Y-107921000D03*
X197124000Y-107921000D03*
X197624000Y-107921000D03*
X198124000Y-107921000D03*
X198624000Y-107921000D03*
X199124000Y-107921000D03*
X199624000Y-107921000D03*
X200124000Y-107921000D03*
X200624000Y-107921000D03*
X201124000Y-107921000D03*
D21*
X201774000Y-107271000D03*
X201774000Y-106771000D03*
X201774000Y-106271000D03*
X201774000Y-105771000D03*
X201774000Y-105271000D03*
X201774000Y-104771000D03*
X201774000Y-104271000D03*
X201774000Y-103771000D03*
X201774000Y-103271000D03*
X201774000Y-102771000D03*
X201774000Y-102271000D03*
X201774000Y-101771000D03*
D22*
X201124000Y-101121000D03*
X200624000Y-101121000D03*
X200124000Y-101121000D03*
X199624000Y-101121000D03*
X199124000Y-101121000D03*
X198624000Y-101121000D03*
X198124000Y-101121000D03*
X197624000Y-101121000D03*
X197124000Y-101121000D03*
X196624000Y-101121000D03*
X196124000Y-101121000D03*
X195624000Y-101121000D03*
D23*
X200305250Y-106452250D03*
X200305250Y-105164750D03*
X200305250Y-103877250D03*
X200305250Y-102589750D03*
X199017750Y-106452250D03*
X199017750Y-105164750D03*
X199017750Y-103877250D03*
X199017750Y-102589750D03*
X197730250Y-106452250D03*
X197730250Y-105164750D03*
X197730250Y-103877250D03*
X197730250Y-102589750D03*
X196442750Y-106452250D03*
X196442750Y-105164750D03*
X196442750Y-103877250D03*
X196442750Y-102589750D03*
D24*
X197307200Y-112229900D03*
X198247000Y-112229900D03*
X199186800Y-112229900D03*
X199186800Y-109893100D03*
X197307200Y-109893100D03*
D25*
X193167000Y-101924000D03*
X193167000Y-103124000D03*
X193167000Y-104324000D03*
D26*
X191770000Y-111760000D03*
X191770000Y-114300000D03*
D27*
X194310000Y-114300000D03*
X196850000Y-114300000D03*
X199390000Y-114300000D03*
X201930000Y-114300000D03*
X204470000Y-114300000D03*
M02*
