G04 #@! TF.FileFunction,Legend,Top*
%FSLAX46Y46*%
G04 Gerber Fmt 4.6, Leading zero omitted, Abs format (unit mm)*
G04 Created by KiCad (PCBNEW 4.0.2-stable) date 4/26/2016 9:50:36 PM*
%MOMM*%
G01*
G04 APERTURE LIST*
%ADD10C,0.100000*%
%ADD11C,0.150000*%
%ADD12C,0.203200*%
%ADD13C,0.127000*%
%ADD14C,0.152400*%
%ADD15C,0.125000*%
%ADD16R,0.600000X0.500000*%
%ADD17R,0.500000X0.600000*%
%ADD18R,0.400000X0.600000*%
%ADD19R,0.600000X0.400000*%
%ADD20C,0.685800*%
%ADD21R,0.700000X0.250000*%
%ADD22R,0.250000X0.700000*%
%ADD23R,1.287500X1.287500*%
%ADD24R,1.900000X0.900000*%
%ADD25R,1.727200X2.032000*%
%ADD26O,1.727200X2.032000*%
%ADD27R,0.797560X0.797560*%
%ADD28R,0.758800X1.520800*%
G04 APERTURE END LIST*
D10*
X193980810Y-97152690D02*
X193933191Y-97128881D01*
X193909382Y-97105071D01*
X193885572Y-97057452D01*
X193885572Y-96914595D01*
X193909382Y-96866976D01*
X193933191Y-96843167D01*
X193980810Y-96819357D01*
X194052239Y-96819357D01*
X194099858Y-96843167D01*
X194123667Y-96866976D01*
X194147477Y-96914595D01*
X194147477Y-97057452D01*
X194123667Y-97105071D01*
X194099858Y-97128881D01*
X194052239Y-97152690D01*
X193980810Y-97152690D01*
X194361763Y-96819357D02*
X194361763Y-97319357D01*
X194361763Y-96843167D02*
X194409382Y-96819357D01*
X194504620Y-96819357D01*
X194552239Y-96843167D01*
X194576048Y-96866976D01*
X194599858Y-96914595D01*
X194599858Y-97057452D01*
X194576048Y-97105071D01*
X194552239Y-97128881D01*
X194504620Y-97152690D01*
X194409382Y-97152690D01*
X194361763Y-97128881D01*
X195004620Y-97128881D02*
X194957001Y-97152690D01*
X194861763Y-97152690D01*
X194814144Y-97128881D01*
X194790334Y-97081262D01*
X194790334Y-96890786D01*
X194814144Y-96843167D01*
X194861763Y-96819357D01*
X194957001Y-96819357D01*
X195004620Y-96843167D01*
X195028429Y-96890786D01*
X195028429Y-96938405D01*
X194790334Y-96986024D01*
X195242715Y-96819357D02*
X195242715Y-97152690D01*
X195242715Y-96866976D02*
X195266524Y-96843167D01*
X195314143Y-96819357D01*
X195385572Y-96819357D01*
X195433191Y-96843167D01*
X195457000Y-96890786D01*
X195457000Y-97152690D01*
X195933191Y-97152690D02*
X195695096Y-97152690D01*
X195695096Y-96652690D01*
X196314143Y-97152690D02*
X196314143Y-96890786D01*
X196290334Y-96843167D01*
X196242715Y-96819357D01*
X196147477Y-96819357D01*
X196099858Y-96843167D01*
X196314143Y-97128881D02*
X196266524Y-97152690D01*
X196147477Y-97152690D01*
X196099858Y-97128881D01*
X196076048Y-97081262D01*
X196076048Y-97033643D01*
X196099858Y-96986024D01*
X196147477Y-96962214D01*
X196266524Y-96962214D01*
X196314143Y-96938405D01*
X196766524Y-96819357D02*
X196766524Y-97224119D01*
X196742715Y-97271738D01*
X196718905Y-97295548D01*
X196671286Y-97319357D01*
X196599858Y-97319357D01*
X196552239Y-97295548D01*
X196766524Y-97128881D02*
X196718905Y-97152690D01*
X196623667Y-97152690D01*
X196576048Y-97128881D01*
X196552239Y-97105071D01*
X196528429Y-97057452D01*
X196528429Y-96914595D01*
X196552239Y-96866976D01*
X196576048Y-96843167D01*
X196623667Y-96819357D01*
X196718905Y-96819357D01*
X196766524Y-96843167D01*
X197195096Y-97128881D02*
X197147477Y-97152690D01*
X197052239Y-97152690D01*
X197004620Y-97128881D01*
X196980810Y-97081262D01*
X196980810Y-96890786D01*
X197004620Y-96843167D01*
X197052239Y-96819357D01*
X197147477Y-96819357D01*
X197195096Y-96843167D01*
X197218905Y-96890786D01*
X197218905Y-96938405D01*
X196980810Y-96986024D01*
X197433191Y-97152690D02*
X197433191Y-96819357D01*
X197433191Y-96914595D02*
X197457000Y-96866976D01*
X197480810Y-96843167D01*
X197528429Y-96819357D01*
X197576048Y-96819357D01*
X193480812Y-97952690D02*
X193314145Y-97714595D01*
X193195098Y-97952690D02*
X193195098Y-97452690D01*
X193385574Y-97452690D01*
X193433193Y-97476500D01*
X193457002Y-97500310D01*
X193480812Y-97547929D01*
X193480812Y-97619357D01*
X193457002Y-97666976D01*
X193433193Y-97690786D01*
X193385574Y-97714595D01*
X193195098Y-97714595D01*
X193885574Y-97928881D02*
X193837955Y-97952690D01*
X193742717Y-97952690D01*
X193695098Y-97928881D01*
X193671288Y-97881262D01*
X193671288Y-97690786D01*
X193695098Y-97643167D01*
X193742717Y-97619357D01*
X193837955Y-97619357D01*
X193885574Y-97643167D01*
X193909383Y-97690786D01*
X193909383Y-97738405D01*
X193671288Y-97786024D01*
X194076050Y-97619357D02*
X194195097Y-97952690D01*
X194314145Y-97619357D01*
X194861763Y-97809833D02*
X195099858Y-97809833D01*
X194814144Y-97952690D02*
X194980811Y-97452690D01*
X195147477Y-97952690D01*
X196099858Y-97571738D02*
X196052238Y-97547929D01*
X195957000Y-97547929D01*
X195909381Y-97571738D01*
X195861762Y-97619357D01*
X195837953Y-97666976D01*
X195837953Y-97762214D01*
X195861762Y-97809833D01*
X195909381Y-97857452D01*
X195957000Y-97881262D01*
X196052238Y-97881262D01*
X196099858Y-97857452D01*
X196004619Y-97381262D02*
X195885572Y-97405071D01*
X195766524Y-97476500D01*
X195695096Y-97595548D01*
X195671286Y-97714595D01*
X195695096Y-97833643D01*
X195766524Y-97952690D01*
X195885572Y-98024119D01*
X196004619Y-98047929D01*
X196123667Y-98024119D01*
X196242715Y-97952690D01*
X196314143Y-97833643D01*
X196337953Y-97714595D01*
X196314143Y-97595548D01*
X196242715Y-97476500D01*
X196123667Y-97405071D01*
X196004619Y-97381262D01*
X196528429Y-97500310D02*
X196552239Y-97476500D01*
X196599858Y-97452690D01*
X196718905Y-97452690D01*
X196766524Y-97476500D01*
X196790334Y-97500310D01*
X196814143Y-97547929D01*
X196814143Y-97595548D01*
X196790334Y-97666976D01*
X196504620Y-97952690D01*
X196814143Y-97952690D01*
X197123667Y-97452690D02*
X197171286Y-97452690D01*
X197218905Y-97476500D01*
X197242714Y-97500310D01*
X197266524Y-97547929D01*
X197290333Y-97643167D01*
X197290333Y-97762214D01*
X197266524Y-97857452D01*
X197242714Y-97905071D01*
X197218905Y-97928881D01*
X197171286Y-97952690D01*
X197123667Y-97952690D01*
X197076048Y-97928881D01*
X197052238Y-97905071D01*
X197028429Y-97857452D01*
X197004619Y-97762214D01*
X197004619Y-97643167D01*
X197028429Y-97547929D01*
X197052238Y-97500310D01*
X197076048Y-97476500D01*
X197123667Y-97452690D01*
X197766523Y-97952690D02*
X197480809Y-97952690D01*
X197623666Y-97952690D02*
X197623666Y-97452690D01*
X197576047Y-97524119D01*
X197528428Y-97571738D01*
X197480809Y-97595548D01*
X198195094Y-97452690D02*
X198099856Y-97452690D01*
X198052237Y-97476500D01*
X198028428Y-97500310D01*
X197980809Y-97571738D01*
X197956999Y-97666976D01*
X197956999Y-97857452D01*
X197980809Y-97905071D01*
X198004618Y-97928881D01*
X198052237Y-97952690D01*
X198147475Y-97952690D01*
X198195094Y-97928881D01*
X198218904Y-97905071D01*
X198242713Y-97857452D01*
X198242713Y-97738405D01*
X198218904Y-97690786D01*
X198195094Y-97666976D01*
X198147475Y-97643167D01*
X198052237Y-97643167D01*
X198004618Y-97666976D01*
X197980809Y-97690786D01*
X197956999Y-97738405D01*
X192921286Y-98752690D02*
X192921286Y-98252690D01*
X192921286Y-98728881D02*
X192873667Y-98752690D01*
X192778429Y-98752690D01*
X192730810Y-98728881D01*
X192707001Y-98705071D01*
X192683191Y-98657452D01*
X192683191Y-98514595D01*
X192707001Y-98466976D01*
X192730810Y-98443167D01*
X192778429Y-98419357D01*
X192873667Y-98419357D01*
X192921286Y-98443167D01*
X193445096Y-98752690D02*
X193278429Y-98514595D01*
X193159382Y-98752690D02*
X193159382Y-98252690D01*
X193349858Y-98252690D01*
X193397477Y-98276500D01*
X193421286Y-98300310D01*
X193445096Y-98347929D01*
X193445096Y-98419357D01*
X193421286Y-98466976D01*
X193397477Y-98490786D01*
X193349858Y-98514595D01*
X193159382Y-98514595D01*
X193730810Y-98752690D02*
X193683191Y-98728881D01*
X193659382Y-98705071D01*
X193635572Y-98657452D01*
X193635572Y-98514595D01*
X193659382Y-98466976D01*
X193683191Y-98443167D01*
X193730810Y-98419357D01*
X193802239Y-98419357D01*
X193849858Y-98443167D01*
X193873667Y-98466976D01*
X193897477Y-98514595D01*
X193897477Y-98657452D01*
X193873667Y-98705071D01*
X193849858Y-98728881D01*
X193802239Y-98752690D01*
X193730810Y-98752690D01*
X194111763Y-98419357D02*
X194111763Y-98752690D01*
X194111763Y-98466976D02*
X194135572Y-98443167D01*
X194183191Y-98419357D01*
X194254620Y-98419357D01*
X194302239Y-98443167D01*
X194326048Y-98490786D01*
X194326048Y-98752690D01*
X194564144Y-98752690D02*
X194564144Y-98419357D01*
X194564144Y-98252690D02*
X194540334Y-98276500D01*
X194564144Y-98300310D01*
X194587953Y-98276500D01*
X194564144Y-98252690D01*
X194564144Y-98300310D01*
X194802239Y-98419357D02*
X194802239Y-98752690D01*
X194802239Y-98466976D02*
X194826048Y-98443167D01*
X194873667Y-98419357D01*
X194945096Y-98419357D01*
X194992715Y-98443167D01*
X195016524Y-98490786D01*
X195016524Y-98752690D01*
X195635572Y-98562214D02*
X196016524Y-98562214D01*
X196921286Y-98705071D02*
X196897476Y-98728881D01*
X196826048Y-98752690D01*
X196778429Y-98752690D01*
X196707000Y-98728881D01*
X196659381Y-98681262D01*
X196635572Y-98633643D01*
X196611762Y-98538405D01*
X196611762Y-98466976D01*
X196635572Y-98371738D01*
X196659381Y-98324119D01*
X196707000Y-98276500D01*
X196778429Y-98252690D01*
X196826048Y-98252690D01*
X196897476Y-98276500D01*
X196921286Y-98300310D01*
X197421286Y-98705071D02*
X197397476Y-98728881D01*
X197326048Y-98752690D01*
X197278429Y-98752690D01*
X197207000Y-98728881D01*
X197159381Y-98681262D01*
X197135572Y-98633643D01*
X197111762Y-98538405D01*
X197111762Y-98466976D01*
X197135572Y-98371738D01*
X197159381Y-98324119D01*
X197207000Y-98276500D01*
X197278429Y-98252690D01*
X197326048Y-98252690D01*
X197397476Y-98276500D01*
X197421286Y-98300310D01*
X198183190Y-98490786D02*
X198254619Y-98514595D01*
X198278428Y-98538405D01*
X198302238Y-98586024D01*
X198302238Y-98657452D01*
X198278428Y-98705071D01*
X198254619Y-98728881D01*
X198207000Y-98752690D01*
X198016524Y-98752690D01*
X198016524Y-98252690D01*
X198183190Y-98252690D01*
X198230809Y-98276500D01*
X198254619Y-98300310D01*
X198278428Y-98347929D01*
X198278428Y-98395548D01*
X198254619Y-98443167D01*
X198230809Y-98466976D01*
X198183190Y-98490786D01*
X198016524Y-98490786D01*
X198611762Y-98514595D02*
X198611762Y-98752690D01*
X198445095Y-98252690D02*
X198611762Y-98514595D01*
X198778428Y-98252690D01*
D11*
X201037000Y-111221500D02*
X200537000Y-111221500D01*
X200537000Y-112171500D02*
X201037000Y-112171500D01*
X196626500Y-110676500D02*
X196626500Y-110176500D01*
X195676500Y-110176500D02*
X195676500Y-110676500D01*
X195674000Y-110676500D02*
X195674000Y-110176500D01*
X194724000Y-110176500D02*
X194724000Y-110676500D01*
X192853500Y-105885000D02*
X193353500Y-105885000D01*
X193353500Y-104935000D02*
X192853500Y-104935000D01*
X201037000Y-108364000D02*
X200537000Y-108364000D01*
X200537000Y-109314000D02*
X201037000Y-109314000D01*
X201037000Y-112174000D02*
X200537000Y-112174000D01*
X200537000Y-113124000D02*
X201037000Y-113124000D01*
X194885500Y-100678000D02*
X195385500Y-100678000D01*
X195385500Y-99728000D02*
X194885500Y-99728000D01*
X193163000Y-105964500D02*
X192663000Y-105964500D01*
X192663000Y-107014500D02*
X193163000Y-107014500D01*
X204347000Y-98759500D02*
X204847000Y-98759500D01*
X204847000Y-97709500D02*
X204347000Y-97709500D01*
X204847000Y-98662000D02*
X204347000Y-98662000D01*
X204347000Y-99712000D02*
X204847000Y-99712000D01*
X200910000Y-109330000D02*
X200410000Y-109330000D01*
X200410000Y-110380000D02*
X200910000Y-110380000D01*
X204453000Y-100905500D02*
X204453000Y-101405500D01*
X205503000Y-101405500D02*
X205503000Y-100905500D01*
X193912000Y-112018000D02*
X193912000Y-112518000D01*
X194962000Y-112518000D02*
X194962000Y-112018000D01*
X195626500Y-112018000D02*
X195626500Y-112518000D01*
X196676500Y-112518000D02*
X196676500Y-112018000D01*
X203945000Y-112018000D02*
X203945000Y-112518000D01*
X204995000Y-112518000D02*
X204995000Y-112018000D01*
X195449000Y-108377500D02*
X194949000Y-108377500D01*
X194949000Y-109427500D02*
X195449000Y-109427500D01*
X193544000Y-98979500D02*
X193044000Y-98979500D01*
X193044000Y-100029500D02*
X193544000Y-100029500D01*
X203196000Y-97011000D02*
X202696000Y-97011000D01*
X202696000Y-98061000D02*
X203196000Y-98061000D01*
X202696000Y-99077000D02*
X203196000Y-99077000D01*
X203196000Y-98027000D02*
X202696000Y-98027000D01*
X201999000Y-100896000D02*
X201999000Y-101421000D01*
X194749000Y-108146000D02*
X194749000Y-107621000D01*
X201999000Y-108146000D02*
X201999000Y-107621000D01*
X194749000Y-100896000D02*
X195274000Y-100896000D01*
X194749000Y-108146000D02*
X195274000Y-108146000D01*
X201999000Y-108146000D02*
X201474000Y-108146000D01*
X201999000Y-100896000D02*
X201474000Y-100896000D01*
D12*
X193817000Y-104824000D02*
X193817000Y-104924000D01*
X193817000Y-104924000D02*
X192517000Y-104924000D01*
X192517000Y-104924000D02*
X192517000Y-104824000D01*
X192517000Y-101424000D02*
X192517000Y-101274000D01*
X192517000Y-101274000D02*
X193817000Y-101274000D01*
X193817000Y-101274000D02*
X193817000Y-101424000D01*
D13*
X193817000Y-102324000D02*
X193817000Y-102724000D01*
X193817000Y-103524000D02*
X193817000Y-103924000D01*
X192517000Y-102324000D02*
X192517000Y-102724000D01*
X192517000Y-103524000D02*
X192517000Y-103924000D01*
X192167000Y-101724000D02*
G75*
G03X192167000Y-101724000I-200000J0D01*
G01*
D11*
X199687000Y-98086000D02*
X201587000Y-98086000D01*
X199687000Y-96986000D02*
X201587000Y-96986000D01*
X199063000Y-97536000D02*
X199513000Y-97536000D01*
X199013000Y-97286000D02*
X199013000Y-97786000D01*
X199013000Y-97536000D02*
X199263000Y-97286000D01*
X199263000Y-97286000D02*
X199263000Y-97786000D01*
X199263000Y-97786000D02*
X199013000Y-97536000D01*
X199687000Y-99229000D02*
X201587000Y-99229000D01*
X199687000Y-98129000D02*
X201587000Y-98129000D01*
X199063000Y-98679000D02*
X199513000Y-98679000D01*
X199013000Y-98429000D02*
X199013000Y-98929000D01*
X199013000Y-98679000D02*
X199263000Y-98429000D01*
X199263000Y-98429000D02*
X199263000Y-98929000D01*
X199263000Y-98929000D02*
X199013000Y-98679000D01*
D14*
X199694800Y-111340900D02*
X199694800Y-110782100D01*
X198577200Y-110274100D02*
X197916800Y-110274100D01*
X196799200Y-110782100D02*
X196799200Y-111340900D01*
X197027803Y-110883704D02*
G75*
G02X197027800Y-111239300I-227573J-177796D01*
G01*
X197027803Y-110883704D02*
G75*
G02X197027800Y-111239300I-227573J-177796D01*
G01*
D15*
X202164167Y-111875071D02*
X202140357Y-111898881D01*
X202068929Y-111922690D01*
X202021310Y-111922690D01*
X201949881Y-111898881D01*
X201902262Y-111851262D01*
X201878453Y-111803643D01*
X201854643Y-111708405D01*
X201854643Y-111636976D01*
X201878453Y-111541738D01*
X201902262Y-111494119D01*
X201949881Y-111446500D01*
X202021310Y-111422690D01*
X202068929Y-111422690D01*
X202140357Y-111446500D01*
X202164167Y-111470310D01*
X202640357Y-111922690D02*
X202354643Y-111922690D01*
X202497500Y-111922690D02*
X202497500Y-111422690D01*
X202449881Y-111494119D01*
X202402262Y-111541738D01*
X202354643Y-111565548D01*
X194488571Y-109938333D02*
X194512381Y-109962143D01*
X194536190Y-110033571D01*
X194536190Y-110081190D01*
X194512381Y-110152619D01*
X194464762Y-110200238D01*
X194417143Y-110224047D01*
X194321905Y-110247857D01*
X194250476Y-110247857D01*
X194155238Y-110224047D01*
X194107619Y-110200238D01*
X194060000Y-110152619D01*
X194036190Y-110081190D01*
X194036190Y-110033571D01*
X194060000Y-109962143D01*
X194083810Y-109938333D01*
X194036190Y-109771666D02*
X194036190Y-109462143D01*
X194226667Y-109628809D01*
X194226667Y-109557381D01*
X194250476Y-109509762D01*
X194274286Y-109485952D01*
X194321905Y-109462143D01*
X194440952Y-109462143D01*
X194488571Y-109485952D01*
X194512381Y-109509762D01*
X194536190Y-109557381D01*
X194536190Y-109700238D01*
X194512381Y-109747857D01*
X194488571Y-109771666D01*
X193790071Y-109938333D02*
X193813881Y-109962143D01*
X193837690Y-110033571D01*
X193837690Y-110081190D01*
X193813881Y-110152619D01*
X193766262Y-110200238D01*
X193718643Y-110224047D01*
X193623405Y-110247857D01*
X193551976Y-110247857D01*
X193456738Y-110224047D01*
X193409119Y-110200238D01*
X193361500Y-110152619D01*
X193337690Y-110081190D01*
X193337690Y-110033571D01*
X193361500Y-109962143D01*
X193385310Y-109938333D01*
X193504357Y-109509762D02*
X193837690Y-109509762D01*
X193313881Y-109628809D02*
X193671024Y-109747857D01*
X193671024Y-109438333D01*
X190924667Y-105588571D02*
X190900857Y-105612381D01*
X190829429Y-105636190D01*
X190781810Y-105636190D01*
X190710381Y-105612381D01*
X190662762Y-105564762D01*
X190638953Y-105517143D01*
X190615143Y-105421905D01*
X190615143Y-105350476D01*
X190638953Y-105255238D01*
X190662762Y-105207619D01*
X190710381Y-105160000D01*
X190781810Y-105136190D01*
X190829429Y-105136190D01*
X190900857Y-105160000D01*
X190924667Y-105183810D01*
X191377048Y-105136190D02*
X191138953Y-105136190D01*
X191115143Y-105374286D01*
X191138953Y-105350476D01*
X191186572Y-105326667D01*
X191305619Y-105326667D01*
X191353238Y-105350476D01*
X191377048Y-105374286D01*
X191400857Y-105421905D01*
X191400857Y-105540952D01*
X191377048Y-105588571D01*
X191353238Y-105612381D01*
X191305619Y-105636190D01*
X191186572Y-105636190D01*
X191138953Y-105612381D01*
X191115143Y-105588571D01*
X202227667Y-109017571D02*
X202203857Y-109041381D01*
X202132429Y-109065190D01*
X202084810Y-109065190D01*
X202013381Y-109041381D01*
X201965762Y-108993762D01*
X201941953Y-108946143D01*
X201918143Y-108850905D01*
X201918143Y-108779476D01*
X201941953Y-108684238D01*
X201965762Y-108636619D01*
X202013381Y-108589000D01*
X202084810Y-108565190D01*
X202132429Y-108565190D01*
X202203857Y-108589000D01*
X202227667Y-108612810D01*
X202656238Y-108565190D02*
X202561000Y-108565190D01*
X202513381Y-108589000D01*
X202489572Y-108612810D01*
X202441953Y-108684238D01*
X202418143Y-108779476D01*
X202418143Y-108969952D01*
X202441953Y-109017571D01*
X202465762Y-109041381D01*
X202513381Y-109065190D01*
X202608619Y-109065190D01*
X202656238Y-109041381D01*
X202680048Y-109017571D01*
X202703857Y-108969952D01*
X202703857Y-108850905D01*
X202680048Y-108803286D01*
X202656238Y-108779476D01*
X202608619Y-108755667D01*
X202513381Y-108755667D01*
X202465762Y-108779476D01*
X202441953Y-108803286D01*
X202418143Y-108850905D01*
X202164167Y-112827571D02*
X202140357Y-112851381D01*
X202068929Y-112875190D01*
X202021310Y-112875190D01*
X201949881Y-112851381D01*
X201902262Y-112803762D01*
X201878453Y-112756143D01*
X201854643Y-112660905D01*
X201854643Y-112589476D01*
X201878453Y-112494238D01*
X201902262Y-112446619D01*
X201949881Y-112399000D01*
X202021310Y-112375190D01*
X202068929Y-112375190D01*
X202140357Y-112399000D01*
X202164167Y-112422810D01*
X202330834Y-112375190D02*
X202664167Y-112375190D01*
X202449881Y-112875190D01*
X193591667Y-100826071D02*
X193567857Y-100849881D01*
X193496429Y-100873690D01*
X193448810Y-100873690D01*
X193377381Y-100849881D01*
X193329762Y-100802262D01*
X193305953Y-100754643D01*
X193282143Y-100659405D01*
X193282143Y-100587976D01*
X193305953Y-100492738D01*
X193329762Y-100445119D01*
X193377381Y-100397500D01*
X193448810Y-100373690D01*
X193496429Y-100373690D01*
X193567857Y-100397500D01*
X193591667Y-100421310D01*
X193877381Y-100587976D02*
X193829762Y-100564167D01*
X193805953Y-100540357D01*
X193782143Y-100492738D01*
X193782143Y-100468929D01*
X193805953Y-100421310D01*
X193829762Y-100397500D01*
X193877381Y-100373690D01*
X193972619Y-100373690D01*
X194020238Y-100397500D01*
X194044048Y-100421310D01*
X194067857Y-100468929D01*
X194067857Y-100492738D01*
X194044048Y-100540357D01*
X194020238Y-100564167D01*
X193972619Y-100587976D01*
X193877381Y-100587976D01*
X193829762Y-100611786D01*
X193805953Y-100635595D01*
X193782143Y-100683214D01*
X193782143Y-100778452D01*
X193805953Y-100826071D01*
X193829762Y-100849881D01*
X193877381Y-100873690D01*
X193972619Y-100873690D01*
X194020238Y-100849881D01*
X194044048Y-100826071D01*
X194067857Y-100778452D01*
X194067857Y-100683214D01*
X194044048Y-100635595D01*
X194020238Y-100611786D01*
X193972619Y-100587976D01*
X190988167Y-106906190D02*
X190821500Y-106668095D01*
X190702453Y-106906190D02*
X190702453Y-106406190D01*
X190892929Y-106406190D01*
X190940548Y-106430000D01*
X190964357Y-106453810D01*
X190988167Y-106501429D01*
X190988167Y-106572857D01*
X190964357Y-106620476D01*
X190940548Y-106644286D01*
X190892929Y-106668095D01*
X190702453Y-106668095D01*
X191464357Y-106906190D02*
X191178643Y-106906190D01*
X191321500Y-106906190D02*
X191321500Y-106406190D01*
X191273881Y-106477619D01*
X191226262Y-106525238D01*
X191178643Y-106549048D01*
X204640667Y-97571690D02*
X204474000Y-97333595D01*
X204354953Y-97571690D02*
X204354953Y-97071690D01*
X204545429Y-97071690D01*
X204593048Y-97095500D01*
X204616857Y-97119310D01*
X204640667Y-97166929D01*
X204640667Y-97238357D01*
X204616857Y-97285976D01*
X204593048Y-97309786D01*
X204545429Y-97333595D01*
X204354953Y-97333595D01*
X204831143Y-97119310D02*
X204854953Y-97095500D01*
X204902572Y-97071690D01*
X205021619Y-97071690D01*
X205069238Y-97095500D01*
X205093048Y-97119310D01*
X205116857Y-97166929D01*
X205116857Y-97214548D01*
X205093048Y-97285976D01*
X204807334Y-97571690D01*
X205116857Y-97571690D01*
X204196167Y-100365690D02*
X204029500Y-100127595D01*
X203910453Y-100365690D02*
X203910453Y-99865690D01*
X204100929Y-99865690D01*
X204148548Y-99889500D01*
X204172357Y-99913310D01*
X204196167Y-99960929D01*
X204196167Y-100032357D01*
X204172357Y-100079976D01*
X204148548Y-100103786D01*
X204100929Y-100127595D01*
X203910453Y-100127595D01*
X204362834Y-99865690D02*
X204672357Y-99865690D01*
X204505691Y-100056167D01*
X204577119Y-100056167D01*
X204624738Y-100079976D01*
X204648548Y-100103786D01*
X204672357Y-100151405D01*
X204672357Y-100270452D01*
X204648548Y-100318071D01*
X204624738Y-100341881D01*
X204577119Y-100365690D01*
X204434262Y-100365690D01*
X204386643Y-100341881D01*
X204362834Y-100318071D01*
X201973667Y-110081190D02*
X201807000Y-109843095D01*
X201687953Y-110081190D02*
X201687953Y-109581190D01*
X201878429Y-109581190D01*
X201926048Y-109605000D01*
X201949857Y-109628810D01*
X201973667Y-109676429D01*
X201973667Y-109747857D01*
X201949857Y-109795476D01*
X201926048Y-109819286D01*
X201878429Y-109843095D01*
X201687953Y-109843095D01*
X202402238Y-109747857D02*
X202402238Y-110081190D01*
X202283191Y-109557381D02*
X202164143Y-109914524D01*
X202473667Y-109914524D01*
X205204190Y-102572333D02*
X204966095Y-102739000D01*
X205204190Y-102858047D02*
X204704190Y-102858047D01*
X204704190Y-102667571D01*
X204728000Y-102619952D01*
X204751810Y-102596143D01*
X204799429Y-102572333D01*
X204870857Y-102572333D01*
X204918476Y-102596143D01*
X204942286Y-102619952D01*
X204966095Y-102667571D01*
X204966095Y-102858047D01*
X204704190Y-102119952D02*
X204704190Y-102358047D01*
X204942286Y-102381857D01*
X204918476Y-102358047D01*
X204894667Y-102310428D01*
X204894667Y-102191381D01*
X204918476Y-102143762D01*
X204942286Y-102119952D01*
X204989905Y-102096143D01*
X205108952Y-102096143D01*
X205156571Y-102119952D01*
X205180381Y-102143762D01*
X205204190Y-102191381D01*
X205204190Y-102310428D01*
X205180381Y-102358047D01*
X205156571Y-102381857D01*
X193837690Y-111398833D02*
X193599595Y-111565500D01*
X193837690Y-111684547D02*
X193337690Y-111684547D01*
X193337690Y-111494071D01*
X193361500Y-111446452D01*
X193385310Y-111422643D01*
X193432929Y-111398833D01*
X193504357Y-111398833D01*
X193551976Y-111422643D01*
X193575786Y-111446452D01*
X193599595Y-111494071D01*
X193599595Y-111684547D01*
X193337690Y-110970262D02*
X193337690Y-111065500D01*
X193361500Y-111113119D01*
X193385310Y-111136928D01*
X193456738Y-111184547D01*
X193551976Y-111208357D01*
X193742452Y-111208357D01*
X193790071Y-111184547D01*
X193813881Y-111160738D01*
X193837690Y-111113119D01*
X193837690Y-111017881D01*
X193813881Y-110970262D01*
X193790071Y-110946452D01*
X193742452Y-110922643D01*
X193623405Y-110922643D01*
X193575786Y-110946452D01*
X193551976Y-110970262D01*
X193528167Y-111017881D01*
X193528167Y-111113119D01*
X193551976Y-111160738D01*
X193575786Y-111184547D01*
X193623405Y-111208357D01*
X195552190Y-112033833D02*
X195314095Y-112200500D01*
X195552190Y-112319547D02*
X195052190Y-112319547D01*
X195052190Y-112129071D01*
X195076000Y-112081452D01*
X195099810Y-112057643D01*
X195147429Y-112033833D01*
X195218857Y-112033833D01*
X195266476Y-112057643D01*
X195290286Y-112081452D01*
X195314095Y-112129071D01*
X195314095Y-112319547D01*
X195052190Y-111867166D02*
X195052190Y-111533833D01*
X195552190Y-111748119D01*
X203743690Y-112351333D02*
X203505595Y-112518000D01*
X203743690Y-112637047D02*
X203243690Y-112637047D01*
X203243690Y-112446571D01*
X203267500Y-112398952D01*
X203291310Y-112375143D01*
X203338929Y-112351333D01*
X203410357Y-112351333D01*
X203457976Y-112375143D01*
X203481786Y-112398952D01*
X203505595Y-112446571D01*
X203505595Y-112637047D01*
X203457976Y-112065619D02*
X203434167Y-112113238D01*
X203410357Y-112137047D01*
X203362738Y-112160857D01*
X203338929Y-112160857D01*
X203291310Y-112137047D01*
X203267500Y-112113238D01*
X203243690Y-112065619D01*
X203243690Y-111970381D01*
X203267500Y-111922762D01*
X203291310Y-111898952D01*
X203338929Y-111875143D01*
X203362738Y-111875143D01*
X203410357Y-111898952D01*
X203434167Y-111922762D01*
X203457976Y-111970381D01*
X203457976Y-112065619D01*
X203481786Y-112113238D01*
X203505595Y-112137047D01*
X203553214Y-112160857D01*
X203648452Y-112160857D01*
X203696071Y-112137047D01*
X203719881Y-112113238D01*
X203743690Y-112065619D01*
X203743690Y-111970381D01*
X203719881Y-111922762D01*
X203696071Y-111898952D01*
X203648452Y-111875143D01*
X203553214Y-111875143D01*
X203505595Y-111898952D01*
X203481786Y-111922762D01*
X203457976Y-111970381D01*
X193845667Y-108684190D02*
X193679000Y-108446095D01*
X193559953Y-108684190D02*
X193559953Y-108184190D01*
X193750429Y-108184190D01*
X193798048Y-108208000D01*
X193821857Y-108231810D01*
X193845667Y-108279429D01*
X193845667Y-108350857D01*
X193821857Y-108398476D01*
X193798048Y-108422286D01*
X193750429Y-108446095D01*
X193559953Y-108446095D01*
X194083762Y-108684190D02*
X194179000Y-108684190D01*
X194226619Y-108660381D01*
X194250429Y-108636571D01*
X194298048Y-108565143D01*
X194321857Y-108469905D01*
X194321857Y-108279429D01*
X194298048Y-108231810D01*
X194274238Y-108208000D01*
X194226619Y-108184190D01*
X194131381Y-108184190D01*
X194083762Y-108208000D01*
X194059953Y-108231810D01*
X194036143Y-108279429D01*
X194036143Y-108398476D01*
X194059953Y-108446095D01*
X194083762Y-108469905D01*
X194131381Y-108493714D01*
X194226619Y-108493714D01*
X194274238Y-108469905D01*
X194298048Y-108446095D01*
X194321857Y-108398476D01*
X191448572Y-99730690D02*
X191281905Y-99492595D01*
X191162858Y-99730690D02*
X191162858Y-99230690D01*
X191353334Y-99230690D01*
X191400953Y-99254500D01*
X191424762Y-99278310D01*
X191448572Y-99325929D01*
X191448572Y-99397357D01*
X191424762Y-99444976D01*
X191400953Y-99468786D01*
X191353334Y-99492595D01*
X191162858Y-99492595D01*
X191924762Y-99730690D02*
X191639048Y-99730690D01*
X191781905Y-99730690D02*
X191781905Y-99230690D01*
X191734286Y-99302119D01*
X191686667Y-99349738D01*
X191639048Y-99373548D01*
X192234286Y-99230690D02*
X192281905Y-99230690D01*
X192329524Y-99254500D01*
X192353333Y-99278310D01*
X192377143Y-99325929D01*
X192400952Y-99421167D01*
X192400952Y-99540214D01*
X192377143Y-99635452D01*
X192353333Y-99683071D01*
X192329524Y-99706881D01*
X192281905Y-99730690D01*
X192234286Y-99730690D01*
X192186667Y-99706881D01*
X192162857Y-99683071D01*
X192139048Y-99635452D01*
X192115238Y-99540214D01*
X192115238Y-99421167D01*
X192139048Y-99325929D01*
X192162857Y-99278310D01*
X192186667Y-99254500D01*
X192234286Y-99230690D01*
X202497572Y-99794190D02*
X202330905Y-99556095D01*
X202211858Y-99794190D02*
X202211858Y-99294190D01*
X202402334Y-99294190D01*
X202449953Y-99318000D01*
X202473762Y-99341810D01*
X202497572Y-99389429D01*
X202497572Y-99460857D01*
X202473762Y-99508476D01*
X202449953Y-99532286D01*
X202402334Y-99556095D01*
X202211858Y-99556095D01*
X202973762Y-99794190D02*
X202688048Y-99794190D01*
X202830905Y-99794190D02*
X202830905Y-99294190D01*
X202783286Y-99365619D01*
X202735667Y-99413238D01*
X202688048Y-99437048D01*
X203164238Y-99341810D02*
X203188048Y-99318000D01*
X203235667Y-99294190D01*
X203354714Y-99294190D01*
X203402333Y-99318000D01*
X203426143Y-99341810D01*
X203449952Y-99389429D01*
X203449952Y-99437048D01*
X203426143Y-99508476D01*
X203140429Y-99794190D01*
X203449952Y-99794190D01*
X202497572Y-100492690D02*
X202330905Y-100254595D01*
X202211858Y-100492690D02*
X202211858Y-99992690D01*
X202402334Y-99992690D01*
X202449953Y-100016500D01*
X202473762Y-100040310D01*
X202497572Y-100087929D01*
X202497572Y-100159357D01*
X202473762Y-100206976D01*
X202449953Y-100230786D01*
X202402334Y-100254595D01*
X202211858Y-100254595D01*
X202973762Y-100492690D02*
X202688048Y-100492690D01*
X202830905Y-100492690D02*
X202830905Y-99992690D01*
X202783286Y-100064119D01*
X202735667Y-100111738D01*
X202688048Y-100135548D01*
X203140429Y-99992690D02*
X203449952Y-99992690D01*
X203283286Y-100183167D01*
X203354714Y-100183167D01*
X203402333Y-100206976D01*
X203426143Y-100230786D01*
X203449952Y-100278405D01*
X203449952Y-100397452D01*
X203426143Y-100445071D01*
X203402333Y-100468881D01*
X203354714Y-100492690D01*
X203211857Y-100492690D01*
X203164238Y-100468881D01*
X203140429Y-100445071D01*
X190948548Y-107739690D02*
X191234262Y-107739690D01*
X191091405Y-108239690D02*
X191091405Y-107739690D01*
X191400929Y-108239690D02*
X191400929Y-107739690D01*
X191591405Y-107739690D01*
X191639024Y-107763500D01*
X191662833Y-107787310D01*
X191686643Y-107834929D01*
X191686643Y-107906357D01*
X191662833Y-107953976D01*
X191639024Y-107977786D01*
X191591405Y-108001595D01*
X191400929Y-108001595D01*
X191877119Y-107787310D02*
X191900929Y-107763500D01*
X191948548Y-107739690D01*
X192067595Y-107739690D01*
X192115214Y-107763500D01*
X192139024Y-107787310D01*
X192162833Y-107834929D01*
X192162833Y-107882548D01*
X192139024Y-107953976D01*
X191853310Y-108239690D01*
X192162833Y-108239690D01*
D11*
X197294595Y-99147381D02*
X197294595Y-99956905D01*
X197342214Y-100052143D01*
X197389833Y-100099762D01*
X197485071Y-100147381D01*
X197675548Y-100147381D01*
X197770786Y-100099762D01*
X197818405Y-100052143D01*
X197866024Y-99956905D01*
X197866024Y-99147381D01*
X198866024Y-100147381D02*
X198294595Y-100147381D01*
X198580309Y-100147381D02*
X198580309Y-99147381D01*
X198485071Y-99290238D01*
X198389833Y-99385476D01*
X198294595Y-99433095D01*
D10*
X191307643Y-103417642D02*
X191664786Y-103417642D01*
X190914786Y-103667642D02*
X191307643Y-103417642D01*
X190914786Y-103167642D01*
X191664786Y-102524785D02*
X191664786Y-102953357D01*
X191664786Y-102739071D02*
X190914786Y-102739071D01*
X191021929Y-102810500D01*
X191093357Y-102881928D01*
X191129071Y-102953357D01*
D15*
X200417953Y-99921190D02*
X200417953Y-99421190D01*
X200537000Y-99421190D01*
X200608429Y-99445000D01*
X200656048Y-99492619D01*
X200679857Y-99540238D01*
X200703667Y-99635476D01*
X200703667Y-99706905D01*
X200679857Y-99802143D01*
X200656048Y-99849762D01*
X200608429Y-99897381D01*
X200537000Y-99921190D01*
X200417953Y-99921190D01*
X201179857Y-99921190D02*
X200894143Y-99921190D01*
X201037000Y-99921190D02*
X201037000Y-99421190D01*
X200989381Y-99492619D01*
X200941762Y-99540238D01*
X200894143Y-99564048D01*
X200417953Y-100556190D02*
X200417953Y-100056190D01*
X200537000Y-100056190D01*
X200608429Y-100080000D01*
X200656048Y-100127619D01*
X200679857Y-100175238D01*
X200703667Y-100270476D01*
X200703667Y-100341905D01*
X200679857Y-100437143D01*
X200656048Y-100484762D01*
X200608429Y-100532381D01*
X200537000Y-100556190D01*
X200417953Y-100556190D01*
X200894143Y-100103810D02*
X200917953Y-100080000D01*
X200965572Y-100056190D01*
X201084619Y-100056190D01*
X201132238Y-100080000D01*
X201156048Y-100103810D01*
X201179857Y-100151429D01*
X201179857Y-100199048D01*
X201156048Y-100270476D01*
X200870334Y-100556190D01*
X201179857Y-100556190D01*
X191139048Y-109898690D02*
X191424762Y-109898690D01*
X191281905Y-110398690D02*
X191281905Y-109898690D01*
X191591429Y-110398690D02*
X191591429Y-109898690D01*
X191781905Y-109898690D01*
X191829524Y-109922500D01*
X191853333Y-109946310D01*
X191877143Y-109993929D01*
X191877143Y-110065357D01*
X191853333Y-110112976D01*
X191829524Y-110136786D01*
X191781905Y-110160595D01*
X191591429Y-110160595D01*
X192353333Y-110398690D02*
X192067619Y-110398690D01*
X192210476Y-110398690D02*
X192210476Y-109898690D01*
X192162857Y-109970119D01*
X192115238Y-110017738D01*
X192067619Y-110041548D01*
X199898048Y-110533690D02*
X199898048Y-110938452D01*
X199921857Y-110986071D01*
X199945667Y-111009881D01*
X199993286Y-111033690D01*
X200088524Y-111033690D01*
X200136143Y-111009881D01*
X200159952Y-110986071D01*
X200183762Y-110938452D01*
X200183762Y-110533690D01*
X200398048Y-110581310D02*
X200421858Y-110557500D01*
X200469477Y-110533690D01*
X200588524Y-110533690D01*
X200636143Y-110557500D01*
X200659953Y-110581310D01*
X200683762Y-110628929D01*
X200683762Y-110676548D01*
X200659953Y-110747976D01*
X200374239Y-111033690D01*
X200683762Y-111033690D01*
%LPC*%
D16*
X200237000Y-111696500D03*
X201337000Y-111696500D03*
D17*
X196151500Y-109876500D03*
X196151500Y-110976500D03*
X195199000Y-109876500D03*
X195199000Y-110976500D03*
D16*
X193653500Y-105410000D03*
X192553500Y-105410000D03*
X200237000Y-108839000D03*
X201337000Y-108839000D03*
X200237000Y-112649000D03*
X201337000Y-112649000D03*
X195685500Y-100203000D03*
X194585500Y-100203000D03*
D18*
X192463000Y-106489500D03*
X193363000Y-106489500D03*
X205047000Y-98234500D03*
X204147000Y-98234500D03*
X204147000Y-99187000D03*
X205047000Y-99187000D03*
X200210000Y-109855000D03*
X201110000Y-109855000D03*
D19*
X204978000Y-101605500D03*
X204978000Y-100705500D03*
X194437000Y-112718000D03*
X194437000Y-111818000D03*
X196151500Y-112718000D03*
X196151500Y-111818000D03*
X204470000Y-112718000D03*
X204470000Y-111818000D03*
D18*
X194749000Y-108902500D03*
X195649000Y-108902500D03*
X192844000Y-99504500D03*
X193744000Y-99504500D03*
X202496000Y-97536000D03*
X203396000Y-97536000D03*
X203396000Y-98552000D03*
X202496000Y-98552000D03*
D20*
X191579500Y-108839000D03*
X202692000Y-103441500D03*
D21*
X194974000Y-101771000D03*
X194974000Y-102271000D03*
X194974000Y-102771000D03*
X194974000Y-103271000D03*
X194974000Y-103771000D03*
X194974000Y-104271000D03*
X194974000Y-104771000D03*
X194974000Y-105271000D03*
X194974000Y-105771000D03*
X194974000Y-106271000D03*
X194974000Y-106771000D03*
X194974000Y-107271000D03*
D22*
X195624000Y-107921000D03*
X196124000Y-107921000D03*
X196624000Y-107921000D03*
X197124000Y-107921000D03*
X197624000Y-107921000D03*
X198124000Y-107921000D03*
X198624000Y-107921000D03*
X199124000Y-107921000D03*
X199624000Y-107921000D03*
X200124000Y-107921000D03*
X200624000Y-107921000D03*
X201124000Y-107921000D03*
D21*
X201774000Y-107271000D03*
X201774000Y-106771000D03*
X201774000Y-106271000D03*
X201774000Y-105771000D03*
X201774000Y-105271000D03*
X201774000Y-104771000D03*
X201774000Y-104271000D03*
X201774000Y-103771000D03*
X201774000Y-103271000D03*
X201774000Y-102771000D03*
X201774000Y-102271000D03*
X201774000Y-101771000D03*
D22*
X201124000Y-101121000D03*
X200624000Y-101121000D03*
X200124000Y-101121000D03*
X199624000Y-101121000D03*
X199124000Y-101121000D03*
X198624000Y-101121000D03*
X198124000Y-101121000D03*
X197624000Y-101121000D03*
X197124000Y-101121000D03*
X196624000Y-101121000D03*
X196124000Y-101121000D03*
X195624000Y-101121000D03*
D23*
X200305250Y-106452250D03*
X200305250Y-105164750D03*
X200305250Y-103877250D03*
X200305250Y-102589750D03*
X199017750Y-106452250D03*
X199017750Y-105164750D03*
X199017750Y-103877250D03*
X199017750Y-102589750D03*
X197730250Y-106452250D03*
X197730250Y-105164750D03*
X197730250Y-103877250D03*
X197730250Y-102589750D03*
X196442750Y-106452250D03*
X196442750Y-105164750D03*
X196442750Y-103877250D03*
X196442750Y-102589750D03*
D24*
X193167000Y-101924000D03*
X193167000Y-103124000D03*
X193167000Y-104324000D03*
D25*
X191770000Y-114300000D03*
D26*
X194310000Y-114300000D03*
X196850000Y-114300000D03*
X199390000Y-114300000D03*
X201930000Y-114300000D03*
X204470000Y-114300000D03*
D27*
X201536300Y-97536000D03*
X200037700Y-97536000D03*
X201536300Y-98679000D03*
X200037700Y-98679000D03*
D25*
X191770000Y-111760000D03*
D28*
X197307200Y-112229900D03*
X198247000Y-112229900D03*
X199186800Y-112229900D03*
X199186800Y-109893100D03*
X197307200Y-109893100D03*
M02*
