M48
;DRILL file {KiCad 4.0.2-stable} date 4/25/2016 12:45:46 PM
;FORMAT={-:-/ absolute / inch / decimal}
FMAT,2
INCH,TZ
T1C0.013
T2C0.040
%
G90
G05
M72
T1
X7.525Y-4.175
X7.5425Y-4.285
X7.5475Y-4.15
X7.55Y-4.2
X7.56Y-4.06
X7.57Y-3.83
X7.57Y-3.8825
X7.59Y-3.955
X7.625Y-4.415
X7.635Y-4.29
X7.655Y-3.91
X7.675Y-3.98
X7.695Y-4.435
X7.7Y-3.91
X7.73Y-4.29
X7.7325Y-3.9425
X7.734Y-4.039
X7.734Y-4.1403
X7.785Y-4.3725
X7.7875Y-4.325
X7.795Y-3.9475
X7.8075Y-4.2975
X7.8575Y-3.935
X7.886Y-4.039
X7.886Y-4.1403
X7.9375Y-4.355
X7.9575Y-3.98
X7.97Y-4.25
X7.975Y-4.01
X7.98Y-4.0725
X7.985Y-4.1775
X7.99Y-4.04
X7.9925Y-4.145
X7.995Y-4.3075
X8.005Y-4.095
X8.035Y-3.965
X8.035Y-4.355
X8.0375Y-4.
X8.0575Y-3.8175
T2
X7.55Y-4.4
X7.55Y-4.5
X7.65Y-4.5
X7.75Y-4.5
X7.85Y-4.5
X7.95Y-4.5
X8.05Y-4.5
T0
M30
