G04 #@! TF.FileFunction,Paste,Top*
%FSLAX46Y46*%
G04 Gerber Fmt 4.6, Leading zero omitted, Abs format (unit mm)*
G04 Created by KiCad (PCBNEW 4.0.2-stable) date Wednesday, April 27, 2016 'PMt' 05:06:49 PM*
%MOMM*%
G01*
G04 APERTURE LIST*
%ADD10C,0.100000*%
%ADD11R,0.480000X0.400000*%
%ADD12R,0.400000X0.480000*%
%ADD13R,0.320000X0.480000*%
%ADD14R,0.480000X0.320000*%
%ADD15R,0.560000X0.200000*%
%ADD16R,0.200000X0.560000*%
%ADD17R,0.772500X0.772500*%
%ADD18R,1.360000X0.560000*%
%ADD19R,0.638048X0.638048*%
%ADD20R,0.447040X1.056640*%
G04 APERTURE END LIST*
D10*
D11*
X200237000Y-111696500D03*
X201337000Y-111696500D03*
D12*
X196151500Y-109876500D03*
X196151500Y-110976500D03*
X195199000Y-109876500D03*
X195199000Y-110976500D03*
D11*
X193653500Y-105410000D03*
X192553500Y-105410000D03*
X200237000Y-108839000D03*
X201337000Y-108839000D03*
X200237000Y-112649000D03*
X201337000Y-112649000D03*
X195685500Y-100203000D03*
X194585500Y-100203000D03*
D13*
X192463000Y-106489500D03*
X193363000Y-106489500D03*
X205047000Y-98234500D03*
X204147000Y-98234500D03*
X204147000Y-99187000D03*
X205047000Y-99187000D03*
X200210000Y-109855000D03*
X201110000Y-109855000D03*
D14*
X204978000Y-101605500D03*
X204978000Y-100705500D03*
X194437000Y-112718000D03*
X194437000Y-111818000D03*
X196151500Y-112718000D03*
X196151500Y-111818000D03*
X204470000Y-112718000D03*
X204470000Y-111818000D03*
D13*
X194749000Y-108902500D03*
X195649000Y-108902500D03*
X192844000Y-99504500D03*
X193744000Y-99504500D03*
X202496000Y-97536000D03*
X203396000Y-97536000D03*
X203396000Y-98552000D03*
X202496000Y-98552000D03*
D15*
X194974000Y-101771000D03*
X194974000Y-102271000D03*
X194974000Y-102771000D03*
X194974000Y-103271000D03*
X194974000Y-103771000D03*
X194974000Y-104271000D03*
X194974000Y-104771000D03*
X194974000Y-105271000D03*
X194974000Y-105771000D03*
X194974000Y-106271000D03*
X194974000Y-106771000D03*
X194974000Y-107271000D03*
D16*
X195624000Y-107921000D03*
X196124000Y-107921000D03*
X196624000Y-107921000D03*
X197124000Y-107921000D03*
X197624000Y-107921000D03*
X198124000Y-107921000D03*
X198624000Y-107921000D03*
X199124000Y-107921000D03*
X199624000Y-107921000D03*
X200124000Y-107921000D03*
X200624000Y-107921000D03*
X201124000Y-107921000D03*
D15*
X201774000Y-107271000D03*
X201774000Y-106771000D03*
X201774000Y-106271000D03*
X201774000Y-105771000D03*
X201774000Y-105271000D03*
X201774000Y-104771000D03*
X201774000Y-104271000D03*
X201774000Y-103771000D03*
X201774000Y-103271000D03*
X201774000Y-102771000D03*
X201774000Y-102271000D03*
X201774000Y-101771000D03*
D16*
X201124000Y-101121000D03*
X200624000Y-101121000D03*
X200124000Y-101121000D03*
X199624000Y-101121000D03*
X199124000Y-101121000D03*
X198624000Y-101121000D03*
X198124000Y-101121000D03*
X197624000Y-101121000D03*
X197124000Y-101121000D03*
X196624000Y-101121000D03*
X196124000Y-101121000D03*
X195624000Y-101121000D03*
D17*
X200305250Y-106452250D03*
X200305250Y-105164750D03*
X200305250Y-103877250D03*
X200305250Y-102589750D03*
X199017750Y-106452250D03*
X199017750Y-105164750D03*
X199017750Y-103877250D03*
X199017750Y-102589750D03*
X197730250Y-106452250D03*
X197730250Y-105164750D03*
X197730250Y-103877250D03*
X197730250Y-102589750D03*
X196442750Y-106452250D03*
X196442750Y-105164750D03*
X196442750Y-103877250D03*
X196442750Y-102589750D03*
D18*
X193167000Y-101924000D03*
X193167000Y-103124000D03*
X193167000Y-104324000D03*
D19*
X201536300Y-97536000D03*
X200037700Y-97536000D03*
X201536300Y-98679000D03*
X200037700Y-98679000D03*
D20*
X197307200Y-112229900D03*
X198247000Y-112229900D03*
X199186800Y-112229900D03*
X199186800Y-109893100D03*
X197307200Y-109893100D03*
M02*
