G04 #@! TF.FileFunction,Legend,Top*
%FSLAX46Y46*%
G04 Gerber Fmt 4.6, Leading zero omitted, Abs format (unit mm)*
G04 Created by KiCad (PCBNEW 4.0.2-stable) date Thursday, June 16, 2016 'AMt' 09:32:41 AM*
%MOMM*%
G01*
G04 APERTURE LIST*
%ADD10C,0.100000*%
%ADD11C,0.150000*%
%ADD12C,0.203200*%
%ADD13C,0.127000*%
%ADD14C,0.152400*%
%ADD15C,0.010000*%
%ADD16C,0.125000*%
%ADD17R,0.600000X0.500000*%
%ADD18R,0.500000X0.600000*%
%ADD19R,0.400000X0.600000*%
%ADD20R,0.600000X0.400000*%
%ADD21C,0.685800*%
%ADD22R,0.700000X0.250000*%
%ADD23R,0.250000X0.700000*%
%ADD24R,1.287500X1.287500*%
%ADD25R,1.900000X0.900000*%
%ADD26R,1.727200X2.032000*%
%ADD27O,1.727200X2.032000*%
%ADD28R,0.797560X0.797560*%
%ADD29R,0.758800X1.520800*%
G04 APERTURE END LIST*
D10*
X193980810Y-97152690D02*
X193933191Y-97128881D01*
X193909382Y-97105071D01*
X193885572Y-97057452D01*
X193885572Y-96914595D01*
X193909382Y-96866976D01*
X193933191Y-96843167D01*
X193980810Y-96819357D01*
X194052239Y-96819357D01*
X194099858Y-96843167D01*
X194123667Y-96866976D01*
X194147477Y-96914595D01*
X194147477Y-97057452D01*
X194123667Y-97105071D01*
X194099858Y-97128881D01*
X194052239Y-97152690D01*
X193980810Y-97152690D01*
X194361763Y-96819357D02*
X194361763Y-97319357D01*
X194361763Y-96843167D02*
X194409382Y-96819357D01*
X194504620Y-96819357D01*
X194552239Y-96843167D01*
X194576048Y-96866976D01*
X194599858Y-96914595D01*
X194599858Y-97057452D01*
X194576048Y-97105071D01*
X194552239Y-97128881D01*
X194504620Y-97152690D01*
X194409382Y-97152690D01*
X194361763Y-97128881D01*
X195004620Y-97128881D02*
X194957001Y-97152690D01*
X194861763Y-97152690D01*
X194814144Y-97128881D01*
X194790334Y-97081262D01*
X194790334Y-96890786D01*
X194814144Y-96843167D01*
X194861763Y-96819357D01*
X194957001Y-96819357D01*
X195004620Y-96843167D01*
X195028429Y-96890786D01*
X195028429Y-96938405D01*
X194790334Y-96986024D01*
X195242715Y-96819357D02*
X195242715Y-97152690D01*
X195242715Y-96866976D02*
X195266524Y-96843167D01*
X195314143Y-96819357D01*
X195385572Y-96819357D01*
X195433191Y-96843167D01*
X195457000Y-96890786D01*
X195457000Y-97152690D01*
X195933191Y-97152690D02*
X195695096Y-97152690D01*
X195695096Y-96652690D01*
X196314143Y-97152690D02*
X196314143Y-96890786D01*
X196290334Y-96843167D01*
X196242715Y-96819357D01*
X196147477Y-96819357D01*
X196099858Y-96843167D01*
X196314143Y-97128881D02*
X196266524Y-97152690D01*
X196147477Y-97152690D01*
X196099858Y-97128881D01*
X196076048Y-97081262D01*
X196076048Y-97033643D01*
X196099858Y-96986024D01*
X196147477Y-96962214D01*
X196266524Y-96962214D01*
X196314143Y-96938405D01*
X196766524Y-96819357D02*
X196766524Y-97224119D01*
X196742715Y-97271738D01*
X196718905Y-97295548D01*
X196671286Y-97319357D01*
X196599858Y-97319357D01*
X196552239Y-97295548D01*
X196766524Y-97128881D02*
X196718905Y-97152690D01*
X196623667Y-97152690D01*
X196576048Y-97128881D01*
X196552239Y-97105071D01*
X196528429Y-97057452D01*
X196528429Y-96914595D01*
X196552239Y-96866976D01*
X196576048Y-96843167D01*
X196623667Y-96819357D01*
X196718905Y-96819357D01*
X196766524Y-96843167D01*
X197195096Y-97128881D02*
X197147477Y-97152690D01*
X197052239Y-97152690D01*
X197004620Y-97128881D01*
X196980810Y-97081262D01*
X196980810Y-96890786D01*
X197004620Y-96843167D01*
X197052239Y-96819357D01*
X197147477Y-96819357D01*
X197195096Y-96843167D01*
X197218905Y-96890786D01*
X197218905Y-96938405D01*
X196980810Y-96986024D01*
X197433191Y-97152690D02*
X197433191Y-96819357D01*
X197433191Y-96914595D02*
X197457000Y-96866976D01*
X197480810Y-96843167D01*
X197528429Y-96819357D01*
X197576048Y-96819357D01*
X193445097Y-97952690D02*
X193278430Y-97714595D01*
X193159383Y-97952690D02*
X193159383Y-97452690D01*
X193349859Y-97452690D01*
X193397478Y-97476500D01*
X193421287Y-97500310D01*
X193445097Y-97547929D01*
X193445097Y-97619357D01*
X193421287Y-97666976D01*
X193397478Y-97690786D01*
X193349859Y-97714595D01*
X193159383Y-97714595D01*
X193849859Y-97928881D02*
X193802240Y-97952690D01*
X193707002Y-97952690D01*
X193659383Y-97928881D01*
X193635573Y-97881262D01*
X193635573Y-97690786D01*
X193659383Y-97643167D01*
X193707002Y-97619357D01*
X193802240Y-97619357D01*
X193849859Y-97643167D01*
X193873668Y-97690786D01*
X193873668Y-97738405D01*
X193635573Y-97786024D01*
X194040335Y-97619357D02*
X194159382Y-97952690D01*
X194278430Y-97619357D01*
X195016524Y-97690786D02*
X195087953Y-97714595D01*
X195111762Y-97738405D01*
X195135572Y-97786024D01*
X195135572Y-97857452D01*
X195111762Y-97905071D01*
X195087953Y-97928881D01*
X195040334Y-97952690D01*
X194849858Y-97952690D01*
X194849858Y-97452690D01*
X195016524Y-97452690D01*
X195064143Y-97476500D01*
X195087953Y-97500310D01*
X195111762Y-97547929D01*
X195111762Y-97595548D01*
X195087953Y-97643167D01*
X195064143Y-97666976D01*
X195016524Y-97690786D01*
X194849858Y-97690786D01*
X196135572Y-97571738D02*
X196087952Y-97547929D01*
X195992714Y-97547929D01*
X195945095Y-97571738D01*
X195897476Y-97619357D01*
X195873667Y-97666976D01*
X195873667Y-97762214D01*
X195897476Y-97809833D01*
X195945095Y-97857452D01*
X195992714Y-97881262D01*
X196087952Y-97881262D01*
X196135572Y-97857452D01*
X196040333Y-97381262D02*
X195921286Y-97405071D01*
X195802238Y-97476500D01*
X195730810Y-97595548D01*
X195707000Y-97714595D01*
X195730810Y-97833643D01*
X195802238Y-97952690D01*
X195921286Y-98024119D01*
X196040333Y-98047929D01*
X196159381Y-98024119D01*
X196278429Y-97952690D01*
X196349857Y-97833643D01*
X196373667Y-97714595D01*
X196349857Y-97595548D01*
X196278429Y-97476500D01*
X196159381Y-97405071D01*
X196040333Y-97381262D01*
X196564143Y-97500310D02*
X196587953Y-97476500D01*
X196635572Y-97452690D01*
X196754619Y-97452690D01*
X196802238Y-97476500D01*
X196826048Y-97500310D01*
X196849857Y-97547929D01*
X196849857Y-97595548D01*
X196826048Y-97666976D01*
X196540334Y-97952690D01*
X196849857Y-97952690D01*
X197159381Y-97452690D02*
X197207000Y-97452690D01*
X197254619Y-97476500D01*
X197278428Y-97500310D01*
X197302238Y-97547929D01*
X197326047Y-97643167D01*
X197326047Y-97762214D01*
X197302238Y-97857452D01*
X197278428Y-97905071D01*
X197254619Y-97928881D01*
X197207000Y-97952690D01*
X197159381Y-97952690D01*
X197111762Y-97928881D01*
X197087952Y-97905071D01*
X197064143Y-97857452D01*
X197040333Y-97762214D01*
X197040333Y-97643167D01*
X197064143Y-97547929D01*
X197087952Y-97500310D01*
X197111762Y-97476500D01*
X197159381Y-97452690D01*
X197802237Y-97952690D02*
X197516523Y-97952690D01*
X197659380Y-97952690D02*
X197659380Y-97452690D01*
X197611761Y-97524119D01*
X197564142Y-97571738D01*
X197516523Y-97595548D01*
X198230808Y-97452690D02*
X198135570Y-97452690D01*
X198087951Y-97476500D01*
X198064142Y-97500310D01*
X198016523Y-97571738D01*
X197992713Y-97666976D01*
X197992713Y-97857452D01*
X198016523Y-97905071D01*
X198040332Y-97928881D01*
X198087951Y-97952690D01*
X198183189Y-97952690D01*
X198230808Y-97928881D01*
X198254618Y-97905071D01*
X198278427Y-97857452D01*
X198278427Y-97738405D01*
X198254618Y-97690786D01*
X198230808Y-97666976D01*
X198183189Y-97643167D01*
X198087951Y-97643167D01*
X198040332Y-97666976D01*
X198016523Y-97690786D01*
X197992713Y-97738405D01*
X192921286Y-98752690D02*
X192921286Y-98252690D01*
X192921286Y-98728881D02*
X192873667Y-98752690D01*
X192778429Y-98752690D01*
X192730810Y-98728881D01*
X192707001Y-98705071D01*
X192683191Y-98657452D01*
X192683191Y-98514595D01*
X192707001Y-98466976D01*
X192730810Y-98443167D01*
X192778429Y-98419357D01*
X192873667Y-98419357D01*
X192921286Y-98443167D01*
X193445096Y-98752690D02*
X193278429Y-98514595D01*
X193159382Y-98752690D02*
X193159382Y-98252690D01*
X193349858Y-98252690D01*
X193397477Y-98276500D01*
X193421286Y-98300310D01*
X193445096Y-98347929D01*
X193445096Y-98419357D01*
X193421286Y-98466976D01*
X193397477Y-98490786D01*
X193349858Y-98514595D01*
X193159382Y-98514595D01*
X193730810Y-98752690D02*
X193683191Y-98728881D01*
X193659382Y-98705071D01*
X193635572Y-98657452D01*
X193635572Y-98514595D01*
X193659382Y-98466976D01*
X193683191Y-98443167D01*
X193730810Y-98419357D01*
X193802239Y-98419357D01*
X193849858Y-98443167D01*
X193873667Y-98466976D01*
X193897477Y-98514595D01*
X193897477Y-98657452D01*
X193873667Y-98705071D01*
X193849858Y-98728881D01*
X193802239Y-98752690D01*
X193730810Y-98752690D01*
X194111763Y-98419357D02*
X194111763Y-98752690D01*
X194111763Y-98466976D02*
X194135572Y-98443167D01*
X194183191Y-98419357D01*
X194254620Y-98419357D01*
X194302239Y-98443167D01*
X194326048Y-98490786D01*
X194326048Y-98752690D01*
X194564144Y-98752690D02*
X194564144Y-98419357D01*
X194564144Y-98252690D02*
X194540334Y-98276500D01*
X194564144Y-98300310D01*
X194587953Y-98276500D01*
X194564144Y-98252690D01*
X194564144Y-98300310D01*
X194802239Y-98419357D02*
X194802239Y-98752690D01*
X194802239Y-98466976D02*
X194826048Y-98443167D01*
X194873667Y-98419357D01*
X194945096Y-98419357D01*
X194992715Y-98443167D01*
X195016524Y-98490786D01*
X195016524Y-98752690D01*
X195635572Y-98562214D02*
X196016524Y-98562214D01*
X196921286Y-98705071D02*
X196897476Y-98728881D01*
X196826048Y-98752690D01*
X196778429Y-98752690D01*
X196707000Y-98728881D01*
X196659381Y-98681262D01*
X196635572Y-98633643D01*
X196611762Y-98538405D01*
X196611762Y-98466976D01*
X196635572Y-98371738D01*
X196659381Y-98324119D01*
X196707000Y-98276500D01*
X196778429Y-98252690D01*
X196826048Y-98252690D01*
X196897476Y-98276500D01*
X196921286Y-98300310D01*
X197421286Y-98705071D02*
X197397476Y-98728881D01*
X197326048Y-98752690D01*
X197278429Y-98752690D01*
X197207000Y-98728881D01*
X197159381Y-98681262D01*
X197135572Y-98633643D01*
X197111762Y-98538405D01*
X197111762Y-98466976D01*
X197135572Y-98371738D01*
X197159381Y-98324119D01*
X197207000Y-98276500D01*
X197278429Y-98252690D01*
X197326048Y-98252690D01*
X197397476Y-98276500D01*
X197421286Y-98300310D01*
X198183190Y-98490786D02*
X198254619Y-98514595D01*
X198278428Y-98538405D01*
X198302238Y-98586024D01*
X198302238Y-98657452D01*
X198278428Y-98705071D01*
X198254619Y-98728881D01*
X198207000Y-98752690D01*
X198016524Y-98752690D01*
X198016524Y-98252690D01*
X198183190Y-98252690D01*
X198230809Y-98276500D01*
X198254619Y-98300310D01*
X198278428Y-98347929D01*
X198278428Y-98395548D01*
X198254619Y-98443167D01*
X198230809Y-98466976D01*
X198183190Y-98490786D01*
X198016524Y-98490786D01*
X198611762Y-98514595D02*
X198611762Y-98752690D01*
X198445095Y-98252690D02*
X198611762Y-98514595D01*
X198778428Y-98252690D01*
D11*
X201037000Y-111221500D02*
X200537000Y-111221500D01*
X200537000Y-112171500D02*
X201037000Y-112171500D01*
X196626500Y-110676500D02*
X196626500Y-110176500D01*
X195676500Y-110176500D02*
X195676500Y-110676500D01*
X195674000Y-110676500D02*
X195674000Y-110176500D01*
X194724000Y-110176500D02*
X194724000Y-110676500D01*
X192853500Y-105885000D02*
X193353500Y-105885000D01*
X193353500Y-104935000D02*
X192853500Y-104935000D01*
X201037000Y-108364000D02*
X200537000Y-108364000D01*
X200537000Y-109314000D02*
X201037000Y-109314000D01*
X201037000Y-112174000D02*
X200537000Y-112174000D01*
X200537000Y-113124000D02*
X201037000Y-113124000D01*
X194885500Y-100678000D02*
X195385500Y-100678000D01*
X195385500Y-99728000D02*
X194885500Y-99728000D01*
X193163000Y-105964500D02*
X192663000Y-105964500D01*
X192663000Y-107014500D02*
X193163000Y-107014500D01*
X204347000Y-98759500D02*
X204847000Y-98759500D01*
X204847000Y-97709500D02*
X204347000Y-97709500D01*
X204847000Y-98662000D02*
X204347000Y-98662000D01*
X204347000Y-99712000D02*
X204847000Y-99712000D01*
X200910000Y-109330000D02*
X200410000Y-109330000D01*
X200410000Y-110380000D02*
X200910000Y-110380000D01*
X204453000Y-100905500D02*
X204453000Y-101405500D01*
X205503000Y-101405500D02*
X205503000Y-100905500D01*
X193912000Y-112018000D02*
X193912000Y-112518000D01*
X194962000Y-112518000D02*
X194962000Y-112018000D01*
X195626500Y-112018000D02*
X195626500Y-112518000D01*
X196676500Y-112518000D02*
X196676500Y-112018000D01*
X203945000Y-112018000D02*
X203945000Y-112518000D01*
X204995000Y-112518000D02*
X204995000Y-112018000D01*
X195449000Y-108377500D02*
X194949000Y-108377500D01*
X194949000Y-109427500D02*
X195449000Y-109427500D01*
X193544000Y-98979500D02*
X193044000Y-98979500D01*
X193044000Y-100029500D02*
X193544000Y-100029500D01*
X203196000Y-97011000D02*
X202696000Y-97011000D01*
X202696000Y-98061000D02*
X203196000Y-98061000D01*
X202696000Y-99077000D02*
X203196000Y-99077000D01*
X203196000Y-98027000D02*
X202696000Y-98027000D01*
X201999000Y-100896000D02*
X201999000Y-101421000D01*
X194749000Y-108146000D02*
X194749000Y-107621000D01*
X201999000Y-108146000D02*
X201999000Y-107621000D01*
X194749000Y-100896000D02*
X195274000Y-100896000D01*
X194749000Y-108146000D02*
X195274000Y-108146000D01*
X201999000Y-108146000D02*
X201474000Y-108146000D01*
X201999000Y-100896000D02*
X201474000Y-100896000D01*
D12*
X193817000Y-104824000D02*
X193817000Y-104924000D01*
X193817000Y-104924000D02*
X192517000Y-104924000D01*
X192517000Y-104924000D02*
X192517000Y-104824000D01*
X192517000Y-101424000D02*
X192517000Y-101274000D01*
X192517000Y-101274000D02*
X193817000Y-101274000D01*
X193817000Y-101274000D02*
X193817000Y-101424000D01*
D13*
X193817000Y-102324000D02*
X193817000Y-102724000D01*
X193817000Y-103524000D02*
X193817000Y-103924000D01*
X192517000Y-102324000D02*
X192517000Y-102724000D01*
X192517000Y-103524000D02*
X192517000Y-103924000D01*
X192167000Y-101724000D02*
G75*
G03X192167000Y-101724000I-200000J0D01*
G01*
D11*
X199687000Y-98086000D02*
X201587000Y-98086000D01*
X199687000Y-96986000D02*
X201587000Y-96986000D01*
X199063000Y-97536000D02*
X199513000Y-97536000D01*
X199013000Y-97286000D02*
X199013000Y-97786000D01*
X199013000Y-97536000D02*
X199263000Y-97286000D01*
X199263000Y-97286000D02*
X199263000Y-97786000D01*
X199263000Y-97786000D02*
X199013000Y-97536000D01*
X199687000Y-99229000D02*
X201587000Y-99229000D01*
X199687000Y-98129000D02*
X201587000Y-98129000D01*
X199063000Y-98679000D02*
X199513000Y-98679000D01*
X199013000Y-98429000D02*
X199013000Y-98929000D01*
X199013000Y-98679000D02*
X199263000Y-98429000D01*
X199263000Y-98429000D02*
X199263000Y-98929000D01*
X199263000Y-98929000D02*
X199013000Y-98679000D01*
D14*
X199694800Y-111340900D02*
X199694800Y-110782100D01*
X198577200Y-110274100D02*
X197916800Y-110274100D01*
X196799200Y-110782100D02*
X196799200Y-111340900D01*
X197027803Y-110883704D02*
G75*
G02X197027800Y-111239300I-227573J-177796D01*
G01*
X197027803Y-110883704D02*
G75*
G02X197027800Y-111239300I-227573J-177796D01*
G01*
D15*
G36*
X204970950Y-108413702D02*
X204976541Y-108414061D01*
X204985405Y-108414705D01*
X204997231Y-108415608D01*
X205011710Y-108416747D01*
X205028530Y-108418096D01*
X205047383Y-108419631D01*
X205067958Y-108421327D01*
X205089944Y-108423161D01*
X205108763Y-108424745D01*
X205131772Y-108426685D01*
X205153697Y-108428526D01*
X205174218Y-108430241D01*
X205193016Y-108431803D01*
X205209771Y-108433186D01*
X205224165Y-108434364D01*
X205235877Y-108435311D01*
X205244587Y-108436000D01*
X205249978Y-108436405D01*
X205251680Y-108436507D01*
X205252113Y-108436565D01*
X205252510Y-108436841D01*
X205252875Y-108437491D01*
X205253208Y-108438672D01*
X205253511Y-108440537D01*
X205253784Y-108443243D01*
X205254030Y-108446946D01*
X205254251Y-108451800D01*
X205254446Y-108457962D01*
X205254618Y-108465586D01*
X205254768Y-108474830D01*
X205254897Y-108485847D01*
X205255007Y-108498794D01*
X205255099Y-108513825D01*
X205255175Y-108531098D01*
X205255235Y-108550766D01*
X205255282Y-108572987D01*
X205255317Y-108597914D01*
X205255341Y-108625704D01*
X205255355Y-108656513D01*
X205255361Y-108690495D01*
X205255360Y-108727806D01*
X205255354Y-108768603D01*
X205255343Y-108813040D01*
X205255334Y-108847304D01*
X205255223Y-109258100D01*
X205249607Y-109242469D01*
X205247859Y-109237501D01*
X205244991Y-109229212D01*
X205241071Y-109217806D01*
X205236168Y-109203484D01*
X205230348Y-109186448D01*
X205223682Y-109166900D01*
X205216238Y-109145042D01*
X205208083Y-109121075D01*
X205199286Y-109095202D01*
X205189916Y-109067624D01*
X205180041Y-109038544D01*
X205169729Y-109008162D01*
X205159049Y-108976682D01*
X205148069Y-108944306D01*
X205136857Y-108911234D01*
X205125482Y-108877669D01*
X205114012Y-108843812D01*
X205102515Y-108809867D01*
X205091061Y-108776034D01*
X205079716Y-108742515D01*
X205068550Y-108709513D01*
X205057632Y-108677229D01*
X205047028Y-108645865D01*
X205036808Y-108615624D01*
X205027041Y-108586706D01*
X205017794Y-108559314D01*
X205009135Y-108533650D01*
X205001134Y-108509916D01*
X204993858Y-108488313D01*
X204987377Y-108469044D01*
X204981757Y-108452310D01*
X204977069Y-108438314D01*
X204973379Y-108427257D01*
X204970757Y-108419341D01*
X204969270Y-108414768D01*
X204968943Y-108413652D01*
X204970950Y-108413702D01*
X204970950Y-108413702D01*
G37*
X204970950Y-108413702D02*
X204976541Y-108414061D01*
X204985405Y-108414705D01*
X204997231Y-108415608D01*
X205011710Y-108416747D01*
X205028530Y-108418096D01*
X205047383Y-108419631D01*
X205067958Y-108421327D01*
X205089944Y-108423161D01*
X205108763Y-108424745D01*
X205131772Y-108426685D01*
X205153697Y-108428526D01*
X205174218Y-108430241D01*
X205193016Y-108431803D01*
X205209771Y-108433186D01*
X205224165Y-108434364D01*
X205235877Y-108435311D01*
X205244587Y-108436000D01*
X205249978Y-108436405D01*
X205251680Y-108436507D01*
X205252113Y-108436565D01*
X205252510Y-108436841D01*
X205252875Y-108437491D01*
X205253208Y-108438672D01*
X205253511Y-108440537D01*
X205253784Y-108443243D01*
X205254030Y-108446946D01*
X205254251Y-108451800D01*
X205254446Y-108457962D01*
X205254618Y-108465586D01*
X205254768Y-108474830D01*
X205254897Y-108485847D01*
X205255007Y-108498794D01*
X205255099Y-108513825D01*
X205255175Y-108531098D01*
X205255235Y-108550766D01*
X205255282Y-108572987D01*
X205255317Y-108597914D01*
X205255341Y-108625704D01*
X205255355Y-108656513D01*
X205255361Y-108690495D01*
X205255360Y-108727806D01*
X205255354Y-108768603D01*
X205255343Y-108813040D01*
X205255334Y-108847304D01*
X205255223Y-109258100D01*
X205249607Y-109242469D01*
X205247859Y-109237501D01*
X205244991Y-109229212D01*
X205241071Y-109217806D01*
X205236168Y-109203484D01*
X205230348Y-109186448D01*
X205223682Y-109166900D01*
X205216238Y-109145042D01*
X205208083Y-109121075D01*
X205199286Y-109095202D01*
X205189916Y-109067624D01*
X205180041Y-109038544D01*
X205169729Y-109008162D01*
X205159049Y-108976682D01*
X205148069Y-108944306D01*
X205136857Y-108911234D01*
X205125482Y-108877669D01*
X205114012Y-108843812D01*
X205102515Y-108809867D01*
X205091061Y-108776034D01*
X205079716Y-108742515D01*
X205068550Y-108709513D01*
X205057632Y-108677229D01*
X205047028Y-108645865D01*
X205036808Y-108615624D01*
X205027041Y-108586706D01*
X205017794Y-108559314D01*
X205009135Y-108533650D01*
X205001134Y-108509916D01*
X204993858Y-108488313D01*
X204987377Y-108469044D01*
X204981757Y-108452310D01*
X204977069Y-108438314D01*
X204973379Y-108427257D01*
X204970757Y-108419341D01*
X204969270Y-108414768D01*
X204968943Y-108413652D01*
X204970950Y-108413702D01*
G36*
X203613167Y-108203490D02*
X203613491Y-108197824D01*
X203614112Y-108188848D01*
X203615006Y-108176850D01*
X203616146Y-108162123D01*
X203617509Y-108144957D01*
X203619069Y-108125642D01*
X203620803Y-108104469D01*
X203622684Y-108081729D01*
X203624689Y-108057711D01*
X203626793Y-108032708D01*
X203628970Y-108007009D01*
X203631197Y-107980905D01*
X203633448Y-107954686D01*
X203635698Y-107928644D01*
X203637923Y-107903069D01*
X203640099Y-107878251D01*
X203642199Y-107854481D01*
X203644200Y-107832050D01*
X203646077Y-107811248D01*
X203647805Y-107792366D01*
X203649359Y-107775694D01*
X203650715Y-107761524D01*
X203651847Y-107750145D01*
X203652507Y-107743869D01*
X203659024Y-107701085D01*
X203669027Y-107659921D01*
X203682422Y-107620510D01*
X203699118Y-107582984D01*
X203719022Y-107547476D01*
X203742042Y-107514118D01*
X203768086Y-107483042D01*
X203797062Y-107454382D01*
X203828878Y-107428271D01*
X203863440Y-107404839D01*
X203900658Y-107384221D01*
X203903758Y-107382692D01*
X203934483Y-107368928D01*
X203964872Y-107357989D01*
X203996042Y-107349545D01*
X204029114Y-107343266D01*
X204044944Y-107341056D01*
X204057672Y-107339879D01*
X204072949Y-107339142D01*
X204089861Y-107338830D01*
X204107496Y-107338926D01*
X204124943Y-107339415D01*
X204141289Y-107340281D01*
X204155621Y-107341509D01*
X204167027Y-107343081D01*
X204167609Y-107343188D01*
X204209906Y-107352981D01*
X204250428Y-107366167D01*
X204289055Y-107382683D01*
X204325665Y-107402468D01*
X204360140Y-107425459D01*
X204392357Y-107451594D01*
X204410990Y-107469194D01*
X204419783Y-107478120D01*
X204425991Y-107484812D01*
X204429904Y-107489684D01*
X204431811Y-107493151D01*
X204432000Y-107495627D01*
X204430760Y-107497528D01*
X204430736Y-107497550D01*
X204428810Y-107499146D01*
X204424067Y-107502991D01*
X204416741Y-107508895D01*
X204407071Y-107516668D01*
X204395291Y-107526121D01*
X204381637Y-107537065D01*
X204366347Y-107549311D01*
X204349657Y-107562668D01*
X204331802Y-107576948D01*
X204313018Y-107591962D01*
X204306543Y-107597135D01*
X204185093Y-107694158D01*
X204172098Y-107684322D01*
X204155959Y-107673381D01*
X204140245Y-107665607D01*
X204123821Y-107660587D01*
X204105552Y-107657906D01*
X204098489Y-107657443D01*
X204075295Y-107658053D01*
X204053607Y-107662240D01*
X204033284Y-107670056D01*
X204014186Y-107681555D01*
X203996172Y-107696792D01*
X203996007Y-107696954D01*
X203986092Y-107707654D01*
X203977681Y-107719040D01*
X203970638Y-107731534D01*
X203964829Y-107745559D01*
X203960121Y-107761537D01*
X203956377Y-107779890D01*
X203953464Y-107801039D01*
X203951248Y-107825408D01*
X203950263Y-107840584D01*
X203949460Y-107853692D01*
X203948559Y-107866962D01*
X203947641Y-107879297D01*
X203946786Y-107889603D01*
X203946261Y-107895089D01*
X203945536Y-107903150D01*
X203945178Y-107909660D01*
X203945225Y-107913706D01*
X203945438Y-107914550D01*
X203947406Y-107914766D01*
X203953094Y-107915303D01*
X203962328Y-107916145D01*
X203974936Y-107917277D01*
X203990742Y-107918685D01*
X204009574Y-107920354D01*
X204031258Y-107922267D01*
X204055621Y-107924411D01*
X204082490Y-107926770D01*
X204111690Y-107929330D01*
X204143048Y-107932074D01*
X204176391Y-107934989D01*
X204211545Y-107938058D01*
X204248337Y-107941268D01*
X204286593Y-107944602D01*
X204326140Y-107948046D01*
X204366804Y-107951585D01*
X204408412Y-107955204D01*
X204450791Y-107958888D01*
X204493765Y-107962621D01*
X204537164Y-107966389D01*
X204580811Y-107970177D01*
X204624535Y-107973969D01*
X204668162Y-107977750D01*
X204711518Y-107981506D01*
X204754430Y-107985222D01*
X204796724Y-107988881D01*
X204838227Y-107992470D01*
X204878765Y-107995973D01*
X204918164Y-107999376D01*
X204956252Y-108002662D01*
X204992855Y-108005818D01*
X205027798Y-108008827D01*
X205060910Y-108011676D01*
X205092016Y-108014348D01*
X205120942Y-108016830D01*
X205147516Y-108019105D01*
X205171563Y-108021159D01*
X205192910Y-108022976D01*
X205211385Y-108024543D01*
X205226812Y-108025843D01*
X205239019Y-108026861D01*
X205247833Y-108027583D01*
X205253079Y-108027994D01*
X205253981Y-108028057D01*
X205254207Y-108029978D01*
X205254422Y-108035516D01*
X205254624Y-108044382D01*
X205254810Y-108056286D01*
X205254978Y-108070938D01*
X205255124Y-108088047D01*
X205255246Y-108107324D01*
X205255341Y-108128479D01*
X205255408Y-108151221D01*
X205255442Y-108175262D01*
X205255446Y-108187392D01*
X205255435Y-108217135D01*
X205255399Y-108243181D01*
X205255335Y-108265741D01*
X205255241Y-108285024D01*
X205255112Y-108301241D01*
X205254945Y-108314603D01*
X205254738Y-108325319D01*
X205254487Y-108333601D01*
X205254189Y-108339659D01*
X205253840Y-108343703D01*
X205253438Y-108345944D01*
X205253004Y-108346594D01*
X205250642Y-108346422D01*
X205244559Y-108345929D01*
X205234909Y-108345128D01*
X205221847Y-108344032D01*
X205205527Y-108342654D01*
X205186106Y-108341009D01*
X205163738Y-108339109D01*
X205138578Y-108336967D01*
X205110780Y-108334597D01*
X205080501Y-108332013D01*
X205047894Y-108329227D01*
X205013116Y-108326253D01*
X204976320Y-108323104D01*
X204937662Y-108319794D01*
X204897297Y-108316336D01*
X204855379Y-108312743D01*
X204812065Y-108309028D01*
X204767508Y-108305206D01*
X204721864Y-108301288D01*
X204675288Y-108297289D01*
X204627934Y-108293222D01*
X204579958Y-108289100D01*
X204531515Y-108284937D01*
X204482760Y-108280746D01*
X204433847Y-108276540D01*
X204384931Y-108272332D01*
X204336169Y-108268136D01*
X204287714Y-108263965D01*
X204239721Y-108259833D01*
X204192346Y-108255753D01*
X204145744Y-108251738D01*
X204100069Y-108247801D01*
X204055477Y-108243956D01*
X204012122Y-108240217D01*
X203970159Y-108236596D01*
X203929744Y-108233106D01*
X203891032Y-108229762D01*
X203854176Y-108226576D01*
X203819334Y-108223563D01*
X203786658Y-108220734D01*
X203756305Y-108218104D01*
X203728429Y-108215685D01*
X203703186Y-108213492D01*
X203680730Y-108211537D01*
X203661216Y-108209834D01*
X203644799Y-108208396D01*
X203631635Y-108207236D01*
X203621878Y-108206368D01*
X203615683Y-108205806D01*
X203613205Y-108205562D01*
X203613164Y-108205554D01*
X203613167Y-108203490D01*
X203613167Y-108203490D01*
G37*
X203613167Y-108203490D02*
X203613491Y-108197824D01*
X203614112Y-108188848D01*
X203615006Y-108176850D01*
X203616146Y-108162123D01*
X203617509Y-108144957D01*
X203619069Y-108125642D01*
X203620803Y-108104469D01*
X203622684Y-108081729D01*
X203624689Y-108057711D01*
X203626793Y-108032708D01*
X203628970Y-108007009D01*
X203631197Y-107980905D01*
X203633448Y-107954686D01*
X203635698Y-107928644D01*
X203637923Y-107903069D01*
X203640099Y-107878251D01*
X203642199Y-107854481D01*
X203644200Y-107832050D01*
X203646077Y-107811248D01*
X203647805Y-107792366D01*
X203649359Y-107775694D01*
X203650715Y-107761524D01*
X203651847Y-107750145D01*
X203652507Y-107743869D01*
X203659024Y-107701085D01*
X203669027Y-107659921D01*
X203682422Y-107620510D01*
X203699118Y-107582984D01*
X203719022Y-107547476D01*
X203742042Y-107514118D01*
X203768086Y-107483042D01*
X203797062Y-107454382D01*
X203828878Y-107428271D01*
X203863440Y-107404839D01*
X203900658Y-107384221D01*
X203903758Y-107382692D01*
X203934483Y-107368928D01*
X203964872Y-107357989D01*
X203996042Y-107349545D01*
X204029114Y-107343266D01*
X204044944Y-107341056D01*
X204057672Y-107339879D01*
X204072949Y-107339142D01*
X204089861Y-107338830D01*
X204107496Y-107338926D01*
X204124943Y-107339415D01*
X204141289Y-107340281D01*
X204155621Y-107341509D01*
X204167027Y-107343081D01*
X204167609Y-107343188D01*
X204209906Y-107352981D01*
X204250428Y-107366167D01*
X204289055Y-107382683D01*
X204325665Y-107402468D01*
X204360140Y-107425459D01*
X204392357Y-107451594D01*
X204410990Y-107469194D01*
X204419783Y-107478120D01*
X204425991Y-107484812D01*
X204429904Y-107489684D01*
X204431811Y-107493151D01*
X204432000Y-107495627D01*
X204430760Y-107497528D01*
X204430736Y-107497550D01*
X204428810Y-107499146D01*
X204424067Y-107502991D01*
X204416741Y-107508895D01*
X204407071Y-107516668D01*
X204395291Y-107526121D01*
X204381637Y-107537065D01*
X204366347Y-107549311D01*
X204349657Y-107562668D01*
X204331802Y-107576948D01*
X204313018Y-107591962D01*
X204306543Y-107597135D01*
X204185093Y-107694158D01*
X204172098Y-107684322D01*
X204155959Y-107673381D01*
X204140245Y-107665607D01*
X204123821Y-107660587D01*
X204105552Y-107657906D01*
X204098489Y-107657443D01*
X204075295Y-107658053D01*
X204053607Y-107662240D01*
X204033284Y-107670056D01*
X204014186Y-107681555D01*
X203996172Y-107696792D01*
X203996007Y-107696954D01*
X203986092Y-107707654D01*
X203977681Y-107719040D01*
X203970638Y-107731534D01*
X203964829Y-107745559D01*
X203960121Y-107761537D01*
X203956377Y-107779890D01*
X203953464Y-107801039D01*
X203951248Y-107825408D01*
X203950263Y-107840584D01*
X203949460Y-107853692D01*
X203948559Y-107866962D01*
X203947641Y-107879297D01*
X203946786Y-107889603D01*
X203946261Y-107895089D01*
X203945536Y-107903150D01*
X203945178Y-107909660D01*
X203945225Y-107913706D01*
X203945438Y-107914550D01*
X203947406Y-107914766D01*
X203953094Y-107915303D01*
X203962328Y-107916145D01*
X203974936Y-107917277D01*
X203990742Y-107918685D01*
X204009574Y-107920354D01*
X204031258Y-107922267D01*
X204055621Y-107924411D01*
X204082490Y-107926770D01*
X204111690Y-107929330D01*
X204143048Y-107932074D01*
X204176391Y-107934989D01*
X204211545Y-107938058D01*
X204248337Y-107941268D01*
X204286593Y-107944602D01*
X204326140Y-107948046D01*
X204366804Y-107951585D01*
X204408412Y-107955204D01*
X204450791Y-107958888D01*
X204493765Y-107962621D01*
X204537164Y-107966389D01*
X204580811Y-107970177D01*
X204624535Y-107973969D01*
X204668162Y-107977750D01*
X204711518Y-107981506D01*
X204754430Y-107985222D01*
X204796724Y-107988881D01*
X204838227Y-107992470D01*
X204878765Y-107995973D01*
X204918164Y-107999376D01*
X204956252Y-108002662D01*
X204992855Y-108005818D01*
X205027798Y-108008827D01*
X205060910Y-108011676D01*
X205092016Y-108014348D01*
X205120942Y-108016830D01*
X205147516Y-108019105D01*
X205171563Y-108021159D01*
X205192910Y-108022976D01*
X205211385Y-108024543D01*
X205226812Y-108025843D01*
X205239019Y-108026861D01*
X205247833Y-108027583D01*
X205253079Y-108027994D01*
X205253981Y-108028057D01*
X205254207Y-108029978D01*
X205254422Y-108035516D01*
X205254624Y-108044382D01*
X205254810Y-108056286D01*
X205254978Y-108070938D01*
X205255124Y-108088047D01*
X205255246Y-108107324D01*
X205255341Y-108128479D01*
X205255408Y-108151221D01*
X205255442Y-108175262D01*
X205255446Y-108187392D01*
X205255435Y-108217135D01*
X205255399Y-108243181D01*
X205255335Y-108265741D01*
X205255241Y-108285024D01*
X205255112Y-108301241D01*
X205254945Y-108314603D01*
X205254738Y-108325319D01*
X205254487Y-108333601D01*
X205254189Y-108339659D01*
X205253840Y-108343703D01*
X205253438Y-108345944D01*
X205253004Y-108346594D01*
X205250642Y-108346422D01*
X205244559Y-108345929D01*
X205234909Y-108345128D01*
X205221847Y-108344032D01*
X205205527Y-108342654D01*
X205186106Y-108341009D01*
X205163738Y-108339109D01*
X205138578Y-108336967D01*
X205110780Y-108334597D01*
X205080501Y-108332013D01*
X205047894Y-108329227D01*
X205013116Y-108326253D01*
X204976320Y-108323104D01*
X204937662Y-108319794D01*
X204897297Y-108316336D01*
X204855379Y-108312743D01*
X204812065Y-108309028D01*
X204767508Y-108305206D01*
X204721864Y-108301288D01*
X204675288Y-108297289D01*
X204627934Y-108293222D01*
X204579958Y-108289100D01*
X204531515Y-108284937D01*
X204482760Y-108280746D01*
X204433847Y-108276540D01*
X204384931Y-108272332D01*
X204336169Y-108268136D01*
X204287714Y-108263965D01*
X204239721Y-108259833D01*
X204192346Y-108255753D01*
X204145744Y-108251738D01*
X204100069Y-108247801D01*
X204055477Y-108243956D01*
X204012122Y-108240217D01*
X203970159Y-108236596D01*
X203929744Y-108233106D01*
X203891032Y-108229762D01*
X203854176Y-108226576D01*
X203819334Y-108223563D01*
X203786658Y-108220734D01*
X203756305Y-108218104D01*
X203728429Y-108215685D01*
X203703186Y-108213492D01*
X203680730Y-108211537D01*
X203661216Y-108209834D01*
X203644799Y-108208396D01*
X203631635Y-108207236D01*
X203621878Y-108206368D01*
X203615683Y-108205806D01*
X203613205Y-108205562D01*
X203613164Y-108205554D01*
X203613167Y-108203490D01*
G36*
X204799170Y-107894821D02*
X204801721Y-107889539D01*
X204805882Y-107881056D01*
X204811578Y-107869519D01*
X204818738Y-107855074D01*
X204827289Y-107837866D01*
X204837157Y-107818041D01*
X204848270Y-107795745D01*
X204860555Y-107771123D01*
X204873940Y-107744322D01*
X204888351Y-107715486D01*
X204903716Y-107684763D01*
X204919962Y-107652297D01*
X204937016Y-107618235D01*
X204954805Y-107582722D01*
X204973257Y-107545905D01*
X204992299Y-107507928D01*
X205011857Y-107468937D01*
X205026846Y-107439069D01*
X205255338Y-106983823D01*
X205255392Y-107461012D01*
X205255446Y-107938202D01*
X205247142Y-107937192D01*
X205244196Y-107936903D01*
X205237704Y-107936316D01*
X205227969Y-107935456D01*
X205215291Y-107934349D01*
X205199970Y-107933019D01*
X205189137Y-107932084D01*
X205189137Y-107879317D01*
X205190044Y-107879284D01*
X205190231Y-107877202D01*
X205190440Y-107871475D01*
X205190669Y-107862351D01*
X205190915Y-107850080D01*
X205191177Y-107834914D01*
X205191452Y-107817101D01*
X205191738Y-107796891D01*
X205192032Y-107774535D01*
X205192332Y-107750282D01*
X205192636Y-107724383D01*
X205192942Y-107697087D01*
X205193248Y-107668645D01*
X205193550Y-107639305D01*
X205193847Y-107609319D01*
X205194137Y-107578936D01*
X205194417Y-107548406D01*
X205194684Y-107517979D01*
X205194938Y-107487906D01*
X205195175Y-107458435D01*
X205195393Y-107429817D01*
X205195590Y-107402302D01*
X205195763Y-107376140D01*
X205195911Y-107351581D01*
X205196031Y-107328874D01*
X205196120Y-107308270D01*
X205196177Y-107290019D01*
X205196199Y-107274370D01*
X205196183Y-107261574D01*
X205196129Y-107251881D01*
X205196032Y-107245540D01*
X205195892Y-107242802D01*
X205195855Y-107242707D01*
X205194892Y-107244426D01*
X205192273Y-107249464D01*
X205188086Y-107257645D01*
X205182420Y-107268791D01*
X205175364Y-107282727D01*
X205167007Y-107299276D01*
X205157438Y-107318260D01*
X205146746Y-107339504D01*
X205135020Y-107362830D01*
X205122348Y-107388061D01*
X205108820Y-107415022D01*
X205094524Y-107443535D01*
X205079550Y-107473423D01*
X205063986Y-107504510D01*
X205047922Y-107536620D01*
X205041579Y-107549303D01*
X204888279Y-107855898D01*
X204895528Y-107856963D01*
X204899574Y-107857423D01*
X204906944Y-107858119D01*
X204917270Y-107859024D01*
X204930185Y-107860109D01*
X204945321Y-107861347D01*
X204962311Y-107862710D01*
X204980788Y-107864170D01*
X205000384Y-107865699D01*
X205020732Y-107867270D01*
X205041465Y-107868854D01*
X205062215Y-107870424D01*
X205082615Y-107871951D01*
X205102298Y-107873409D01*
X205120896Y-107874769D01*
X205138042Y-107876004D01*
X205153369Y-107877084D01*
X205166509Y-107877984D01*
X205177096Y-107878674D01*
X205184760Y-107879128D01*
X205189137Y-107879317D01*
X205189137Y-107932084D01*
X205182309Y-107931494D01*
X205162606Y-107929797D01*
X205141165Y-107927956D01*
X205118284Y-107925996D01*
X205094266Y-107923941D01*
X205069411Y-107921819D01*
X205044020Y-107919654D01*
X205018393Y-107917472D01*
X204992833Y-107915298D01*
X204967639Y-107913159D01*
X204943112Y-107911080D01*
X204919554Y-107909086D01*
X204897265Y-107907203D01*
X204876546Y-107905457D01*
X204857699Y-107903874D01*
X204841023Y-107902478D01*
X204826820Y-107901295D01*
X204815390Y-107900352D01*
X204807035Y-107899673D01*
X204802056Y-107899285D01*
X204800729Y-107899200D01*
X204798471Y-107897696D01*
X204798300Y-107896757D01*
X204799170Y-107894821D01*
X204799170Y-107894821D01*
G37*
X204799170Y-107894821D02*
X204801721Y-107889539D01*
X204805882Y-107881056D01*
X204811578Y-107869519D01*
X204818738Y-107855074D01*
X204827289Y-107837866D01*
X204837157Y-107818041D01*
X204848270Y-107795745D01*
X204860555Y-107771123D01*
X204873940Y-107744322D01*
X204888351Y-107715486D01*
X204903716Y-107684763D01*
X204919962Y-107652297D01*
X204937016Y-107618235D01*
X204954805Y-107582722D01*
X204973257Y-107545905D01*
X204992299Y-107507928D01*
X205011857Y-107468937D01*
X205026846Y-107439069D01*
X205255338Y-106983823D01*
X205255392Y-107461012D01*
X205255446Y-107938202D01*
X205247142Y-107937192D01*
X205244196Y-107936903D01*
X205237704Y-107936316D01*
X205227969Y-107935456D01*
X205215291Y-107934349D01*
X205199970Y-107933019D01*
X205189137Y-107932084D01*
X205189137Y-107879317D01*
X205190044Y-107879284D01*
X205190231Y-107877202D01*
X205190440Y-107871475D01*
X205190669Y-107862351D01*
X205190915Y-107850080D01*
X205191177Y-107834914D01*
X205191452Y-107817101D01*
X205191738Y-107796891D01*
X205192032Y-107774535D01*
X205192332Y-107750282D01*
X205192636Y-107724383D01*
X205192942Y-107697087D01*
X205193248Y-107668645D01*
X205193550Y-107639305D01*
X205193847Y-107609319D01*
X205194137Y-107578936D01*
X205194417Y-107548406D01*
X205194684Y-107517979D01*
X205194938Y-107487906D01*
X205195175Y-107458435D01*
X205195393Y-107429817D01*
X205195590Y-107402302D01*
X205195763Y-107376140D01*
X205195911Y-107351581D01*
X205196031Y-107328874D01*
X205196120Y-107308270D01*
X205196177Y-107290019D01*
X205196199Y-107274370D01*
X205196183Y-107261574D01*
X205196129Y-107251881D01*
X205196032Y-107245540D01*
X205195892Y-107242802D01*
X205195855Y-107242707D01*
X205194892Y-107244426D01*
X205192273Y-107249464D01*
X205188086Y-107257645D01*
X205182420Y-107268791D01*
X205175364Y-107282727D01*
X205167007Y-107299276D01*
X205157438Y-107318260D01*
X205146746Y-107339504D01*
X205135020Y-107362830D01*
X205122348Y-107388061D01*
X205108820Y-107415022D01*
X205094524Y-107443535D01*
X205079550Y-107473423D01*
X205063986Y-107504510D01*
X205047922Y-107536620D01*
X205041579Y-107549303D01*
X204888279Y-107855898D01*
X204895528Y-107856963D01*
X204899574Y-107857423D01*
X204906944Y-107858119D01*
X204917270Y-107859024D01*
X204930185Y-107860109D01*
X204945321Y-107861347D01*
X204962311Y-107862710D01*
X204980788Y-107864170D01*
X205000384Y-107865699D01*
X205020732Y-107867270D01*
X205041465Y-107868854D01*
X205062215Y-107870424D01*
X205082615Y-107871951D01*
X205102298Y-107873409D01*
X205120896Y-107874769D01*
X205138042Y-107876004D01*
X205153369Y-107877084D01*
X205166509Y-107877984D01*
X205177096Y-107878674D01*
X205184760Y-107879128D01*
X205189137Y-107879317D01*
X205189137Y-107932084D01*
X205182309Y-107931494D01*
X205162606Y-107929797D01*
X205141165Y-107927956D01*
X205118284Y-107925996D01*
X205094266Y-107923941D01*
X205069411Y-107921819D01*
X205044020Y-107919654D01*
X205018393Y-107917472D01*
X204992833Y-107915298D01*
X204967639Y-107913159D01*
X204943112Y-107911080D01*
X204919554Y-107909086D01*
X204897265Y-107907203D01*
X204876546Y-107905457D01*
X204857699Y-107903874D01*
X204841023Y-107902478D01*
X204826820Y-107901295D01*
X204815390Y-107900352D01*
X204807035Y-107899673D01*
X204802056Y-107899285D01*
X204800729Y-107899200D01*
X204798471Y-107897696D01*
X204798300Y-107896757D01*
X204799170Y-107894821D01*
G36*
X204419847Y-106629687D02*
X204421316Y-106606157D01*
X204423546Y-106584348D01*
X204426505Y-106565277D01*
X204426803Y-106563746D01*
X204435129Y-106528320D01*
X204445663Y-106494547D01*
X204458231Y-106462805D01*
X204472657Y-106433472D01*
X204488767Y-106406929D01*
X204506385Y-106383554D01*
X204513760Y-106375235D01*
X204538112Y-106351435D01*
X204563800Y-106331001D01*
X204591016Y-106313857D01*
X204619949Y-106299926D01*
X204650793Y-106289131D01*
X204683736Y-106281396D01*
X204718972Y-106276645D01*
X204756691Y-106274799D01*
X204764054Y-106274770D01*
X204786692Y-106275158D01*
X204806789Y-106276286D01*
X204825665Y-106278310D01*
X204844642Y-106281383D01*
X204865041Y-106285659D01*
X204872492Y-106287403D01*
X204908763Y-106297585D01*
X204942252Y-106310204D01*
X204973418Y-106325514D01*
X205002719Y-106343768D01*
X205030614Y-106365218D01*
X205056282Y-106388840D01*
X205079239Y-106413668D01*
X205099426Y-106439799D01*
X205116979Y-106467539D01*
X205132037Y-106497195D01*
X205144737Y-106529072D01*
X205155215Y-106563479D01*
X205163609Y-106600720D01*
X205170055Y-106641103D01*
X205170412Y-106643854D01*
X205171819Y-106657478D01*
X205172952Y-106673608D01*
X205173783Y-106691225D01*
X205174287Y-106709309D01*
X205174438Y-106726840D01*
X205174210Y-106742796D01*
X205173577Y-106756160D01*
X205173338Y-106759130D01*
X205168091Y-106801103D01*
X205159943Y-106841033D01*
X205148697Y-106879704D01*
X205134155Y-106917894D01*
X205131568Y-106923876D01*
X205116098Y-106954472D01*
X205097706Y-106982476D01*
X205076405Y-107007872D01*
X205052211Y-107030645D01*
X205025139Y-107050779D01*
X204995202Y-107068261D01*
X204990208Y-107070780D01*
X204959258Y-107083977D01*
X204926291Y-107094083D01*
X204891698Y-107101083D01*
X204855874Y-107104964D01*
X204828531Y-107105520D01*
X204828531Y-106837079D01*
X204845601Y-106836901D01*
X204859585Y-106836306D01*
X204871295Y-106835142D01*
X204881542Y-106833259D01*
X204891139Y-106830506D01*
X204900898Y-106826731D01*
X204911631Y-106821783D01*
X204912183Y-106821515D01*
X204931587Y-106810008D01*
X204948320Y-106795830D01*
X204962160Y-106779252D01*
X204972882Y-106760544D01*
X204980264Y-106739977D01*
X204980614Y-106738615D01*
X204983663Y-106725037D01*
X204985240Y-106713583D01*
X204985410Y-106702784D01*
X204984239Y-106691171D01*
X204983047Y-106683907D01*
X204977025Y-106660146D01*
X204967831Y-106638578D01*
X204955343Y-106619010D01*
X204939443Y-106601244D01*
X204924370Y-106588341D01*
X204905429Y-106575874D01*
X204883606Y-106565083D01*
X204859627Y-106556142D01*
X204834217Y-106549224D01*
X204808102Y-106544504D01*
X204782008Y-106542155D01*
X204756661Y-106542353D01*
X204739909Y-106544076D01*
X204717316Y-106548284D01*
X204697890Y-106553911D01*
X204681074Y-106561199D01*
X204666308Y-106570387D01*
X204653453Y-106581308D01*
X204639958Y-106596329D01*
X204629723Y-106612174D01*
X204622529Y-106629398D01*
X204618152Y-106648552D01*
X204616372Y-106670191D01*
X204616312Y-106674138D01*
X204618004Y-106697911D01*
X204623312Y-106720413D01*
X204632102Y-106741473D01*
X204644240Y-106760921D01*
X204659594Y-106778586D01*
X204678029Y-106794298D01*
X204699412Y-106807885D01*
X204723609Y-106819177D01*
X204732424Y-106822454D01*
X204747902Y-106827528D01*
X204762051Y-106831342D01*
X204775884Y-106834050D01*
X204790416Y-106835806D01*
X204806659Y-106836764D01*
X204825628Y-106837078D01*
X204828531Y-106837079D01*
X204828531Y-107105520D01*
X204819209Y-107105710D01*
X204782096Y-107103308D01*
X204744929Y-107097742D01*
X204708099Y-107088997D01*
X204685900Y-107082074D01*
X204651452Y-107068405D01*
X204619144Y-107051617D01*
X204588864Y-107031624D01*
X204560500Y-107008338D01*
X204533940Y-106981673D01*
X204509072Y-106951540D01*
X204497121Y-106934977D01*
X204477800Y-106903859D01*
X204461184Y-106870334D01*
X204447228Y-106834275D01*
X204435889Y-106795557D01*
X204427122Y-106754053D01*
X204422167Y-106720688D01*
X204420297Y-106700439D01*
X204419307Y-106677845D01*
X204419167Y-106653922D01*
X204419847Y-106629687D01*
X204419847Y-106629687D01*
G37*
X204419847Y-106629687D02*
X204421316Y-106606157D01*
X204423546Y-106584348D01*
X204426505Y-106565277D01*
X204426803Y-106563746D01*
X204435129Y-106528320D01*
X204445663Y-106494547D01*
X204458231Y-106462805D01*
X204472657Y-106433472D01*
X204488767Y-106406929D01*
X204506385Y-106383554D01*
X204513760Y-106375235D01*
X204538112Y-106351435D01*
X204563800Y-106331001D01*
X204591016Y-106313857D01*
X204619949Y-106299926D01*
X204650793Y-106289131D01*
X204683736Y-106281396D01*
X204718972Y-106276645D01*
X204756691Y-106274799D01*
X204764054Y-106274770D01*
X204786692Y-106275158D01*
X204806789Y-106276286D01*
X204825665Y-106278310D01*
X204844642Y-106281383D01*
X204865041Y-106285659D01*
X204872492Y-106287403D01*
X204908763Y-106297585D01*
X204942252Y-106310204D01*
X204973418Y-106325514D01*
X205002719Y-106343768D01*
X205030614Y-106365218D01*
X205056282Y-106388840D01*
X205079239Y-106413668D01*
X205099426Y-106439799D01*
X205116979Y-106467539D01*
X205132037Y-106497195D01*
X205144737Y-106529072D01*
X205155215Y-106563479D01*
X205163609Y-106600720D01*
X205170055Y-106641103D01*
X205170412Y-106643854D01*
X205171819Y-106657478D01*
X205172952Y-106673608D01*
X205173783Y-106691225D01*
X205174287Y-106709309D01*
X205174438Y-106726840D01*
X205174210Y-106742796D01*
X205173577Y-106756160D01*
X205173338Y-106759130D01*
X205168091Y-106801103D01*
X205159943Y-106841033D01*
X205148697Y-106879704D01*
X205134155Y-106917894D01*
X205131568Y-106923876D01*
X205116098Y-106954472D01*
X205097706Y-106982476D01*
X205076405Y-107007872D01*
X205052211Y-107030645D01*
X205025139Y-107050779D01*
X204995202Y-107068261D01*
X204990208Y-107070780D01*
X204959258Y-107083977D01*
X204926291Y-107094083D01*
X204891698Y-107101083D01*
X204855874Y-107104964D01*
X204828531Y-107105520D01*
X204828531Y-106837079D01*
X204845601Y-106836901D01*
X204859585Y-106836306D01*
X204871295Y-106835142D01*
X204881542Y-106833259D01*
X204891139Y-106830506D01*
X204900898Y-106826731D01*
X204911631Y-106821783D01*
X204912183Y-106821515D01*
X204931587Y-106810008D01*
X204948320Y-106795830D01*
X204962160Y-106779252D01*
X204972882Y-106760544D01*
X204980264Y-106739977D01*
X204980614Y-106738615D01*
X204983663Y-106725037D01*
X204985240Y-106713583D01*
X204985410Y-106702784D01*
X204984239Y-106691171D01*
X204983047Y-106683907D01*
X204977025Y-106660146D01*
X204967831Y-106638578D01*
X204955343Y-106619010D01*
X204939443Y-106601244D01*
X204924370Y-106588341D01*
X204905429Y-106575874D01*
X204883606Y-106565083D01*
X204859627Y-106556142D01*
X204834217Y-106549224D01*
X204808102Y-106544504D01*
X204782008Y-106542155D01*
X204756661Y-106542353D01*
X204739909Y-106544076D01*
X204717316Y-106548284D01*
X204697890Y-106553911D01*
X204681074Y-106561199D01*
X204666308Y-106570387D01*
X204653453Y-106581308D01*
X204639958Y-106596329D01*
X204629723Y-106612174D01*
X204622529Y-106629398D01*
X204618152Y-106648552D01*
X204616372Y-106670191D01*
X204616312Y-106674138D01*
X204618004Y-106697911D01*
X204623312Y-106720413D01*
X204632102Y-106741473D01*
X204644240Y-106760921D01*
X204659594Y-106778586D01*
X204678029Y-106794298D01*
X204699412Y-106807885D01*
X204723609Y-106819177D01*
X204732424Y-106822454D01*
X204747902Y-106827528D01*
X204762051Y-106831342D01*
X204775884Y-106834050D01*
X204790416Y-106835806D01*
X204806659Y-106836764D01*
X204825628Y-106837078D01*
X204828531Y-106837079D01*
X204828531Y-107105520D01*
X204819209Y-107105710D01*
X204782096Y-107103308D01*
X204744929Y-107097742D01*
X204708099Y-107088997D01*
X204685900Y-107082074D01*
X204651452Y-107068405D01*
X204619144Y-107051617D01*
X204588864Y-107031624D01*
X204560500Y-107008338D01*
X204533940Y-106981673D01*
X204509072Y-106951540D01*
X204497121Y-106934977D01*
X204477800Y-106903859D01*
X204461184Y-106870334D01*
X204447228Y-106834275D01*
X204435889Y-106795557D01*
X204427122Y-106754053D01*
X204422167Y-106720688D01*
X204420297Y-106700439D01*
X204419307Y-106677845D01*
X204419167Y-106653922D01*
X204419847Y-106629687D01*
G36*
X204420311Y-104328971D02*
X204420477Y-104315968D01*
X204420791Y-104305416D01*
X204421300Y-104296588D01*
X204422047Y-104288756D01*
X204423078Y-104281193D01*
X204424439Y-104273169D01*
X204424854Y-104270907D01*
X204431794Y-104240129D01*
X204440601Y-104212676D01*
X204451350Y-104188400D01*
X204464117Y-104167153D01*
X204478977Y-104148787D01*
X204494784Y-104134128D01*
X204512747Y-104121211D01*
X204530960Y-104111458D01*
X204550439Y-104104431D01*
X204572197Y-104099695D01*
X204576484Y-104099045D01*
X204587702Y-104097933D01*
X204602021Y-104097277D01*
X204618662Y-104097063D01*
X204636847Y-104097280D01*
X204655797Y-104097915D01*
X204674733Y-104098956D01*
X204692876Y-104100391D01*
X204698685Y-104100962D01*
X204722658Y-104103418D01*
X204748555Y-104106013D01*
X204775997Y-104108713D01*
X204804607Y-104111482D01*
X204834008Y-104114286D01*
X204863823Y-104117092D01*
X204893673Y-104119865D01*
X204923183Y-104122570D01*
X204951975Y-104125175D01*
X204979671Y-104127643D01*
X205005894Y-104129941D01*
X205030266Y-104132035D01*
X205052411Y-104133891D01*
X205071952Y-104135473D01*
X205088510Y-104136749D01*
X205101708Y-104137683D01*
X205105977Y-104137954D01*
X205121520Y-104138907D01*
X205133594Y-104139703D01*
X205142632Y-104140423D01*
X205149065Y-104141147D01*
X205153324Y-104141954D01*
X205155841Y-104142925D01*
X205157050Y-104144139D01*
X205157380Y-104145676D01*
X205157279Y-104147446D01*
X205157190Y-104150264D01*
X205157091Y-104156651D01*
X205156985Y-104166268D01*
X205156873Y-104178775D01*
X205156759Y-104193833D01*
X205156645Y-104211105D01*
X205156533Y-104230250D01*
X205156426Y-104250930D01*
X205156327Y-104272806D01*
X205156289Y-104282142D01*
X205155772Y-104411584D01*
X205150939Y-104411584D01*
X205147870Y-104411353D01*
X205141426Y-104410697D01*
X205132110Y-104409674D01*
X205120424Y-104408340D01*
X205106873Y-104406752D01*
X205091958Y-104404968D01*
X205083057Y-104403887D01*
X205061573Y-104401328D01*
X205038220Y-104398662D01*
X205013466Y-104395932D01*
X204987778Y-104393187D01*
X204961622Y-104390470D01*
X204935466Y-104387827D01*
X204909777Y-104385306D01*
X204885022Y-104382950D01*
X204861668Y-104380805D01*
X204840183Y-104378918D01*
X204821033Y-104377333D01*
X204804685Y-104376098D01*
X204791607Y-104375256D01*
X204788296Y-104375082D01*
X204763366Y-104374814D01*
X204740161Y-104376448D01*
X204719102Y-104379906D01*
X204700615Y-104385111D01*
X204685122Y-104391983D01*
X204679998Y-104395089D01*
X204665078Y-104407190D01*
X204653186Y-104421457D01*
X204644369Y-104437529D01*
X204638675Y-104455046D01*
X204636151Y-104473646D01*
X204636845Y-104492969D01*
X204640803Y-104512653D01*
X204648072Y-104532339D01*
X204658701Y-104551665D01*
X204659355Y-104552666D01*
X204674291Y-104571852D01*
X204692524Y-104589178D01*
X204713848Y-104604511D01*
X204738054Y-104617719D01*
X204764935Y-104628669D01*
X204789709Y-104636095D01*
X204808890Y-104640518D01*
X204831734Y-104644953D01*
X204857995Y-104649371D01*
X204887431Y-104653741D01*
X204919795Y-104658031D01*
X204954843Y-104662212D01*
X204992331Y-104666252D01*
X205032014Y-104670120D01*
X205073647Y-104673787D01*
X205116986Y-104677221D01*
X205117700Y-104677275D01*
X205128335Y-104678109D01*
X205137865Y-104678925D01*
X205145474Y-104679651D01*
X205150351Y-104680209D01*
X205151404Y-104680379D01*
X205155800Y-104681290D01*
X205155800Y-104818022D01*
X205155791Y-104844817D01*
X205155761Y-104867961D01*
X205155705Y-104887708D01*
X205155617Y-104904314D01*
X205155493Y-104918033D01*
X205155326Y-104929123D01*
X205155112Y-104937837D01*
X205154846Y-104944432D01*
X205154522Y-104949163D01*
X205154136Y-104952286D01*
X205153681Y-104954055D01*
X205153153Y-104954727D01*
X205153005Y-104954754D01*
X205150258Y-104954454D01*
X205144318Y-104953620D01*
X205135848Y-104952351D01*
X205125511Y-104950747D01*
X205114416Y-104948979D01*
X205048951Y-104938914D01*
X204980698Y-104929401D01*
X204909426Y-104920411D01*
X204834903Y-104911917D01*
X204756897Y-104903889D01*
X204696646Y-104898219D01*
X204680784Y-104896809D01*
X204663027Y-104895279D01*
X204643779Y-104893658D01*
X204623442Y-104891979D01*
X204602422Y-104890273D01*
X204581121Y-104888571D01*
X204559943Y-104886904D01*
X204539291Y-104885303D01*
X204519570Y-104883799D01*
X204501181Y-104882425D01*
X204484531Y-104881210D01*
X204470020Y-104880186D01*
X204458054Y-104879384D01*
X204449036Y-104878836D01*
X204443370Y-104878573D01*
X204442266Y-104878553D01*
X204437761Y-104878553D01*
X204437457Y-104610877D01*
X204441659Y-104610877D01*
X204445208Y-104611130D01*
X204451733Y-104611824D01*
X204460499Y-104612862D01*
X204470769Y-104614147D01*
X204481805Y-104615579D01*
X204492872Y-104617062D01*
X204503232Y-104618499D01*
X204512150Y-104619790D01*
X204518888Y-104620840D01*
X204522710Y-104621549D01*
X204523186Y-104621684D01*
X204526595Y-104621332D01*
X204530651Y-104619019D01*
X204535284Y-104615267D01*
X204514655Y-104594999D01*
X204492073Y-104570874D01*
X204473085Y-104546226D01*
X204457374Y-104520484D01*
X204444628Y-104493075D01*
X204434530Y-104463429D01*
X204428200Y-104437961D01*
X204425733Y-104426030D01*
X204423825Y-104415632D01*
X204422407Y-104405963D01*
X204421411Y-104396216D01*
X204420766Y-104385586D01*
X204420406Y-104373267D01*
X204420259Y-104358455D01*
X204420248Y-104345154D01*
X204420311Y-104328971D01*
X204420311Y-104328971D01*
G37*
X204420311Y-104328971D02*
X204420477Y-104315968D01*
X204420791Y-104305416D01*
X204421300Y-104296588D01*
X204422047Y-104288756D01*
X204423078Y-104281193D01*
X204424439Y-104273169D01*
X204424854Y-104270907D01*
X204431794Y-104240129D01*
X204440601Y-104212676D01*
X204451350Y-104188400D01*
X204464117Y-104167153D01*
X204478977Y-104148787D01*
X204494784Y-104134128D01*
X204512747Y-104121211D01*
X204530960Y-104111458D01*
X204550439Y-104104431D01*
X204572197Y-104099695D01*
X204576484Y-104099045D01*
X204587702Y-104097933D01*
X204602021Y-104097277D01*
X204618662Y-104097063D01*
X204636847Y-104097280D01*
X204655797Y-104097915D01*
X204674733Y-104098956D01*
X204692876Y-104100391D01*
X204698685Y-104100962D01*
X204722658Y-104103418D01*
X204748555Y-104106013D01*
X204775997Y-104108713D01*
X204804607Y-104111482D01*
X204834008Y-104114286D01*
X204863823Y-104117092D01*
X204893673Y-104119865D01*
X204923183Y-104122570D01*
X204951975Y-104125175D01*
X204979671Y-104127643D01*
X205005894Y-104129941D01*
X205030266Y-104132035D01*
X205052411Y-104133891D01*
X205071952Y-104135473D01*
X205088510Y-104136749D01*
X205101708Y-104137683D01*
X205105977Y-104137954D01*
X205121520Y-104138907D01*
X205133594Y-104139703D01*
X205142632Y-104140423D01*
X205149065Y-104141147D01*
X205153324Y-104141954D01*
X205155841Y-104142925D01*
X205157050Y-104144139D01*
X205157380Y-104145676D01*
X205157279Y-104147446D01*
X205157190Y-104150264D01*
X205157091Y-104156651D01*
X205156985Y-104166268D01*
X205156873Y-104178775D01*
X205156759Y-104193833D01*
X205156645Y-104211105D01*
X205156533Y-104230250D01*
X205156426Y-104250930D01*
X205156327Y-104272806D01*
X205156289Y-104282142D01*
X205155772Y-104411584D01*
X205150939Y-104411584D01*
X205147870Y-104411353D01*
X205141426Y-104410697D01*
X205132110Y-104409674D01*
X205120424Y-104408340D01*
X205106873Y-104406752D01*
X205091958Y-104404968D01*
X205083057Y-104403887D01*
X205061573Y-104401328D01*
X205038220Y-104398662D01*
X205013466Y-104395932D01*
X204987778Y-104393187D01*
X204961622Y-104390470D01*
X204935466Y-104387827D01*
X204909777Y-104385306D01*
X204885022Y-104382950D01*
X204861668Y-104380805D01*
X204840183Y-104378918D01*
X204821033Y-104377333D01*
X204804685Y-104376098D01*
X204791607Y-104375256D01*
X204788296Y-104375082D01*
X204763366Y-104374814D01*
X204740161Y-104376448D01*
X204719102Y-104379906D01*
X204700615Y-104385111D01*
X204685122Y-104391983D01*
X204679998Y-104395089D01*
X204665078Y-104407190D01*
X204653186Y-104421457D01*
X204644369Y-104437529D01*
X204638675Y-104455046D01*
X204636151Y-104473646D01*
X204636845Y-104492969D01*
X204640803Y-104512653D01*
X204648072Y-104532339D01*
X204658701Y-104551665D01*
X204659355Y-104552666D01*
X204674291Y-104571852D01*
X204692524Y-104589178D01*
X204713848Y-104604511D01*
X204738054Y-104617719D01*
X204764935Y-104628669D01*
X204789709Y-104636095D01*
X204808890Y-104640518D01*
X204831734Y-104644953D01*
X204857995Y-104649371D01*
X204887431Y-104653741D01*
X204919795Y-104658031D01*
X204954843Y-104662212D01*
X204992331Y-104666252D01*
X205032014Y-104670120D01*
X205073647Y-104673787D01*
X205116986Y-104677221D01*
X205117700Y-104677275D01*
X205128335Y-104678109D01*
X205137865Y-104678925D01*
X205145474Y-104679651D01*
X205150351Y-104680209D01*
X205151404Y-104680379D01*
X205155800Y-104681290D01*
X205155800Y-104818022D01*
X205155791Y-104844817D01*
X205155761Y-104867961D01*
X205155705Y-104887708D01*
X205155617Y-104904314D01*
X205155493Y-104918033D01*
X205155326Y-104929123D01*
X205155112Y-104937837D01*
X205154846Y-104944432D01*
X205154522Y-104949163D01*
X205154136Y-104952286D01*
X205153681Y-104954055D01*
X205153153Y-104954727D01*
X205153005Y-104954754D01*
X205150258Y-104954454D01*
X205144318Y-104953620D01*
X205135848Y-104952351D01*
X205125511Y-104950747D01*
X205114416Y-104948979D01*
X205048951Y-104938914D01*
X204980698Y-104929401D01*
X204909426Y-104920411D01*
X204834903Y-104911917D01*
X204756897Y-104903889D01*
X204696646Y-104898219D01*
X204680784Y-104896809D01*
X204663027Y-104895279D01*
X204643779Y-104893658D01*
X204623442Y-104891979D01*
X204602422Y-104890273D01*
X204581121Y-104888571D01*
X204559943Y-104886904D01*
X204539291Y-104885303D01*
X204519570Y-104883799D01*
X204501181Y-104882425D01*
X204484531Y-104881210D01*
X204470020Y-104880186D01*
X204458054Y-104879384D01*
X204449036Y-104878836D01*
X204443370Y-104878573D01*
X204442266Y-104878553D01*
X204437761Y-104878553D01*
X204437457Y-104610877D01*
X204441659Y-104610877D01*
X204445208Y-104611130D01*
X204451733Y-104611824D01*
X204460499Y-104612862D01*
X204470769Y-104614147D01*
X204481805Y-104615579D01*
X204492872Y-104617062D01*
X204503232Y-104618499D01*
X204512150Y-104619790D01*
X204518888Y-104620840D01*
X204522710Y-104621549D01*
X204523186Y-104621684D01*
X204526595Y-104621332D01*
X204530651Y-104619019D01*
X204535284Y-104615267D01*
X204514655Y-104594999D01*
X204492073Y-104570874D01*
X204473085Y-104546226D01*
X204457374Y-104520484D01*
X204444628Y-104493075D01*
X204434530Y-104463429D01*
X204428200Y-104437961D01*
X204425733Y-104426030D01*
X204423825Y-104415632D01*
X204422407Y-104405963D01*
X204421411Y-104396216D01*
X204420766Y-104385586D01*
X204420406Y-104373267D01*
X204420259Y-104358455D01*
X204420248Y-104345154D01*
X204420311Y-104328971D01*
G36*
X204420227Y-105610103D02*
X204421012Y-105593035D01*
X204422245Y-105578225D01*
X204423786Y-105567284D01*
X204430772Y-105535663D01*
X204439465Y-105507458D01*
X204449962Y-105482528D01*
X204462361Y-105460728D01*
X204476757Y-105441915D01*
X204493250Y-105425945D01*
X204511935Y-105412676D01*
X204532911Y-105401963D01*
X204536987Y-105400275D01*
X204545848Y-105396896D01*
X204553821Y-105394339D01*
X204561879Y-105392407D01*
X204570996Y-105390901D01*
X204582142Y-105389626D01*
X204595136Y-105388478D01*
X204605311Y-105387759D01*
X204615201Y-105387333D01*
X204625353Y-105387222D01*
X204636311Y-105387451D01*
X204648622Y-105388044D01*
X204662832Y-105389025D01*
X204679486Y-105390416D01*
X204699130Y-105392243D01*
X204713254Y-105393624D01*
X204727391Y-105395013D01*
X204744505Y-105396673D01*
X204763683Y-105398518D01*
X204784010Y-105400460D01*
X204804572Y-105402411D01*
X204824456Y-105404284D01*
X204834392Y-105405214D01*
X204852267Y-105406889D01*
X204870183Y-105408581D01*
X204887458Y-105410225D01*
X204903411Y-105411754D01*
X204917359Y-105413104D01*
X204928622Y-105414210D01*
X204935015Y-105414851D01*
X204954444Y-105416766D01*
X204976139Y-105418789D01*
X204999278Y-105420852D01*
X205023039Y-105422887D01*
X205046597Y-105424824D01*
X205069131Y-105426596D01*
X205089817Y-105428134D01*
X205107833Y-105429370D01*
X205115258Y-105429834D01*
X205155800Y-105432262D01*
X205155800Y-105567670D01*
X205155792Y-105594256D01*
X205155763Y-105617194D01*
X205155709Y-105636743D01*
X205155624Y-105653163D01*
X205155502Y-105666714D01*
X205155338Y-105677655D01*
X205155127Y-105686245D01*
X205154862Y-105692744D01*
X205154539Y-105697412D01*
X205154152Y-105700507D01*
X205153695Y-105702291D01*
X205153163Y-105703021D01*
X205152934Y-105703077D01*
X205150315Y-105702846D01*
X205144338Y-105702195D01*
X205135524Y-105701184D01*
X205124394Y-105699873D01*
X205111468Y-105698324D01*
X205097266Y-105696597D01*
X205094807Y-105696296D01*
X205076872Y-105694137D01*
X205057458Y-105691884D01*
X205036254Y-105689504D01*
X205012952Y-105686963D01*
X204987241Y-105684229D01*
X204958810Y-105681269D01*
X204927351Y-105678050D01*
X204892553Y-105674538D01*
X204862723Y-105671558D01*
X204842976Y-105669835D01*
X204822761Y-105668518D01*
X204802645Y-105667609D01*
X204783195Y-105667115D01*
X204764976Y-105667038D01*
X204748556Y-105667384D01*
X204734501Y-105668157D01*
X204723377Y-105669361D01*
X204717777Y-105670428D01*
X204697480Y-105677173D01*
X204679806Y-105686619D01*
X204664918Y-105698558D01*
X204652979Y-105712779D01*
X204644151Y-105729070D01*
X204638598Y-105747221D01*
X204636482Y-105767022D01*
X204636635Y-105775369D01*
X204639513Y-105797198D01*
X204645868Y-105817858D01*
X204655838Y-105837683D01*
X204669560Y-105857006D01*
X204671297Y-105859106D01*
X204687973Y-105876104D01*
X204707977Y-105891405D01*
X204731056Y-105904879D01*
X204756956Y-105916394D01*
X204785427Y-105925820D01*
X204813029Y-105932407D01*
X204833291Y-105936266D01*
X204854215Y-105939905D01*
X204876124Y-105943362D01*
X204899343Y-105946676D01*
X204924195Y-105949884D01*
X204951006Y-105953024D01*
X204980098Y-105956135D01*
X205011797Y-105959253D01*
X205046426Y-105962418D01*
X205084309Y-105965667D01*
X205125771Y-105969038D01*
X205126004Y-105969056D01*
X205155800Y-105971423D01*
X205155800Y-106108834D01*
X205155782Y-106137256D01*
X205155727Y-106161946D01*
X205155631Y-106183080D01*
X205155492Y-106200835D01*
X205155307Y-106215386D01*
X205155073Y-106226909D01*
X205154787Y-106235581D01*
X205154447Y-106241577D01*
X205154049Y-106245073D01*
X205153590Y-106246245D01*
X205153575Y-106246246D01*
X205150861Y-106245932D01*
X205145150Y-106245080D01*
X205137293Y-106243822D01*
X205128663Y-106242379D01*
X205089641Y-106236025D01*
X205047109Y-106229653D01*
X205001464Y-106223307D01*
X204953101Y-106217032D01*
X204902419Y-106210870D01*
X204849814Y-106204868D01*
X204795682Y-106199068D01*
X204740420Y-106193514D01*
X204684426Y-106188252D01*
X204628095Y-106183324D01*
X204571826Y-106178775D01*
X204524828Y-106175274D01*
X204438003Y-106169068D01*
X204437851Y-106034819D01*
X204437823Y-106008676D01*
X204437808Y-105986170D01*
X204437813Y-105967031D01*
X204437846Y-105950988D01*
X204437914Y-105937771D01*
X204438026Y-105927110D01*
X204438190Y-105918733D01*
X204438411Y-105912370D01*
X204438700Y-105907751D01*
X204439062Y-105904606D01*
X204439506Y-105902663D01*
X204440039Y-105901653D01*
X204440670Y-105901304D01*
X204441405Y-105901347D01*
X204441638Y-105901394D01*
X204444691Y-105901873D01*
X204450990Y-105902746D01*
X204459902Y-105903928D01*
X204470795Y-105905336D01*
X204483036Y-105906887D01*
X204487275Y-105907418D01*
X204501112Y-105909120D01*
X204511592Y-105910331D01*
X204519232Y-105911073D01*
X204524548Y-105911372D01*
X204528058Y-105911250D01*
X204530279Y-105910731D01*
X204531726Y-105909840D01*
X204532104Y-105909487D01*
X204533179Y-105907993D01*
X204533128Y-105906201D01*
X204531590Y-105903599D01*
X204528199Y-105899676D01*
X204522591Y-105893921D01*
X204517274Y-105888649D01*
X204495296Y-105865490D01*
X204476770Y-105842539D01*
X204461350Y-105819137D01*
X204448691Y-105794630D01*
X204438446Y-105768360D01*
X204430271Y-105739671D01*
X204424653Y-105712679D01*
X204422853Y-105699782D01*
X204421472Y-105684080D01*
X204420513Y-105666417D01*
X204419983Y-105647638D01*
X204419886Y-105628585D01*
X204420227Y-105610103D01*
X204420227Y-105610103D01*
G37*
X204420227Y-105610103D02*
X204421012Y-105593035D01*
X204422245Y-105578225D01*
X204423786Y-105567284D01*
X204430772Y-105535663D01*
X204439465Y-105507458D01*
X204449962Y-105482528D01*
X204462361Y-105460728D01*
X204476757Y-105441915D01*
X204493250Y-105425945D01*
X204511935Y-105412676D01*
X204532911Y-105401963D01*
X204536987Y-105400275D01*
X204545848Y-105396896D01*
X204553821Y-105394339D01*
X204561879Y-105392407D01*
X204570996Y-105390901D01*
X204582142Y-105389626D01*
X204595136Y-105388478D01*
X204605311Y-105387759D01*
X204615201Y-105387333D01*
X204625353Y-105387222D01*
X204636311Y-105387451D01*
X204648622Y-105388044D01*
X204662832Y-105389025D01*
X204679486Y-105390416D01*
X204699130Y-105392243D01*
X204713254Y-105393624D01*
X204727391Y-105395013D01*
X204744505Y-105396673D01*
X204763683Y-105398518D01*
X204784010Y-105400460D01*
X204804572Y-105402411D01*
X204824456Y-105404284D01*
X204834392Y-105405214D01*
X204852267Y-105406889D01*
X204870183Y-105408581D01*
X204887458Y-105410225D01*
X204903411Y-105411754D01*
X204917359Y-105413104D01*
X204928622Y-105414210D01*
X204935015Y-105414851D01*
X204954444Y-105416766D01*
X204976139Y-105418789D01*
X204999278Y-105420852D01*
X205023039Y-105422887D01*
X205046597Y-105424824D01*
X205069131Y-105426596D01*
X205089817Y-105428134D01*
X205107833Y-105429370D01*
X205115258Y-105429834D01*
X205155800Y-105432262D01*
X205155800Y-105567670D01*
X205155792Y-105594256D01*
X205155763Y-105617194D01*
X205155709Y-105636743D01*
X205155624Y-105653163D01*
X205155502Y-105666714D01*
X205155338Y-105677655D01*
X205155127Y-105686245D01*
X205154862Y-105692744D01*
X205154539Y-105697412D01*
X205154152Y-105700507D01*
X205153695Y-105702291D01*
X205153163Y-105703021D01*
X205152934Y-105703077D01*
X205150315Y-105702846D01*
X205144338Y-105702195D01*
X205135524Y-105701184D01*
X205124394Y-105699873D01*
X205111468Y-105698324D01*
X205097266Y-105696597D01*
X205094807Y-105696296D01*
X205076872Y-105694137D01*
X205057458Y-105691884D01*
X205036254Y-105689504D01*
X205012952Y-105686963D01*
X204987241Y-105684229D01*
X204958810Y-105681269D01*
X204927351Y-105678050D01*
X204892553Y-105674538D01*
X204862723Y-105671558D01*
X204842976Y-105669835D01*
X204822761Y-105668518D01*
X204802645Y-105667609D01*
X204783195Y-105667115D01*
X204764976Y-105667038D01*
X204748556Y-105667384D01*
X204734501Y-105668157D01*
X204723377Y-105669361D01*
X204717777Y-105670428D01*
X204697480Y-105677173D01*
X204679806Y-105686619D01*
X204664918Y-105698558D01*
X204652979Y-105712779D01*
X204644151Y-105729070D01*
X204638598Y-105747221D01*
X204636482Y-105767022D01*
X204636635Y-105775369D01*
X204639513Y-105797198D01*
X204645868Y-105817858D01*
X204655838Y-105837683D01*
X204669560Y-105857006D01*
X204671297Y-105859106D01*
X204687973Y-105876104D01*
X204707977Y-105891405D01*
X204731056Y-105904879D01*
X204756956Y-105916394D01*
X204785427Y-105925820D01*
X204813029Y-105932407D01*
X204833291Y-105936266D01*
X204854215Y-105939905D01*
X204876124Y-105943362D01*
X204899343Y-105946676D01*
X204924195Y-105949884D01*
X204951006Y-105953024D01*
X204980098Y-105956135D01*
X205011797Y-105959253D01*
X205046426Y-105962418D01*
X205084309Y-105965667D01*
X205125771Y-105969038D01*
X205126004Y-105969056D01*
X205155800Y-105971423D01*
X205155800Y-106108834D01*
X205155782Y-106137256D01*
X205155727Y-106161946D01*
X205155631Y-106183080D01*
X205155492Y-106200835D01*
X205155307Y-106215386D01*
X205155073Y-106226909D01*
X205154787Y-106235581D01*
X205154447Y-106241577D01*
X205154049Y-106245073D01*
X205153590Y-106246245D01*
X205153575Y-106246246D01*
X205150861Y-106245932D01*
X205145150Y-106245080D01*
X205137293Y-106243822D01*
X205128663Y-106242379D01*
X205089641Y-106236025D01*
X205047109Y-106229653D01*
X205001464Y-106223307D01*
X204953101Y-106217032D01*
X204902419Y-106210870D01*
X204849814Y-106204868D01*
X204795682Y-106199068D01*
X204740420Y-106193514D01*
X204684426Y-106188252D01*
X204628095Y-106183324D01*
X204571826Y-106178775D01*
X204524828Y-106175274D01*
X204438003Y-106169068D01*
X204437851Y-106034819D01*
X204437823Y-106008676D01*
X204437808Y-105986170D01*
X204437813Y-105967031D01*
X204437846Y-105950988D01*
X204437914Y-105937771D01*
X204438026Y-105927110D01*
X204438190Y-105918733D01*
X204438411Y-105912370D01*
X204438700Y-105907751D01*
X204439062Y-105904606D01*
X204439506Y-105902663D01*
X204440039Y-105901653D01*
X204440670Y-105901304D01*
X204441405Y-105901347D01*
X204441638Y-105901394D01*
X204444691Y-105901873D01*
X204450990Y-105902746D01*
X204459902Y-105903928D01*
X204470795Y-105905336D01*
X204483036Y-105906887D01*
X204487275Y-105907418D01*
X204501112Y-105909120D01*
X204511592Y-105910331D01*
X204519232Y-105911073D01*
X204524548Y-105911372D01*
X204528058Y-105911250D01*
X204530279Y-105910731D01*
X204531726Y-105909840D01*
X204532104Y-105909487D01*
X204533179Y-105907993D01*
X204533128Y-105906201D01*
X204531590Y-105903599D01*
X204528199Y-105899676D01*
X204522591Y-105893921D01*
X204517274Y-105888649D01*
X204495296Y-105865490D01*
X204476770Y-105842539D01*
X204461350Y-105819137D01*
X204448691Y-105794630D01*
X204438446Y-105768360D01*
X204430271Y-105739671D01*
X204424653Y-105712679D01*
X204422853Y-105699782D01*
X204421472Y-105684080D01*
X204420513Y-105666417D01*
X204419983Y-105647638D01*
X204419886Y-105628585D01*
X204420227Y-105610103D01*
G36*
X204437657Y-105127669D02*
X204437682Y-105104858D01*
X204437720Y-105083227D01*
X204437770Y-105063087D01*
X204437830Y-105044751D01*
X204437899Y-105028529D01*
X204437976Y-105014733D01*
X204438059Y-105003674D01*
X204438146Y-104995665D01*
X204438236Y-104991016D01*
X204438305Y-104989923D01*
X204440303Y-104990169D01*
X204445699Y-104990864D01*
X204454019Y-104991948D01*
X204464785Y-104993357D01*
X204477524Y-104995029D01*
X204491760Y-104996904D01*
X204497897Y-104997713D01*
X204533704Y-105002337D01*
X204568208Y-105006578D01*
X204601946Y-105010485D01*
X204635459Y-105014109D01*
X204669285Y-105017501D01*
X204703962Y-105020711D01*
X204740030Y-105023790D01*
X204778027Y-105026788D01*
X204818492Y-105029756D01*
X204861964Y-105032745D01*
X204893008Y-105034781D01*
X204906882Y-105035667D01*
X204922865Y-105036673D01*
X204940576Y-105037776D01*
X204959628Y-105038952D01*
X204979640Y-105040179D01*
X205000228Y-105041433D01*
X205021009Y-105042692D01*
X205041599Y-105043933D01*
X205061614Y-105045133D01*
X205080671Y-105046268D01*
X205098387Y-105047315D01*
X205114379Y-105048253D01*
X205128262Y-105049057D01*
X205139654Y-105049704D01*
X205148171Y-105050173D01*
X205153429Y-105050439D01*
X205154942Y-105050492D01*
X205155082Y-105052395D01*
X205155214Y-105057899D01*
X205155338Y-105066699D01*
X205155451Y-105078488D01*
X205155551Y-105092960D01*
X205155637Y-105109809D01*
X205155707Y-105128728D01*
X205155758Y-105149413D01*
X205155790Y-105171555D01*
X205155800Y-105193123D01*
X205155797Y-105220145D01*
X205155784Y-105243522D01*
X205155753Y-105263519D01*
X205155699Y-105280399D01*
X205155615Y-105294426D01*
X205155493Y-105305863D01*
X205155327Y-105314973D01*
X205155111Y-105322021D01*
X205154837Y-105327269D01*
X205154499Y-105330982D01*
X205154090Y-105333422D01*
X205153604Y-105334854D01*
X205153033Y-105335541D01*
X205152371Y-105335746D01*
X205152159Y-105335754D01*
X205148191Y-105335399D01*
X205142107Y-105334495D01*
X205138363Y-105333828D01*
X205124220Y-105331334D01*
X205106612Y-105328540D01*
X205085962Y-105325499D01*
X205062698Y-105322263D01*
X205037244Y-105318885D01*
X205010027Y-105315417D01*
X204981471Y-105311912D01*
X204952003Y-105308422D01*
X204922048Y-105305001D01*
X204892031Y-105301700D01*
X204862379Y-105298572D01*
X204833516Y-105295670D01*
X204814854Y-105293880D01*
X204800553Y-105292574D01*
X204783705Y-105291098D01*
X204764657Y-105289478D01*
X204743754Y-105287740D01*
X204721343Y-105285911D01*
X204697771Y-105284018D01*
X204673383Y-105282086D01*
X204648526Y-105280141D01*
X204623546Y-105278211D01*
X204598789Y-105276322D01*
X204574601Y-105274499D01*
X204551329Y-105272769D01*
X204529319Y-105271159D01*
X204508917Y-105269694D01*
X204490470Y-105268402D01*
X204474324Y-105267308D01*
X204460824Y-105266439D01*
X204450318Y-105265821D01*
X204443151Y-105265480D01*
X204440588Y-105265420D01*
X204440000Y-105265116D01*
X204439493Y-105264030D01*
X204439061Y-105261900D01*
X204438699Y-105258464D01*
X204438401Y-105253460D01*
X204438162Y-105246626D01*
X204437976Y-105237700D01*
X204437837Y-105226419D01*
X204437740Y-105212522D01*
X204437679Y-105195746D01*
X204437649Y-105175830D01*
X204437644Y-105152510D01*
X204437657Y-105127669D01*
X204437657Y-105127669D01*
G37*
X204437657Y-105127669D02*
X204437682Y-105104858D01*
X204437720Y-105083227D01*
X204437770Y-105063087D01*
X204437830Y-105044751D01*
X204437899Y-105028529D01*
X204437976Y-105014733D01*
X204438059Y-105003674D01*
X204438146Y-104995665D01*
X204438236Y-104991016D01*
X204438305Y-104989923D01*
X204440303Y-104990169D01*
X204445699Y-104990864D01*
X204454019Y-104991948D01*
X204464785Y-104993357D01*
X204477524Y-104995029D01*
X204491760Y-104996904D01*
X204497897Y-104997713D01*
X204533704Y-105002337D01*
X204568208Y-105006578D01*
X204601946Y-105010485D01*
X204635459Y-105014109D01*
X204669285Y-105017501D01*
X204703962Y-105020711D01*
X204740030Y-105023790D01*
X204778027Y-105026788D01*
X204818492Y-105029756D01*
X204861964Y-105032745D01*
X204893008Y-105034781D01*
X204906882Y-105035667D01*
X204922865Y-105036673D01*
X204940576Y-105037776D01*
X204959628Y-105038952D01*
X204979640Y-105040179D01*
X205000228Y-105041433D01*
X205021009Y-105042692D01*
X205041599Y-105043933D01*
X205061614Y-105045133D01*
X205080671Y-105046268D01*
X205098387Y-105047315D01*
X205114379Y-105048253D01*
X205128262Y-105049057D01*
X205139654Y-105049704D01*
X205148171Y-105050173D01*
X205153429Y-105050439D01*
X205154942Y-105050492D01*
X205155082Y-105052395D01*
X205155214Y-105057899D01*
X205155338Y-105066699D01*
X205155451Y-105078488D01*
X205155551Y-105092960D01*
X205155637Y-105109809D01*
X205155707Y-105128728D01*
X205155758Y-105149413D01*
X205155790Y-105171555D01*
X205155800Y-105193123D01*
X205155797Y-105220145D01*
X205155784Y-105243522D01*
X205155753Y-105263519D01*
X205155699Y-105280399D01*
X205155615Y-105294426D01*
X205155493Y-105305863D01*
X205155327Y-105314973D01*
X205155111Y-105322021D01*
X205154837Y-105327269D01*
X205154499Y-105330982D01*
X205154090Y-105333422D01*
X205153604Y-105334854D01*
X205153033Y-105335541D01*
X205152371Y-105335746D01*
X205152159Y-105335754D01*
X205148191Y-105335399D01*
X205142107Y-105334495D01*
X205138363Y-105333828D01*
X205124220Y-105331334D01*
X205106612Y-105328540D01*
X205085962Y-105325499D01*
X205062698Y-105322263D01*
X205037244Y-105318885D01*
X205010027Y-105315417D01*
X204981471Y-105311912D01*
X204952003Y-105308422D01*
X204922048Y-105305001D01*
X204892031Y-105301700D01*
X204862379Y-105298572D01*
X204833516Y-105295670D01*
X204814854Y-105293880D01*
X204800553Y-105292574D01*
X204783705Y-105291098D01*
X204764657Y-105289478D01*
X204743754Y-105287740D01*
X204721343Y-105285911D01*
X204697771Y-105284018D01*
X204673383Y-105282086D01*
X204648526Y-105280141D01*
X204623546Y-105278211D01*
X204598789Y-105276322D01*
X204574601Y-105274499D01*
X204551329Y-105272769D01*
X204529319Y-105271159D01*
X204508917Y-105269694D01*
X204490470Y-105268402D01*
X204474324Y-105267308D01*
X204460824Y-105266439D01*
X204450318Y-105265821D01*
X204443151Y-105265480D01*
X204440588Y-105265420D01*
X204440000Y-105265116D01*
X204439493Y-105264030D01*
X204439061Y-105261900D01*
X204438699Y-105258464D01*
X204438401Y-105253460D01*
X204438162Y-105246626D01*
X204437976Y-105237700D01*
X204437837Y-105226419D01*
X204437740Y-105212522D01*
X204437679Y-105195746D01*
X204437649Y-105175830D01*
X204437644Y-105152510D01*
X204437657Y-105127669D01*
G36*
X203553909Y-108570169D02*
X203554565Y-108569793D01*
X203555841Y-108569171D01*
X203557901Y-108568235D01*
X203560910Y-108566917D01*
X203565030Y-108565147D01*
X203570425Y-108562858D01*
X203577259Y-108559980D01*
X203585696Y-108556444D01*
X203595900Y-108552184D01*
X203608034Y-108547129D01*
X203622262Y-108541212D01*
X203638748Y-108534363D01*
X203657655Y-108526515D01*
X203679148Y-108517598D01*
X203703389Y-108507545D01*
X203730543Y-108496286D01*
X203760774Y-108483752D01*
X203794244Y-108469877D01*
X203831119Y-108454590D01*
X203841110Y-108450448D01*
X204110013Y-108338966D01*
X204496496Y-108372139D01*
X204534990Y-108375446D01*
X204572435Y-108378666D01*
X204608648Y-108381785D01*
X204643442Y-108384785D01*
X204676634Y-108387652D01*
X204708036Y-108390368D01*
X204737466Y-108392918D01*
X204764736Y-108395285D01*
X204789663Y-108397454D01*
X204812061Y-108399409D01*
X204831745Y-108401133D01*
X204848530Y-108402610D01*
X204862230Y-108403824D01*
X204872660Y-108404759D01*
X204879636Y-108405399D01*
X204882973Y-108405728D01*
X204883247Y-108405768D01*
X204883963Y-108407754D01*
X204885854Y-108413212D01*
X204888843Y-108421919D01*
X204892855Y-108433649D01*
X204897813Y-108448180D01*
X204903643Y-108465287D01*
X204910267Y-108484747D01*
X204917611Y-108506335D01*
X204925598Y-108529827D01*
X204934151Y-108554999D01*
X204943196Y-108581628D01*
X204952656Y-108609490D01*
X204962456Y-108638359D01*
X204972518Y-108668014D01*
X204982768Y-108698228D01*
X204993130Y-108728779D01*
X205003527Y-108759443D01*
X205013884Y-108789995D01*
X205024124Y-108820212D01*
X205034172Y-108849869D01*
X205043951Y-108878743D01*
X205053387Y-108906610D01*
X205062402Y-108933245D01*
X205070921Y-108958425D01*
X205078868Y-108981925D01*
X205086167Y-109003523D01*
X205092743Y-109022993D01*
X205098518Y-109040111D01*
X205103417Y-109054655D01*
X205107365Y-109066399D01*
X205110285Y-109075120D01*
X205112102Y-109080594D01*
X205112738Y-109082597D01*
X205112739Y-109082600D01*
X205111523Y-109084760D01*
X205108372Y-109089037D01*
X205103909Y-109094596D01*
X205102793Y-109095930D01*
X205076973Y-109124204D01*
X205048759Y-109150691D01*
X205018796Y-109174874D01*
X204987729Y-109196236D01*
X204956201Y-109214262D01*
X204953388Y-109215690D01*
X204919924Y-109231043D01*
X204887086Y-109243020D01*
X204854093Y-109251805D01*
X204820165Y-109257582D01*
X204784520Y-109260536D01*
X204761173Y-109261030D01*
X204717948Y-109259256D01*
X204676328Y-109253922D01*
X204636276Y-109245018D01*
X204597755Y-109232529D01*
X204560726Y-109216443D01*
X204525154Y-109196747D01*
X204490999Y-109173428D01*
X204478452Y-109163668D01*
X204454303Y-109142421D01*
X204430571Y-109118078D01*
X204407895Y-109091445D01*
X204386913Y-109063326D01*
X204368267Y-109034527D01*
X204352594Y-109005853D01*
X204351736Y-109004100D01*
X204344390Y-108987129D01*
X204337225Y-108967077D01*
X204330458Y-108944773D01*
X204324301Y-108921042D01*
X204318970Y-108896711D01*
X204314679Y-108872609D01*
X204311641Y-108849562D01*
X204311609Y-108849253D01*
X204310797Y-108838273D01*
X204310322Y-108824834D01*
X204310167Y-108809822D01*
X204310314Y-108794122D01*
X204310744Y-108778621D01*
X204311440Y-108764206D01*
X204312385Y-108751760D01*
X204313560Y-108742172D01*
X204313794Y-108740819D01*
X204316224Y-108727630D01*
X204323262Y-108727635D01*
X204326067Y-108727801D01*
X204332388Y-108728274D01*
X204341846Y-108729023D01*
X204354065Y-108730016D01*
X204368666Y-108731220D01*
X204385273Y-108732603D01*
X204403507Y-108734133D01*
X204422992Y-108735779D01*
X204443349Y-108737506D01*
X204464201Y-108739284D01*
X204485171Y-108741080D01*
X204505881Y-108742863D01*
X204525953Y-108744599D01*
X204545010Y-108746256D01*
X204562675Y-108747803D01*
X204578570Y-108749207D01*
X204592317Y-108750437D01*
X204603539Y-108751458D01*
X204611858Y-108752241D01*
X204612631Y-108752316D01*
X204619528Y-108753211D01*
X204624959Y-108754321D01*
X204627549Y-108755300D01*
X204628459Y-108757417D01*
X204628271Y-108761879D01*
X204626938Y-108769258D01*
X204626083Y-108773111D01*
X204622982Y-108787009D01*
X204620826Y-108797946D01*
X204619566Y-108806742D01*
X204619151Y-108814215D01*
X204619533Y-108821184D01*
X204620663Y-108828469D01*
X204622286Y-108836009D01*
X204629430Y-108858742D01*
X204639805Y-108879312D01*
X204653307Y-108897588D01*
X204669830Y-108913441D01*
X204689269Y-108926741D01*
X204700590Y-108932650D01*
X204716398Y-108938880D01*
X204732751Y-108942666D01*
X204750729Y-108944204D01*
X204763623Y-108944098D01*
X204785704Y-108941781D01*
X204805560Y-108936443D01*
X204823677Y-108927860D01*
X204840539Y-108915808D01*
X204854966Y-108901893D01*
X204865120Y-108889408D01*
X204874371Y-108875290D01*
X204881893Y-108860913D01*
X204886110Y-108850147D01*
X204889178Y-108836216D01*
X204890461Y-108820055D01*
X204889992Y-108802895D01*
X204887804Y-108785964D01*
X204883980Y-108770646D01*
X204874939Y-108748429D01*
X204863262Y-108728932D01*
X204849072Y-108712283D01*
X204832488Y-108698610D01*
X204813630Y-108688042D01*
X204802176Y-108683546D01*
X204799207Y-108682748D01*
X204794666Y-108681847D01*
X204788462Y-108680833D01*
X204780505Y-108679698D01*
X204770705Y-108678435D01*
X204758972Y-108677035D01*
X204745217Y-108675490D01*
X204729348Y-108673791D01*
X204711277Y-108671930D01*
X204690912Y-108669899D01*
X204668165Y-108667690D01*
X204642945Y-108665294D01*
X204615162Y-108662702D01*
X204584725Y-108659908D01*
X204551546Y-108656902D01*
X204515534Y-108653676D01*
X204476599Y-108650223D01*
X204434651Y-108646533D01*
X204389599Y-108642598D01*
X204341355Y-108638410D01*
X204289827Y-108633961D01*
X204234927Y-108629243D01*
X204176563Y-108624247D01*
X204114646Y-108618965D01*
X204049086Y-108613388D01*
X203979793Y-108607509D01*
X203921946Y-108602611D01*
X203877489Y-108598849D01*
X203836762Y-108595402D01*
X203799603Y-108592255D01*
X203765848Y-108589394D01*
X203735333Y-108586805D01*
X203707897Y-108584474D01*
X203683374Y-108582387D01*
X203661603Y-108580529D01*
X203642420Y-108578886D01*
X203625662Y-108577443D01*
X203611165Y-108576188D01*
X203598766Y-108575105D01*
X203588303Y-108574180D01*
X203579611Y-108573399D01*
X203572527Y-108572748D01*
X203566889Y-108572212D01*
X203562533Y-108571778D01*
X203559296Y-108571431D01*
X203557014Y-108571157D01*
X203555525Y-108570942D01*
X203554664Y-108570771D01*
X203554270Y-108570631D01*
X203554215Y-108570589D01*
X203554026Y-108570509D01*
X203553803Y-108570459D01*
X203553709Y-108570368D01*
X203553909Y-108570169D01*
X203553909Y-108570169D01*
G37*
X203553909Y-108570169D02*
X203554565Y-108569793D01*
X203555841Y-108569171D01*
X203557901Y-108568235D01*
X203560910Y-108566917D01*
X203565030Y-108565147D01*
X203570425Y-108562858D01*
X203577259Y-108559980D01*
X203585696Y-108556444D01*
X203595900Y-108552184D01*
X203608034Y-108547129D01*
X203622262Y-108541212D01*
X203638748Y-108534363D01*
X203657655Y-108526515D01*
X203679148Y-108517598D01*
X203703389Y-108507545D01*
X203730543Y-108496286D01*
X203760774Y-108483752D01*
X203794244Y-108469877D01*
X203831119Y-108454590D01*
X203841110Y-108450448D01*
X204110013Y-108338966D01*
X204496496Y-108372139D01*
X204534990Y-108375446D01*
X204572435Y-108378666D01*
X204608648Y-108381785D01*
X204643442Y-108384785D01*
X204676634Y-108387652D01*
X204708036Y-108390368D01*
X204737466Y-108392918D01*
X204764736Y-108395285D01*
X204789663Y-108397454D01*
X204812061Y-108399409D01*
X204831745Y-108401133D01*
X204848530Y-108402610D01*
X204862230Y-108403824D01*
X204872660Y-108404759D01*
X204879636Y-108405399D01*
X204882973Y-108405728D01*
X204883247Y-108405768D01*
X204883963Y-108407754D01*
X204885854Y-108413212D01*
X204888843Y-108421919D01*
X204892855Y-108433649D01*
X204897813Y-108448180D01*
X204903643Y-108465287D01*
X204910267Y-108484747D01*
X204917611Y-108506335D01*
X204925598Y-108529827D01*
X204934151Y-108554999D01*
X204943196Y-108581628D01*
X204952656Y-108609490D01*
X204962456Y-108638359D01*
X204972518Y-108668014D01*
X204982768Y-108698228D01*
X204993130Y-108728779D01*
X205003527Y-108759443D01*
X205013884Y-108789995D01*
X205024124Y-108820212D01*
X205034172Y-108849869D01*
X205043951Y-108878743D01*
X205053387Y-108906610D01*
X205062402Y-108933245D01*
X205070921Y-108958425D01*
X205078868Y-108981925D01*
X205086167Y-109003523D01*
X205092743Y-109022993D01*
X205098518Y-109040111D01*
X205103417Y-109054655D01*
X205107365Y-109066399D01*
X205110285Y-109075120D01*
X205112102Y-109080594D01*
X205112738Y-109082597D01*
X205112739Y-109082600D01*
X205111523Y-109084760D01*
X205108372Y-109089037D01*
X205103909Y-109094596D01*
X205102793Y-109095930D01*
X205076973Y-109124204D01*
X205048759Y-109150691D01*
X205018796Y-109174874D01*
X204987729Y-109196236D01*
X204956201Y-109214262D01*
X204953388Y-109215690D01*
X204919924Y-109231043D01*
X204887086Y-109243020D01*
X204854093Y-109251805D01*
X204820165Y-109257582D01*
X204784520Y-109260536D01*
X204761173Y-109261030D01*
X204717948Y-109259256D01*
X204676328Y-109253922D01*
X204636276Y-109245018D01*
X204597755Y-109232529D01*
X204560726Y-109216443D01*
X204525154Y-109196747D01*
X204490999Y-109173428D01*
X204478452Y-109163668D01*
X204454303Y-109142421D01*
X204430571Y-109118078D01*
X204407895Y-109091445D01*
X204386913Y-109063326D01*
X204368267Y-109034527D01*
X204352594Y-109005853D01*
X204351736Y-109004100D01*
X204344390Y-108987129D01*
X204337225Y-108967077D01*
X204330458Y-108944773D01*
X204324301Y-108921042D01*
X204318970Y-108896711D01*
X204314679Y-108872609D01*
X204311641Y-108849562D01*
X204311609Y-108849253D01*
X204310797Y-108838273D01*
X204310322Y-108824834D01*
X204310167Y-108809822D01*
X204310314Y-108794122D01*
X204310744Y-108778621D01*
X204311440Y-108764206D01*
X204312385Y-108751760D01*
X204313560Y-108742172D01*
X204313794Y-108740819D01*
X204316224Y-108727630D01*
X204323262Y-108727635D01*
X204326067Y-108727801D01*
X204332388Y-108728274D01*
X204341846Y-108729023D01*
X204354065Y-108730016D01*
X204368666Y-108731220D01*
X204385273Y-108732603D01*
X204403507Y-108734133D01*
X204422992Y-108735779D01*
X204443349Y-108737506D01*
X204464201Y-108739284D01*
X204485171Y-108741080D01*
X204505881Y-108742863D01*
X204525953Y-108744599D01*
X204545010Y-108746256D01*
X204562675Y-108747803D01*
X204578570Y-108749207D01*
X204592317Y-108750437D01*
X204603539Y-108751458D01*
X204611858Y-108752241D01*
X204612631Y-108752316D01*
X204619528Y-108753211D01*
X204624959Y-108754321D01*
X204627549Y-108755300D01*
X204628459Y-108757417D01*
X204628271Y-108761879D01*
X204626938Y-108769258D01*
X204626083Y-108773111D01*
X204622982Y-108787009D01*
X204620826Y-108797946D01*
X204619566Y-108806742D01*
X204619151Y-108814215D01*
X204619533Y-108821184D01*
X204620663Y-108828469D01*
X204622286Y-108836009D01*
X204629430Y-108858742D01*
X204639805Y-108879312D01*
X204653307Y-108897588D01*
X204669830Y-108913441D01*
X204689269Y-108926741D01*
X204700590Y-108932650D01*
X204716398Y-108938880D01*
X204732751Y-108942666D01*
X204750729Y-108944204D01*
X204763623Y-108944098D01*
X204785704Y-108941781D01*
X204805560Y-108936443D01*
X204823677Y-108927860D01*
X204840539Y-108915808D01*
X204854966Y-108901893D01*
X204865120Y-108889408D01*
X204874371Y-108875290D01*
X204881893Y-108860913D01*
X204886110Y-108850147D01*
X204889178Y-108836216D01*
X204890461Y-108820055D01*
X204889992Y-108802895D01*
X204887804Y-108785964D01*
X204883980Y-108770646D01*
X204874939Y-108748429D01*
X204863262Y-108728932D01*
X204849072Y-108712283D01*
X204832488Y-108698610D01*
X204813630Y-108688042D01*
X204802176Y-108683546D01*
X204799207Y-108682748D01*
X204794666Y-108681847D01*
X204788462Y-108680833D01*
X204780505Y-108679698D01*
X204770705Y-108678435D01*
X204758972Y-108677035D01*
X204745217Y-108675490D01*
X204729348Y-108673791D01*
X204711277Y-108671930D01*
X204690912Y-108669899D01*
X204668165Y-108667690D01*
X204642945Y-108665294D01*
X204615162Y-108662702D01*
X204584725Y-108659908D01*
X204551546Y-108656902D01*
X204515534Y-108653676D01*
X204476599Y-108650223D01*
X204434651Y-108646533D01*
X204389599Y-108642598D01*
X204341355Y-108638410D01*
X204289827Y-108633961D01*
X204234927Y-108629243D01*
X204176563Y-108624247D01*
X204114646Y-108618965D01*
X204049086Y-108613388D01*
X203979793Y-108607509D01*
X203921946Y-108602611D01*
X203877489Y-108598849D01*
X203836762Y-108595402D01*
X203799603Y-108592255D01*
X203765848Y-108589394D01*
X203735333Y-108586805D01*
X203707897Y-108584474D01*
X203683374Y-108582387D01*
X203661603Y-108580529D01*
X203642420Y-108578886D01*
X203625662Y-108577443D01*
X203611165Y-108576188D01*
X203598766Y-108575105D01*
X203588303Y-108574180D01*
X203579611Y-108573399D01*
X203572527Y-108572748D01*
X203566889Y-108572212D01*
X203562533Y-108571778D01*
X203559296Y-108571431D01*
X203557014Y-108571157D01*
X203555525Y-108570942D01*
X203554664Y-108570771D01*
X203554270Y-108570631D01*
X203554215Y-108570589D01*
X203554026Y-108570509D01*
X203553803Y-108570459D01*
X203553709Y-108570368D01*
X203553909Y-108570169D01*
G36*
X204219355Y-107835171D02*
X204222066Y-107825951D01*
X204224230Y-107815366D01*
X204225227Y-107807369D01*
X204226448Y-107796735D01*
X204228593Y-107788953D01*
X204232124Y-107782995D01*
X204237501Y-107777834D01*
X204238955Y-107776720D01*
X204241698Y-107774589D01*
X204247216Y-107770223D01*
X204255238Y-107763838D01*
X204265496Y-107755649D01*
X204277720Y-107745871D01*
X204291641Y-107734721D01*
X204306989Y-107722414D01*
X204323495Y-107709165D01*
X204340890Y-107695190D01*
X204350790Y-107687231D01*
X204367869Y-107673508D01*
X204387591Y-107657684D01*
X204409540Y-107640089D01*
X204433302Y-107621056D01*
X204458462Y-107600917D01*
X204484606Y-107580002D01*
X204511318Y-107558644D01*
X204538184Y-107537175D01*
X204564789Y-107515927D01*
X204590719Y-107495230D01*
X204615558Y-107475418D01*
X204616513Y-107474657D01*
X204643096Y-107453459D01*
X204672066Y-107430350D01*
X204702853Y-107405785D01*
X204734888Y-107380218D01*
X204767601Y-107354104D01*
X204800423Y-107327899D01*
X204832784Y-107302056D01*
X204864114Y-107277032D01*
X204893843Y-107253279D01*
X204921403Y-107231254D01*
X204935581Y-107219920D01*
X204957256Y-107202602D01*
X204978065Y-107186001D01*
X204997805Y-107170276D01*
X205016275Y-107155586D01*
X205033272Y-107142092D01*
X205048596Y-107129952D01*
X205062044Y-107119328D01*
X205073414Y-107110378D01*
X205082505Y-107103262D01*
X205089115Y-107098139D01*
X205093042Y-107095171D01*
X205094118Y-107094455D01*
X205093321Y-107096246D01*
X205090853Y-107101375D01*
X205086789Y-107109687D01*
X205081209Y-107121027D01*
X205074190Y-107135239D01*
X205065807Y-107152167D01*
X205056141Y-107171655D01*
X205045266Y-107193548D01*
X205033262Y-107217691D01*
X205020205Y-107243927D01*
X205006173Y-107272101D01*
X204991243Y-107302057D01*
X204975493Y-107333641D01*
X204959000Y-107366695D01*
X204941841Y-107401065D01*
X204924094Y-107436594D01*
X204905836Y-107473128D01*
X204896489Y-107491823D01*
X204877995Y-107528809D01*
X204859961Y-107564868D01*
X204842465Y-107599846D01*
X204825586Y-107633586D01*
X204809401Y-107665933D01*
X204793988Y-107696730D01*
X204779425Y-107725824D01*
X204765791Y-107753056D01*
X204753163Y-107778273D01*
X204741619Y-107801317D01*
X204731237Y-107822034D01*
X204722095Y-107840268D01*
X204714272Y-107855863D01*
X204707845Y-107868663D01*
X204702892Y-107878513D01*
X204699491Y-107885256D01*
X204697720Y-107888738D01*
X204697470Y-107889207D01*
X204695491Y-107889131D01*
X204689906Y-107888745D01*
X204681004Y-107888075D01*
X204669072Y-107887145D01*
X204654397Y-107885978D01*
X204637269Y-107884598D01*
X204617974Y-107883030D01*
X204596801Y-107881298D01*
X204574037Y-107879426D01*
X204549970Y-107877438D01*
X204524889Y-107875358D01*
X204499080Y-107873210D01*
X204472833Y-107871018D01*
X204446434Y-107868807D01*
X204420171Y-107866600D01*
X204394334Y-107864422D01*
X204369208Y-107862296D01*
X204345083Y-107860248D01*
X204322246Y-107858300D01*
X204300984Y-107856477D01*
X204281587Y-107854804D01*
X204264341Y-107853303D01*
X204249534Y-107852000D01*
X204237455Y-107850918D01*
X204228391Y-107850082D01*
X204222630Y-107849516D01*
X204220653Y-107849283D01*
X204214560Y-107848319D01*
X204219355Y-107835171D01*
X204219355Y-107835171D01*
G37*
X204219355Y-107835171D02*
X204222066Y-107825951D01*
X204224230Y-107815366D01*
X204225227Y-107807369D01*
X204226448Y-107796735D01*
X204228593Y-107788953D01*
X204232124Y-107782995D01*
X204237501Y-107777834D01*
X204238955Y-107776720D01*
X204241698Y-107774589D01*
X204247216Y-107770223D01*
X204255238Y-107763838D01*
X204265496Y-107755649D01*
X204277720Y-107745871D01*
X204291641Y-107734721D01*
X204306989Y-107722414D01*
X204323495Y-107709165D01*
X204340890Y-107695190D01*
X204350790Y-107687231D01*
X204367869Y-107673508D01*
X204387591Y-107657684D01*
X204409540Y-107640089D01*
X204433302Y-107621056D01*
X204458462Y-107600917D01*
X204484606Y-107580002D01*
X204511318Y-107558644D01*
X204538184Y-107537175D01*
X204564789Y-107515927D01*
X204590719Y-107495230D01*
X204615558Y-107475418D01*
X204616513Y-107474657D01*
X204643096Y-107453459D01*
X204672066Y-107430350D01*
X204702853Y-107405785D01*
X204734888Y-107380218D01*
X204767601Y-107354104D01*
X204800423Y-107327899D01*
X204832784Y-107302056D01*
X204864114Y-107277032D01*
X204893843Y-107253279D01*
X204921403Y-107231254D01*
X204935581Y-107219920D01*
X204957256Y-107202602D01*
X204978065Y-107186001D01*
X204997805Y-107170276D01*
X205016275Y-107155586D01*
X205033272Y-107142092D01*
X205048596Y-107129952D01*
X205062044Y-107119328D01*
X205073414Y-107110378D01*
X205082505Y-107103262D01*
X205089115Y-107098139D01*
X205093042Y-107095171D01*
X205094118Y-107094455D01*
X205093321Y-107096246D01*
X205090853Y-107101375D01*
X205086789Y-107109687D01*
X205081209Y-107121027D01*
X205074190Y-107135239D01*
X205065807Y-107152167D01*
X205056141Y-107171655D01*
X205045266Y-107193548D01*
X205033262Y-107217691D01*
X205020205Y-107243927D01*
X205006173Y-107272101D01*
X204991243Y-107302057D01*
X204975493Y-107333641D01*
X204959000Y-107366695D01*
X204941841Y-107401065D01*
X204924094Y-107436594D01*
X204905836Y-107473128D01*
X204896489Y-107491823D01*
X204877995Y-107528809D01*
X204859961Y-107564868D01*
X204842465Y-107599846D01*
X204825586Y-107633586D01*
X204809401Y-107665933D01*
X204793988Y-107696730D01*
X204779425Y-107725824D01*
X204765791Y-107753056D01*
X204753163Y-107778273D01*
X204741619Y-107801317D01*
X204731237Y-107822034D01*
X204722095Y-107840268D01*
X204714272Y-107855863D01*
X204707845Y-107868663D01*
X204702892Y-107878513D01*
X204699491Y-107885256D01*
X204697720Y-107888738D01*
X204697470Y-107889207D01*
X204695491Y-107889131D01*
X204689906Y-107888745D01*
X204681004Y-107888075D01*
X204669072Y-107887145D01*
X204654397Y-107885978D01*
X204637269Y-107884598D01*
X204617974Y-107883030D01*
X204596801Y-107881298D01*
X204574037Y-107879426D01*
X204549970Y-107877438D01*
X204524889Y-107875358D01*
X204499080Y-107873210D01*
X204472833Y-107871018D01*
X204446434Y-107868807D01*
X204420171Y-107866600D01*
X204394334Y-107864422D01*
X204369208Y-107862296D01*
X204345083Y-107860248D01*
X204322246Y-107858300D01*
X204300984Y-107856477D01*
X204281587Y-107854804D01*
X204264341Y-107853303D01*
X204249534Y-107852000D01*
X204237455Y-107850918D01*
X204228391Y-107850082D01*
X204222630Y-107849516D01*
X204220653Y-107849283D01*
X204214560Y-107848319D01*
X204219355Y-107835171D01*
G36*
X204171974Y-105107916D02*
X204172016Y-105078345D01*
X204172114Y-105052381D01*
X204172266Y-105030063D01*
X204172471Y-105011434D01*
X204172729Y-104996532D01*
X204173040Y-104985401D01*
X204173402Y-104978079D01*
X204173815Y-104974607D01*
X204173992Y-104974306D01*
X204176495Y-104974533D01*
X204182198Y-104975154D01*
X204190420Y-104976091D01*
X204200481Y-104977268D01*
X204208971Y-104978279D01*
X204217242Y-104979223D01*
X204227907Y-104980369D01*
X204240347Y-104981657D01*
X204253940Y-104983026D01*
X204268068Y-104984418D01*
X204282111Y-104985773D01*
X204295447Y-104987030D01*
X204307459Y-104988131D01*
X204317525Y-104989015D01*
X204325026Y-104989623D01*
X204329342Y-104989895D01*
X204329640Y-104989903D01*
X204329860Y-104991807D01*
X204330069Y-104997299D01*
X204330263Y-105006059D01*
X204330439Y-105017769D01*
X204330594Y-105032107D01*
X204330726Y-105048755D01*
X204330829Y-105067393D01*
X204330903Y-105087701D01*
X204330942Y-105109359D01*
X204330949Y-105120830D01*
X204330963Y-105251738D01*
X204324770Y-105251725D01*
X204321072Y-105251561D01*
X204314127Y-105251108D01*
X204304583Y-105250414D01*
X204293085Y-105249528D01*
X204280281Y-105248496D01*
X204273638Y-105247945D01*
X204258572Y-105246733D01*
X204242762Y-105245549D01*
X204227316Y-105244471D01*
X204213347Y-105243575D01*
X204201963Y-105242938D01*
X204200304Y-105242859D01*
X204171909Y-105241539D01*
X204171974Y-105107916D01*
X204171974Y-105107916D01*
G37*
X204171974Y-105107916D02*
X204172016Y-105078345D01*
X204172114Y-105052381D01*
X204172266Y-105030063D01*
X204172471Y-105011434D01*
X204172729Y-104996532D01*
X204173040Y-104985401D01*
X204173402Y-104978079D01*
X204173815Y-104974607D01*
X204173992Y-104974306D01*
X204176495Y-104974533D01*
X204182198Y-104975154D01*
X204190420Y-104976091D01*
X204200481Y-104977268D01*
X204208971Y-104978279D01*
X204217242Y-104979223D01*
X204227907Y-104980369D01*
X204240347Y-104981657D01*
X204253940Y-104983026D01*
X204268068Y-104984418D01*
X204282111Y-104985773D01*
X204295447Y-104987030D01*
X204307459Y-104988131D01*
X204317525Y-104989015D01*
X204325026Y-104989623D01*
X204329342Y-104989895D01*
X204329640Y-104989903D01*
X204329860Y-104991807D01*
X204330069Y-104997299D01*
X204330263Y-105006059D01*
X204330439Y-105017769D01*
X204330594Y-105032107D01*
X204330726Y-105048755D01*
X204330829Y-105067393D01*
X204330903Y-105087701D01*
X204330942Y-105109359D01*
X204330949Y-105120830D01*
X204330963Y-105251738D01*
X204324770Y-105251725D01*
X204321072Y-105251561D01*
X204314127Y-105251108D01*
X204304583Y-105250414D01*
X204293085Y-105249528D01*
X204280281Y-105248496D01*
X204273638Y-105247945D01*
X204258572Y-105246733D01*
X204242762Y-105245549D01*
X204227316Y-105244471D01*
X204213347Y-105243575D01*
X204201963Y-105242938D01*
X204200304Y-105242859D01*
X204171909Y-105241539D01*
X204171974Y-105107916D01*
G36*
X203180406Y-108622844D02*
X203184861Y-108619133D01*
X203192016Y-108613270D01*
X203201693Y-108605397D01*
X203213717Y-108595658D01*
X203227908Y-108584194D01*
X203244091Y-108571150D01*
X203262088Y-108556666D01*
X203281722Y-108540887D01*
X203302816Y-108523955D01*
X203325192Y-108506012D01*
X203348675Y-108487202D01*
X203373085Y-108467667D01*
X203384638Y-108458428D01*
X203589792Y-108294398D01*
X203746861Y-108307714D01*
X203771333Y-108309793D01*
X203794738Y-108311791D01*
X203816774Y-108313681D01*
X203837141Y-108315436D01*
X203855539Y-108317031D01*
X203871666Y-108318440D01*
X203885224Y-108319635D01*
X203895911Y-108320592D01*
X203903427Y-108321284D01*
X203907471Y-108321685D01*
X203908053Y-108321758D01*
X203910724Y-108322407D01*
X203910094Y-108323307D01*
X203907292Y-108324580D01*
X203904852Y-108325599D01*
X203899024Y-108328019D01*
X203890020Y-108331751D01*
X203878050Y-108336711D01*
X203863324Y-108342809D01*
X203846052Y-108349960D01*
X203826446Y-108358076D01*
X203804714Y-108367071D01*
X203781068Y-108376856D01*
X203755718Y-108387346D01*
X203728874Y-108398453D01*
X203700747Y-108410091D01*
X203671547Y-108422172D01*
X203641484Y-108434609D01*
X203610768Y-108447315D01*
X203579611Y-108460204D01*
X203548222Y-108473187D01*
X203516811Y-108486180D01*
X203503591Y-108491647D01*
X203503591Y-108432042D01*
X203505411Y-108431407D01*
X203510426Y-108429444D01*
X203518218Y-108426325D01*
X203528374Y-108422221D01*
X203540477Y-108417301D01*
X203554113Y-108411737D01*
X203568865Y-108405700D01*
X203584318Y-108399359D01*
X203600057Y-108392887D01*
X203615666Y-108386454D01*
X203630731Y-108380230D01*
X203644835Y-108374386D01*
X203657563Y-108369093D01*
X203668501Y-108364522D01*
X203677231Y-108360843D01*
X203683339Y-108358228D01*
X203685531Y-108357260D01*
X203693346Y-108353712D01*
X203677715Y-108352366D01*
X203669759Y-108351758D01*
X203659194Y-108351059D01*
X203647315Y-108350349D01*
X203635418Y-108349710D01*
X203633754Y-108349627D01*
X203605423Y-108348234D01*
X203567213Y-108379182D01*
X203550937Y-108392377D01*
X203537487Y-108403310D01*
X203526640Y-108412168D01*
X203518174Y-108419133D01*
X203511866Y-108424392D01*
X203507495Y-108428129D01*
X203504837Y-108430528D01*
X203503671Y-108431775D01*
X203503591Y-108432042D01*
X203503591Y-108491647D01*
X203485590Y-108499093D01*
X203454768Y-108511840D01*
X203424555Y-108524335D01*
X203395163Y-108536490D01*
X203366801Y-108548218D01*
X203339680Y-108559433D01*
X203314009Y-108570046D01*
X203290001Y-108579972D01*
X203267864Y-108589123D01*
X203247809Y-108597412D01*
X203230046Y-108604753D01*
X203214787Y-108611057D01*
X203202240Y-108616239D01*
X203192617Y-108620211D01*
X203186128Y-108622886D01*
X203182983Y-108624177D01*
X203182736Y-108624277D01*
X203179427Y-108625080D01*
X203178828Y-108624260D01*
X203180406Y-108622844D01*
X203180406Y-108622844D01*
G37*
X203180406Y-108622844D02*
X203184861Y-108619133D01*
X203192016Y-108613270D01*
X203201693Y-108605397D01*
X203213717Y-108595658D01*
X203227908Y-108584194D01*
X203244091Y-108571150D01*
X203262088Y-108556666D01*
X203281722Y-108540887D01*
X203302816Y-108523955D01*
X203325192Y-108506012D01*
X203348675Y-108487202D01*
X203373085Y-108467667D01*
X203384638Y-108458428D01*
X203589792Y-108294398D01*
X203746861Y-108307714D01*
X203771333Y-108309793D01*
X203794738Y-108311791D01*
X203816774Y-108313681D01*
X203837141Y-108315436D01*
X203855539Y-108317031D01*
X203871666Y-108318440D01*
X203885224Y-108319635D01*
X203895911Y-108320592D01*
X203903427Y-108321284D01*
X203907471Y-108321685D01*
X203908053Y-108321758D01*
X203910724Y-108322407D01*
X203910094Y-108323307D01*
X203907292Y-108324580D01*
X203904852Y-108325599D01*
X203899024Y-108328019D01*
X203890020Y-108331751D01*
X203878050Y-108336711D01*
X203863324Y-108342809D01*
X203846052Y-108349960D01*
X203826446Y-108358076D01*
X203804714Y-108367071D01*
X203781068Y-108376856D01*
X203755718Y-108387346D01*
X203728874Y-108398453D01*
X203700747Y-108410091D01*
X203671547Y-108422172D01*
X203641484Y-108434609D01*
X203610768Y-108447315D01*
X203579611Y-108460204D01*
X203548222Y-108473187D01*
X203516811Y-108486180D01*
X203503591Y-108491647D01*
X203503591Y-108432042D01*
X203505411Y-108431407D01*
X203510426Y-108429444D01*
X203518218Y-108426325D01*
X203528374Y-108422221D01*
X203540477Y-108417301D01*
X203554113Y-108411737D01*
X203568865Y-108405700D01*
X203584318Y-108399359D01*
X203600057Y-108392887D01*
X203615666Y-108386454D01*
X203630731Y-108380230D01*
X203644835Y-108374386D01*
X203657563Y-108369093D01*
X203668501Y-108364522D01*
X203677231Y-108360843D01*
X203683339Y-108358228D01*
X203685531Y-108357260D01*
X203693346Y-108353712D01*
X203677715Y-108352366D01*
X203669759Y-108351758D01*
X203659194Y-108351059D01*
X203647315Y-108350349D01*
X203635418Y-108349710D01*
X203633754Y-108349627D01*
X203605423Y-108348234D01*
X203567213Y-108379182D01*
X203550937Y-108392377D01*
X203537487Y-108403310D01*
X203526640Y-108412168D01*
X203518174Y-108419133D01*
X203511866Y-108424392D01*
X203507495Y-108428129D01*
X203504837Y-108430528D01*
X203503671Y-108431775D01*
X203503591Y-108432042D01*
X203503591Y-108491647D01*
X203485590Y-108499093D01*
X203454768Y-108511840D01*
X203424555Y-108524335D01*
X203395163Y-108536490D01*
X203366801Y-108548218D01*
X203339680Y-108559433D01*
X203314009Y-108570046D01*
X203290001Y-108579972D01*
X203267864Y-108589123D01*
X203247809Y-108597412D01*
X203230046Y-108604753D01*
X203214787Y-108611057D01*
X203202240Y-108616239D01*
X203192617Y-108620211D01*
X203186128Y-108622886D01*
X203182983Y-108624177D01*
X203182736Y-108624277D01*
X203179427Y-108625080D01*
X203178828Y-108624260D01*
X203180406Y-108622844D01*
D16*
X190948548Y-107739690D02*
X191234262Y-107739690D01*
X191091405Y-108239690D02*
X191091405Y-107739690D01*
X191400929Y-108239690D02*
X191400929Y-107739690D01*
X191591405Y-107739690D01*
X191639024Y-107763500D01*
X191662833Y-107787310D01*
X191686643Y-107834929D01*
X191686643Y-107906357D01*
X191662833Y-107953976D01*
X191639024Y-107977786D01*
X191591405Y-108001595D01*
X191400929Y-108001595D01*
X191877119Y-107787310D02*
X191900929Y-107763500D01*
X191948548Y-107739690D01*
X192067595Y-107739690D01*
X192115214Y-107763500D01*
X192139024Y-107787310D01*
X192162833Y-107834929D01*
X192162833Y-107882548D01*
X192139024Y-107953976D01*
X191853310Y-108239690D01*
X192162833Y-108239690D01*
X202378548Y-102405690D02*
X202664262Y-102405690D01*
X202521405Y-102905690D02*
X202521405Y-102405690D01*
X202830929Y-102905690D02*
X202830929Y-102405690D01*
X203021405Y-102405690D01*
X203069024Y-102429500D01*
X203092833Y-102453310D01*
X203116643Y-102500929D01*
X203116643Y-102572357D01*
X203092833Y-102619976D01*
X203069024Y-102643786D01*
X203021405Y-102667595D01*
X202830929Y-102667595D01*
X203283310Y-102405690D02*
X203592833Y-102405690D01*
X203426167Y-102596167D01*
X203497595Y-102596167D01*
X203545214Y-102619976D01*
X203569024Y-102643786D01*
X203592833Y-102691405D01*
X203592833Y-102810452D01*
X203569024Y-102858071D01*
X203545214Y-102881881D01*
X203497595Y-102905690D01*
X203354738Y-102905690D01*
X203307119Y-102881881D01*
X203283310Y-102858071D01*
%LPC*%
D17*
X200237000Y-111696500D03*
X201337000Y-111696500D03*
D18*
X196151500Y-109876500D03*
X196151500Y-110976500D03*
X195199000Y-109876500D03*
X195199000Y-110976500D03*
D17*
X193653500Y-105410000D03*
X192553500Y-105410000D03*
X200237000Y-108839000D03*
X201337000Y-108839000D03*
X200237000Y-112649000D03*
X201337000Y-112649000D03*
X195685500Y-100203000D03*
X194585500Y-100203000D03*
D19*
X192463000Y-106489500D03*
X193363000Y-106489500D03*
X205047000Y-98234500D03*
X204147000Y-98234500D03*
X204147000Y-99187000D03*
X205047000Y-99187000D03*
X200210000Y-109855000D03*
X201110000Y-109855000D03*
D20*
X204978000Y-101605500D03*
X204978000Y-100705500D03*
X194437000Y-112718000D03*
X194437000Y-111818000D03*
X196151500Y-112718000D03*
X196151500Y-111818000D03*
X204470000Y-112718000D03*
X204470000Y-111818000D03*
D19*
X194749000Y-108902500D03*
X195649000Y-108902500D03*
X192844000Y-99504500D03*
X193744000Y-99504500D03*
X202496000Y-97536000D03*
X203396000Y-97536000D03*
X203396000Y-98552000D03*
X202496000Y-98552000D03*
D21*
X191579500Y-108839000D03*
X202692000Y-103441500D03*
D22*
X194974000Y-101771000D03*
X194974000Y-102271000D03*
X194974000Y-102771000D03*
X194974000Y-103271000D03*
X194974000Y-103771000D03*
X194974000Y-104271000D03*
X194974000Y-104771000D03*
X194974000Y-105271000D03*
X194974000Y-105771000D03*
X194974000Y-106271000D03*
X194974000Y-106771000D03*
X194974000Y-107271000D03*
D23*
X195624000Y-107921000D03*
X196124000Y-107921000D03*
X196624000Y-107921000D03*
X197124000Y-107921000D03*
X197624000Y-107921000D03*
X198124000Y-107921000D03*
X198624000Y-107921000D03*
X199124000Y-107921000D03*
X199624000Y-107921000D03*
X200124000Y-107921000D03*
X200624000Y-107921000D03*
X201124000Y-107921000D03*
D22*
X201774000Y-107271000D03*
X201774000Y-106771000D03*
X201774000Y-106271000D03*
X201774000Y-105771000D03*
X201774000Y-105271000D03*
X201774000Y-104771000D03*
X201774000Y-104271000D03*
X201774000Y-103771000D03*
X201774000Y-103271000D03*
X201774000Y-102771000D03*
X201774000Y-102271000D03*
X201774000Y-101771000D03*
D23*
X201124000Y-101121000D03*
X200624000Y-101121000D03*
X200124000Y-101121000D03*
X199624000Y-101121000D03*
X199124000Y-101121000D03*
X198624000Y-101121000D03*
X198124000Y-101121000D03*
X197624000Y-101121000D03*
X197124000Y-101121000D03*
X196624000Y-101121000D03*
X196124000Y-101121000D03*
X195624000Y-101121000D03*
D24*
X200305250Y-106452250D03*
X200305250Y-105164750D03*
X200305250Y-103877250D03*
X200305250Y-102589750D03*
X199017750Y-106452250D03*
X199017750Y-105164750D03*
X199017750Y-103877250D03*
X199017750Y-102589750D03*
X197730250Y-106452250D03*
X197730250Y-105164750D03*
X197730250Y-103877250D03*
X197730250Y-102589750D03*
X196442750Y-106452250D03*
X196442750Y-105164750D03*
X196442750Y-103877250D03*
X196442750Y-102589750D03*
D25*
X193167000Y-101924000D03*
X193167000Y-103124000D03*
X193167000Y-104324000D03*
D26*
X191770000Y-114300000D03*
D27*
X194310000Y-114300000D03*
X196850000Y-114300000D03*
X199390000Y-114300000D03*
X201930000Y-114300000D03*
X204470000Y-114300000D03*
D28*
X201536300Y-97536000D03*
X200037700Y-97536000D03*
X201536300Y-98679000D03*
X200037700Y-98679000D03*
D29*
X197307200Y-112229900D03*
X198247000Y-112229900D03*
X199186800Y-112229900D03*
X199186800Y-109893100D03*
X197307200Y-109893100D03*
D21*
X191135000Y-106045000D03*
M02*
