G04 #@! TF.FileFunction,Other,Fab,Top*
%FSLAX46Y46*%
G04 Gerber Fmt 4.6, Leading zero omitted, Abs format (unit mm)*
G04 Created by KiCad (PCBNEW 4.0.2-stable) date Thursday, June 16, 2016 'AMt' 09:32:41 AM*
%MOMM*%
G01*
G04 APERTURE LIST*
%ADD10C,0.100000*%
%ADD11C,0.200000*%
%ADD12C,0.125000*%
G04 APERTURE END LIST*
D10*
D11*
X199390000Y-98425000D02*
X199390000Y-98933000D01*
X199390000Y-97282000D02*
X199390000Y-97790000D01*
X197231000Y-111252000D02*
G75*
G03X197231000Y-111252000I-127000J0D01*
G01*
X195707000Y-101727000D02*
G75*
G03X195707000Y-101727000I-127000J0D01*
G01*
D12*
X200703667Y-111875071D02*
X200679857Y-111898881D01*
X200608429Y-111922690D01*
X200560810Y-111922690D01*
X200489381Y-111898881D01*
X200441762Y-111851262D01*
X200417953Y-111803643D01*
X200394143Y-111708405D01*
X200394143Y-111636976D01*
X200417953Y-111541738D01*
X200441762Y-111494119D01*
X200489381Y-111446500D01*
X200560810Y-111422690D01*
X200608429Y-111422690D01*
X200679857Y-111446500D01*
X200703667Y-111470310D01*
X201179857Y-111922690D02*
X200894143Y-111922690D01*
X201037000Y-111922690D02*
X201037000Y-111422690D01*
X200989381Y-111494119D01*
X200941762Y-111541738D01*
X200894143Y-111565548D01*
X196330071Y-110509833D02*
X196353881Y-110533643D01*
X196377690Y-110605071D01*
X196377690Y-110652690D01*
X196353881Y-110724119D01*
X196306262Y-110771738D01*
X196258643Y-110795547D01*
X196163405Y-110819357D01*
X196091976Y-110819357D01*
X195996738Y-110795547D01*
X195949119Y-110771738D01*
X195901500Y-110724119D01*
X195877690Y-110652690D01*
X195877690Y-110605071D01*
X195901500Y-110533643D01*
X195925310Y-110509833D01*
X195877690Y-110343166D02*
X195877690Y-110033643D01*
X196068167Y-110200309D01*
X196068167Y-110128881D01*
X196091976Y-110081262D01*
X196115786Y-110057452D01*
X196163405Y-110033643D01*
X196282452Y-110033643D01*
X196330071Y-110057452D01*
X196353881Y-110081262D01*
X196377690Y-110128881D01*
X196377690Y-110271738D01*
X196353881Y-110319357D01*
X196330071Y-110343166D01*
X195377571Y-110509833D02*
X195401381Y-110533643D01*
X195425190Y-110605071D01*
X195425190Y-110652690D01*
X195401381Y-110724119D01*
X195353762Y-110771738D01*
X195306143Y-110795547D01*
X195210905Y-110819357D01*
X195139476Y-110819357D01*
X195044238Y-110795547D01*
X194996619Y-110771738D01*
X194949000Y-110724119D01*
X194925190Y-110652690D01*
X194925190Y-110605071D01*
X194949000Y-110533643D01*
X194972810Y-110509833D01*
X195091857Y-110081262D02*
X195425190Y-110081262D01*
X194901381Y-110200309D02*
X195258524Y-110319357D01*
X195258524Y-110009833D01*
X193020167Y-105588571D02*
X192996357Y-105612381D01*
X192924929Y-105636190D01*
X192877310Y-105636190D01*
X192805881Y-105612381D01*
X192758262Y-105564762D01*
X192734453Y-105517143D01*
X192710643Y-105421905D01*
X192710643Y-105350476D01*
X192734453Y-105255238D01*
X192758262Y-105207619D01*
X192805881Y-105160000D01*
X192877310Y-105136190D01*
X192924929Y-105136190D01*
X192996357Y-105160000D01*
X193020167Y-105183810D01*
X193472548Y-105136190D02*
X193234453Y-105136190D01*
X193210643Y-105374286D01*
X193234453Y-105350476D01*
X193282072Y-105326667D01*
X193401119Y-105326667D01*
X193448738Y-105350476D01*
X193472548Y-105374286D01*
X193496357Y-105421905D01*
X193496357Y-105540952D01*
X193472548Y-105588571D01*
X193448738Y-105612381D01*
X193401119Y-105636190D01*
X193282072Y-105636190D01*
X193234453Y-105612381D01*
X193210643Y-105588571D01*
X200703667Y-109017571D02*
X200679857Y-109041381D01*
X200608429Y-109065190D01*
X200560810Y-109065190D01*
X200489381Y-109041381D01*
X200441762Y-108993762D01*
X200417953Y-108946143D01*
X200394143Y-108850905D01*
X200394143Y-108779476D01*
X200417953Y-108684238D01*
X200441762Y-108636619D01*
X200489381Y-108589000D01*
X200560810Y-108565190D01*
X200608429Y-108565190D01*
X200679857Y-108589000D01*
X200703667Y-108612810D01*
X201132238Y-108565190D02*
X201037000Y-108565190D01*
X200989381Y-108589000D01*
X200965572Y-108612810D01*
X200917953Y-108684238D01*
X200894143Y-108779476D01*
X200894143Y-108969952D01*
X200917953Y-109017571D01*
X200941762Y-109041381D01*
X200989381Y-109065190D01*
X201084619Y-109065190D01*
X201132238Y-109041381D01*
X201156048Y-109017571D01*
X201179857Y-108969952D01*
X201179857Y-108850905D01*
X201156048Y-108803286D01*
X201132238Y-108779476D01*
X201084619Y-108755667D01*
X200989381Y-108755667D01*
X200941762Y-108779476D01*
X200917953Y-108803286D01*
X200894143Y-108850905D01*
X200703667Y-112827571D02*
X200679857Y-112851381D01*
X200608429Y-112875190D01*
X200560810Y-112875190D01*
X200489381Y-112851381D01*
X200441762Y-112803762D01*
X200417953Y-112756143D01*
X200394143Y-112660905D01*
X200394143Y-112589476D01*
X200417953Y-112494238D01*
X200441762Y-112446619D01*
X200489381Y-112399000D01*
X200560810Y-112375190D01*
X200608429Y-112375190D01*
X200679857Y-112399000D01*
X200703667Y-112422810D01*
X200870334Y-112375190D02*
X201203667Y-112375190D01*
X200989381Y-112875190D01*
X195052167Y-100381571D02*
X195028357Y-100405381D01*
X194956929Y-100429190D01*
X194909310Y-100429190D01*
X194837881Y-100405381D01*
X194790262Y-100357762D01*
X194766453Y-100310143D01*
X194742643Y-100214905D01*
X194742643Y-100143476D01*
X194766453Y-100048238D01*
X194790262Y-100000619D01*
X194837881Y-99953000D01*
X194909310Y-99929190D01*
X194956929Y-99929190D01*
X195028357Y-99953000D01*
X195052167Y-99976810D01*
X195337881Y-100143476D02*
X195290262Y-100119667D01*
X195266453Y-100095857D01*
X195242643Y-100048238D01*
X195242643Y-100024429D01*
X195266453Y-99976810D01*
X195290262Y-99953000D01*
X195337881Y-99929190D01*
X195433119Y-99929190D01*
X195480738Y-99953000D01*
X195504548Y-99976810D01*
X195528357Y-100024429D01*
X195528357Y-100048238D01*
X195504548Y-100095857D01*
X195480738Y-100119667D01*
X195433119Y-100143476D01*
X195337881Y-100143476D01*
X195290262Y-100167286D01*
X195266453Y-100191095D01*
X195242643Y-100238714D01*
X195242643Y-100333952D01*
X195266453Y-100381571D01*
X195290262Y-100405381D01*
X195337881Y-100429190D01*
X195433119Y-100429190D01*
X195480738Y-100405381D01*
X195504548Y-100381571D01*
X195528357Y-100333952D01*
X195528357Y-100238714D01*
X195504548Y-100191095D01*
X195480738Y-100167286D01*
X195433119Y-100143476D01*
X192829667Y-106715690D02*
X192663000Y-106477595D01*
X192543953Y-106715690D02*
X192543953Y-106215690D01*
X192734429Y-106215690D01*
X192782048Y-106239500D01*
X192805857Y-106263310D01*
X192829667Y-106310929D01*
X192829667Y-106382357D01*
X192805857Y-106429976D01*
X192782048Y-106453786D01*
X192734429Y-106477595D01*
X192543953Y-106477595D01*
X193305857Y-106715690D02*
X193020143Y-106715690D01*
X193163000Y-106715690D02*
X193163000Y-106215690D01*
X193115381Y-106287119D01*
X193067762Y-106334738D01*
X193020143Y-106358548D01*
X204513667Y-98460690D02*
X204347000Y-98222595D01*
X204227953Y-98460690D02*
X204227953Y-97960690D01*
X204418429Y-97960690D01*
X204466048Y-97984500D01*
X204489857Y-98008310D01*
X204513667Y-98055929D01*
X204513667Y-98127357D01*
X204489857Y-98174976D01*
X204466048Y-98198786D01*
X204418429Y-98222595D01*
X204227953Y-98222595D01*
X204704143Y-98008310D02*
X204727953Y-97984500D01*
X204775572Y-97960690D01*
X204894619Y-97960690D01*
X204942238Y-97984500D01*
X204966048Y-98008310D01*
X204989857Y-98055929D01*
X204989857Y-98103548D01*
X204966048Y-98174976D01*
X204680334Y-98460690D01*
X204989857Y-98460690D01*
X204513667Y-99413190D02*
X204347000Y-99175095D01*
X204227953Y-99413190D02*
X204227953Y-98913190D01*
X204418429Y-98913190D01*
X204466048Y-98937000D01*
X204489857Y-98960810D01*
X204513667Y-99008429D01*
X204513667Y-99079857D01*
X204489857Y-99127476D01*
X204466048Y-99151286D01*
X204418429Y-99175095D01*
X204227953Y-99175095D01*
X204680334Y-98913190D02*
X204989857Y-98913190D01*
X204823191Y-99103667D01*
X204894619Y-99103667D01*
X204942238Y-99127476D01*
X204966048Y-99151286D01*
X204989857Y-99198905D01*
X204989857Y-99317952D01*
X204966048Y-99365571D01*
X204942238Y-99389381D01*
X204894619Y-99413190D01*
X204751762Y-99413190D01*
X204704143Y-99389381D01*
X204680334Y-99365571D01*
X200576667Y-110081190D02*
X200410000Y-109843095D01*
X200290953Y-110081190D02*
X200290953Y-109581190D01*
X200481429Y-109581190D01*
X200529048Y-109605000D01*
X200552857Y-109628810D01*
X200576667Y-109676429D01*
X200576667Y-109747857D01*
X200552857Y-109795476D01*
X200529048Y-109819286D01*
X200481429Y-109843095D01*
X200290953Y-109843095D01*
X201005238Y-109747857D02*
X201005238Y-110081190D01*
X200886191Y-109557381D02*
X200767143Y-109914524D01*
X201076667Y-109914524D01*
X205204190Y-101238833D02*
X204966095Y-101405500D01*
X205204190Y-101524547D02*
X204704190Y-101524547D01*
X204704190Y-101334071D01*
X204728000Y-101286452D01*
X204751810Y-101262643D01*
X204799429Y-101238833D01*
X204870857Y-101238833D01*
X204918476Y-101262643D01*
X204942286Y-101286452D01*
X204966095Y-101334071D01*
X204966095Y-101524547D01*
X204704190Y-100786452D02*
X204704190Y-101024547D01*
X204942286Y-101048357D01*
X204918476Y-101024547D01*
X204894667Y-100976928D01*
X204894667Y-100857881D01*
X204918476Y-100810262D01*
X204942286Y-100786452D01*
X204989905Y-100762643D01*
X205108952Y-100762643D01*
X205156571Y-100786452D01*
X205180381Y-100810262D01*
X205204190Y-100857881D01*
X205204190Y-100976928D01*
X205180381Y-101024547D01*
X205156571Y-101048357D01*
X194663190Y-112351333D02*
X194425095Y-112518000D01*
X194663190Y-112637047D02*
X194163190Y-112637047D01*
X194163190Y-112446571D01*
X194187000Y-112398952D01*
X194210810Y-112375143D01*
X194258429Y-112351333D01*
X194329857Y-112351333D01*
X194377476Y-112375143D01*
X194401286Y-112398952D01*
X194425095Y-112446571D01*
X194425095Y-112637047D01*
X194163190Y-111922762D02*
X194163190Y-112018000D01*
X194187000Y-112065619D01*
X194210810Y-112089428D01*
X194282238Y-112137047D01*
X194377476Y-112160857D01*
X194567952Y-112160857D01*
X194615571Y-112137047D01*
X194639381Y-112113238D01*
X194663190Y-112065619D01*
X194663190Y-111970381D01*
X194639381Y-111922762D01*
X194615571Y-111898952D01*
X194567952Y-111875143D01*
X194448905Y-111875143D01*
X194401286Y-111898952D01*
X194377476Y-111922762D01*
X194353667Y-111970381D01*
X194353667Y-112065619D01*
X194377476Y-112113238D01*
X194401286Y-112137047D01*
X194448905Y-112160857D01*
X196377690Y-112351333D02*
X196139595Y-112518000D01*
X196377690Y-112637047D02*
X195877690Y-112637047D01*
X195877690Y-112446571D01*
X195901500Y-112398952D01*
X195925310Y-112375143D01*
X195972929Y-112351333D01*
X196044357Y-112351333D01*
X196091976Y-112375143D01*
X196115786Y-112398952D01*
X196139595Y-112446571D01*
X196139595Y-112637047D01*
X195877690Y-112184666D02*
X195877690Y-111851333D01*
X196377690Y-112065619D01*
X204696190Y-112351333D02*
X204458095Y-112518000D01*
X204696190Y-112637047D02*
X204196190Y-112637047D01*
X204196190Y-112446571D01*
X204220000Y-112398952D01*
X204243810Y-112375143D01*
X204291429Y-112351333D01*
X204362857Y-112351333D01*
X204410476Y-112375143D01*
X204434286Y-112398952D01*
X204458095Y-112446571D01*
X204458095Y-112637047D01*
X204410476Y-112065619D02*
X204386667Y-112113238D01*
X204362857Y-112137047D01*
X204315238Y-112160857D01*
X204291429Y-112160857D01*
X204243810Y-112137047D01*
X204220000Y-112113238D01*
X204196190Y-112065619D01*
X204196190Y-111970381D01*
X204220000Y-111922762D01*
X204243810Y-111898952D01*
X204291429Y-111875143D01*
X204315238Y-111875143D01*
X204362857Y-111898952D01*
X204386667Y-111922762D01*
X204410476Y-111970381D01*
X204410476Y-112065619D01*
X204434286Y-112113238D01*
X204458095Y-112137047D01*
X204505714Y-112160857D01*
X204600952Y-112160857D01*
X204648571Y-112137047D01*
X204672381Y-112113238D01*
X204696190Y-112065619D01*
X204696190Y-111970381D01*
X204672381Y-111922762D01*
X204648571Y-111898952D01*
X204600952Y-111875143D01*
X204505714Y-111875143D01*
X204458095Y-111898952D01*
X204434286Y-111922762D01*
X204410476Y-111970381D01*
X195115667Y-109128690D02*
X194949000Y-108890595D01*
X194829953Y-109128690D02*
X194829953Y-108628690D01*
X195020429Y-108628690D01*
X195068048Y-108652500D01*
X195091857Y-108676310D01*
X195115667Y-108723929D01*
X195115667Y-108795357D01*
X195091857Y-108842976D01*
X195068048Y-108866786D01*
X195020429Y-108890595D01*
X194829953Y-108890595D01*
X195353762Y-109128690D02*
X195449000Y-109128690D01*
X195496619Y-109104881D01*
X195520429Y-109081071D01*
X195568048Y-109009643D01*
X195591857Y-108914405D01*
X195591857Y-108723929D01*
X195568048Y-108676310D01*
X195544238Y-108652500D01*
X195496619Y-108628690D01*
X195401381Y-108628690D01*
X195353762Y-108652500D01*
X195329953Y-108676310D01*
X195306143Y-108723929D01*
X195306143Y-108842976D01*
X195329953Y-108890595D01*
X195353762Y-108914405D01*
X195401381Y-108938214D01*
X195496619Y-108938214D01*
X195544238Y-108914405D01*
X195568048Y-108890595D01*
X195591857Y-108842976D01*
X192972572Y-99730690D02*
X192805905Y-99492595D01*
X192686858Y-99730690D02*
X192686858Y-99230690D01*
X192877334Y-99230690D01*
X192924953Y-99254500D01*
X192948762Y-99278310D01*
X192972572Y-99325929D01*
X192972572Y-99397357D01*
X192948762Y-99444976D01*
X192924953Y-99468786D01*
X192877334Y-99492595D01*
X192686858Y-99492595D01*
X193448762Y-99730690D02*
X193163048Y-99730690D01*
X193305905Y-99730690D02*
X193305905Y-99230690D01*
X193258286Y-99302119D01*
X193210667Y-99349738D01*
X193163048Y-99373548D01*
X193758286Y-99230690D02*
X193805905Y-99230690D01*
X193853524Y-99254500D01*
X193877333Y-99278310D01*
X193901143Y-99325929D01*
X193924952Y-99421167D01*
X193924952Y-99540214D01*
X193901143Y-99635452D01*
X193877333Y-99683071D01*
X193853524Y-99706881D01*
X193805905Y-99730690D01*
X193758286Y-99730690D01*
X193710667Y-99706881D01*
X193686857Y-99683071D01*
X193663048Y-99635452D01*
X193639238Y-99540214D01*
X193639238Y-99421167D01*
X193663048Y-99325929D01*
X193686857Y-99278310D01*
X193710667Y-99254500D01*
X193758286Y-99230690D01*
X202624572Y-97762190D02*
X202457905Y-97524095D01*
X202338858Y-97762190D02*
X202338858Y-97262190D01*
X202529334Y-97262190D01*
X202576953Y-97286000D01*
X202600762Y-97309810D01*
X202624572Y-97357429D01*
X202624572Y-97428857D01*
X202600762Y-97476476D01*
X202576953Y-97500286D01*
X202529334Y-97524095D01*
X202338858Y-97524095D01*
X203100762Y-97762190D02*
X202815048Y-97762190D01*
X202957905Y-97762190D02*
X202957905Y-97262190D01*
X202910286Y-97333619D01*
X202862667Y-97381238D01*
X202815048Y-97405048D01*
X203291238Y-97309810D02*
X203315048Y-97286000D01*
X203362667Y-97262190D01*
X203481714Y-97262190D01*
X203529333Y-97286000D01*
X203553143Y-97309810D01*
X203576952Y-97357429D01*
X203576952Y-97405048D01*
X203553143Y-97476476D01*
X203267429Y-97762190D01*
X203576952Y-97762190D01*
X202624572Y-98778190D02*
X202457905Y-98540095D01*
X202338858Y-98778190D02*
X202338858Y-98278190D01*
X202529334Y-98278190D01*
X202576953Y-98302000D01*
X202600762Y-98325810D01*
X202624572Y-98373429D01*
X202624572Y-98444857D01*
X202600762Y-98492476D01*
X202576953Y-98516286D01*
X202529334Y-98540095D01*
X202338858Y-98540095D01*
X203100762Y-98778190D02*
X202815048Y-98778190D01*
X202957905Y-98778190D02*
X202957905Y-98278190D01*
X202910286Y-98349619D01*
X202862667Y-98397238D01*
X202815048Y-98421048D01*
X203267429Y-98278190D02*
X203576952Y-98278190D01*
X203410286Y-98468667D01*
X203481714Y-98468667D01*
X203529333Y-98492476D01*
X203553143Y-98516286D01*
X203576952Y-98563905D01*
X203576952Y-98682952D01*
X203553143Y-98730571D01*
X203529333Y-98754381D01*
X203481714Y-98778190D01*
X203338857Y-98778190D01*
X203291238Y-98754381D01*
X203267429Y-98730571D01*
X197993048Y-104247190D02*
X197993048Y-104651952D01*
X198016857Y-104699571D01*
X198040667Y-104723381D01*
X198088286Y-104747190D01*
X198183524Y-104747190D01*
X198231143Y-104723381D01*
X198254952Y-104699571D01*
X198278762Y-104651952D01*
X198278762Y-104247190D01*
X198778762Y-104747190D02*
X198493048Y-104747190D01*
X198635905Y-104747190D02*
X198635905Y-104247190D01*
X198588286Y-104318619D01*
X198540667Y-104366238D01*
X198493048Y-104390048D01*
X193155095Y-103362094D02*
X193393190Y-103362094D01*
X192893190Y-103528761D02*
X193155095Y-103362094D01*
X192893190Y-103195428D01*
X193393190Y-102766857D02*
X193393190Y-103052571D01*
X193393190Y-102909714D02*
X192893190Y-102909714D01*
X192964619Y-102957333D01*
X193012238Y-103004952D01*
X193036048Y-103052571D01*
X200417953Y-97762190D02*
X200417953Y-97262190D01*
X200537000Y-97262190D01*
X200608429Y-97286000D01*
X200656048Y-97333619D01*
X200679857Y-97381238D01*
X200703667Y-97476476D01*
X200703667Y-97547905D01*
X200679857Y-97643143D01*
X200656048Y-97690762D01*
X200608429Y-97738381D01*
X200537000Y-97762190D01*
X200417953Y-97762190D01*
X201179857Y-97762190D02*
X200894143Y-97762190D01*
X201037000Y-97762190D02*
X201037000Y-97262190D01*
X200989381Y-97333619D01*
X200941762Y-97381238D01*
X200894143Y-97405048D01*
X200417953Y-98905190D02*
X200417953Y-98405190D01*
X200537000Y-98405190D01*
X200608429Y-98429000D01*
X200656048Y-98476619D01*
X200679857Y-98524238D01*
X200703667Y-98619476D01*
X200703667Y-98690905D01*
X200679857Y-98786143D01*
X200656048Y-98833762D01*
X200608429Y-98881381D01*
X200537000Y-98905190D01*
X200417953Y-98905190D01*
X200894143Y-98452810D02*
X200917953Y-98429000D01*
X200965572Y-98405190D01*
X201084619Y-98405190D01*
X201132238Y-98429000D01*
X201156048Y-98452810D01*
X201179857Y-98500429D01*
X201179857Y-98548048D01*
X201156048Y-98619476D01*
X200870334Y-98905190D01*
X201179857Y-98905190D01*
X197866048Y-110787690D02*
X197866048Y-111192452D01*
X197889857Y-111240071D01*
X197913667Y-111263881D01*
X197961286Y-111287690D01*
X198056524Y-111287690D01*
X198104143Y-111263881D01*
X198127952Y-111240071D01*
X198151762Y-111192452D01*
X198151762Y-110787690D01*
X198366048Y-110835310D02*
X198389858Y-110811500D01*
X198437477Y-110787690D01*
X198556524Y-110787690D01*
X198604143Y-110811500D01*
X198627953Y-110835310D01*
X198651762Y-110882929D01*
X198651762Y-110930548D01*
X198627953Y-111001976D01*
X198342239Y-111287690D01*
X198651762Y-111287690D01*
M02*
