G04 #@! TF.FileFunction,Copper,L1,Top,Signal*
%FSLAX46Y46*%
G04 Gerber Fmt 4.6, Leading zero omitted, Abs format (unit mm)*
G04 Created by KiCad (PCBNEW 4.0.2-stable) date Thursday, June 16, 2016 'AMt' 09:32:41 AM*
%MOMM*%
G01*
G04 APERTURE LIST*
%ADD10C,0.100000*%
%ADD11R,0.600000X0.500000*%
%ADD12R,0.500000X0.600000*%
%ADD13R,0.400000X0.600000*%
%ADD14R,0.600000X0.400000*%
%ADD15C,0.685800*%
%ADD16R,0.700000X0.250000*%
%ADD17R,0.250000X0.700000*%
%ADD18R,1.287500X1.287500*%
%ADD19R,1.700000X0.700000*%
%ADD20R,1.727200X2.032000*%
%ADD21O,1.727200X2.032000*%
%ADD22R,0.797560X0.797560*%
%ADD23R,0.558800X1.320800*%
%ADD24C,0.508000*%
%ADD25C,0.476250*%
%ADD26C,0.381000*%
%ADD27C,0.152400*%
%ADD28C,0.254000*%
%ADD29C,0.250000*%
G04 APERTURE END LIST*
D10*
D11*
X200237000Y-111696500D03*
X201337000Y-111696500D03*
D12*
X196151500Y-109876500D03*
X196151500Y-110976500D03*
X195199000Y-109876500D03*
X195199000Y-110976500D03*
D11*
X193653500Y-105410000D03*
X192553500Y-105410000D03*
X200237000Y-108839000D03*
X201337000Y-108839000D03*
X200237000Y-112649000D03*
X201337000Y-112649000D03*
X195685500Y-100203000D03*
X194585500Y-100203000D03*
D13*
X192463000Y-106489500D03*
X193363000Y-106489500D03*
X205047000Y-98234500D03*
X204147000Y-98234500D03*
X204147000Y-99187000D03*
X205047000Y-99187000D03*
X200210000Y-109855000D03*
X201110000Y-109855000D03*
D14*
X204978000Y-101605500D03*
X204978000Y-100705500D03*
X194437000Y-112718000D03*
X194437000Y-111818000D03*
X196151500Y-112718000D03*
X196151500Y-111818000D03*
X204470000Y-112718000D03*
X204470000Y-111818000D03*
D13*
X194749000Y-108902500D03*
X195649000Y-108902500D03*
X192844000Y-99504500D03*
X193744000Y-99504500D03*
X202496000Y-97536000D03*
X203396000Y-97536000D03*
X203396000Y-98552000D03*
X202496000Y-98552000D03*
D15*
X191579500Y-108839000D03*
X202692000Y-103441500D03*
D16*
X194974000Y-101771000D03*
X194974000Y-102271000D03*
X194974000Y-102771000D03*
X194974000Y-103271000D03*
X194974000Y-103771000D03*
X194974000Y-104271000D03*
X194974000Y-104771000D03*
X194974000Y-105271000D03*
X194974000Y-105771000D03*
X194974000Y-106271000D03*
X194974000Y-106771000D03*
X194974000Y-107271000D03*
D17*
X195624000Y-107921000D03*
X196124000Y-107921000D03*
X196624000Y-107921000D03*
X197124000Y-107921000D03*
X197624000Y-107921000D03*
X198124000Y-107921000D03*
X198624000Y-107921000D03*
X199124000Y-107921000D03*
X199624000Y-107921000D03*
X200124000Y-107921000D03*
X200624000Y-107921000D03*
X201124000Y-107921000D03*
D16*
X201774000Y-107271000D03*
X201774000Y-106771000D03*
X201774000Y-106271000D03*
X201774000Y-105771000D03*
X201774000Y-105271000D03*
X201774000Y-104771000D03*
X201774000Y-104271000D03*
X201774000Y-103771000D03*
X201774000Y-103271000D03*
X201774000Y-102771000D03*
X201774000Y-102271000D03*
X201774000Y-101771000D03*
D17*
X201124000Y-101121000D03*
X200624000Y-101121000D03*
X200124000Y-101121000D03*
X199624000Y-101121000D03*
X199124000Y-101121000D03*
X198624000Y-101121000D03*
X198124000Y-101121000D03*
X197624000Y-101121000D03*
X197124000Y-101121000D03*
X196624000Y-101121000D03*
X196124000Y-101121000D03*
X195624000Y-101121000D03*
D18*
X200305250Y-106452250D03*
X200305250Y-105164750D03*
X200305250Y-103877250D03*
X200305250Y-102589750D03*
X199017750Y-106452250D03*
X199017750Y-105164750D03*
X199017750Y-103877250D03*
X199017750Y-102589750D03*
X197730250Y-106452250D03*
X197730250Y-105164750D03*
X197730250Y-103877250D03*
X197730250Y-102589750D03*
X196442750Y-106452250D03*
X196442750Y-105164750D03*
X196442750Y-103877250D03*
X196442750Y-102589750D03*
D19*
X193167000Y-101924000D03*
X193167000Y-103124000D03*
X193167000Y-104324000D03*
D20*
X191770000Y-114300000D03*
D21*
X194310000Y-114300000D03*
X196850000Y-114300000D03*
X199390000Y-114300000D03*
X201930000Y-114300000D03*
X204470000Y-114300000D03*
D22*
X201536300Y-97536000D03*
X200037700Y-97536000D03*
X201536300Y-98679000D03*
X200037700Y-98679000D03*
D23*
X197307200Y-112229900D03*
X198247000Y-112229900D03*
X199186800Y-112229900D03*
X199186800Y-109893100D03*
X197307200Y-109893100D03*
D15*
X191135000Y-106045000D03*
X191579500Y-112141000D03*
X204660500Y-96964500D03*
X203073000Y-109410500D03*
X197739000Y-111061500D03*
X192278000Y-97282000D03*
X192278000Y-98615500D03*
X195580000Y-99314000D03*
X200305250Y-105164750D03*
X196442750Y-105164750D03*
X200305250Y-102589750D03*
X196442750Y-102589750D03*
X192024000Y-103124000D03*
X191706500Y-105410000D03*
X193929000Y-108966000D03*
X202438000Y-107950000D03*
X197802500Y-109855000D03*
X192786000Y-100457000D03*
X196405500Y-100139500D03*
X202565000Y-101854000D03*
X194945000Y-101092000D03*
X191770000Y-106680000D03*
X204089000Y-110617000D03*
X203009500Y-105283000D03*
X194437000Y-99314000D03*
X197993000Y-100266500D03*
X202819000Y-106108500D03*
X196342000Y-108966000D03*
X199580500Y-99949000D03*
X203327000Y-104013000D03*
X193611500Y-112141000D03*
X202946000Y-102616000D03*
X204089000Y-100711000D03*
X204152500Y-101600000D03*
X195262500Y-112522000D03*
X198310500Y-109156500D03*
X202120500Y-101092000D03*
X201612500Y-110617000D03*
D24*
X200237000Y-111696500D02*
X200237000Y-112649000D01*
X200237000Y-112649000D02*
X200279000Y-112691000D01*
X200279000Y-112691000D02*
X200279000Y-113411000D01*
X200279000Y-113411000D02*
X199390000Y-114300000D01*
X199186800Y-112229900D02*
X199186800Y-114096800D01*
X199186800Y-114096800D02*
X199390000Y-114300000D01*
D25*
X199186800Y-112229900D02*
X199186800Y-112026700D01*
X199390000Y-114300000D02*
X199390000Y-114109500D01*
D26*
X197307200Y-112725200D02*
X198882000Y-114300000D01*
D25*
X198882000Y-114300000D02*
X199390000Y-114300000D01*
D24*
X199186800Y-112166400D02*
X199186800Y-112026700D01*
X199186800Y-114096800D02*
X199390000Y-114300000D01*
D25*
X197739000Y-111061500D02*
X196236500Y-111061500D01*
X196236500Y-111061500D02*
X196151500Y-110976500D01*
X196151500Y-110976500D02*
X195199000Y-110976500D01*
D27*
X205422500Y-98742500D02*
X205486000Y-98679000D01*
X205422500Y-97663000D02*
X204660500Y-96964500D01*
X205422500Y-98742500D02*
X204983500Y-99181500D01*
X205486000Y-97726500D02*
X205422500Y-97663000D01*
X205486000Y-98679000D02*
X205486000Y-97726500D01*
D24*
X201337000Y-111696500D02*
X201337000Y-112649000D01*
X201337000Y-112649000D02*
X201358500Y-112670500D01*
X201358500Y-112670500D02*
X201358500Y-113728500D01*
X201358500Y-113728500D02*
X201930000Y-114300000D01*
D27*
X201337000Y-108839000D02*
X201337000Y-109114500D01*
X201110000Y-109341500D02*
X201110000Y-109855000D01*
X201337000Y-109114500D02*
X201110000Y-109341500D01*
D24*
X197730250Y-103877250D02*
X197730250Y-102589750D01*
X197730250Y-105164750D02*
X197730250Y-103877250D01*
X197730250Y-106452250D02*
X197730250Y-105164750D01*
X199017750Y-105164750D02*
X199017750Y-106452250D01*
X199017750Y-103877250D02*
X199017750Y-105164750D01*
X199017750Y-102589750D02*
X199017750Y-103877250D01*
X200305250Y-105164750D02*
X200305250Y-103877250D01*
X196442750Y-105164750D02*
X196442750Y-106452250D01*
X196442750Y-102589750D02*
X196442750Y-103877250D01*
D27*
X204983500Y-99187000D02*
X204983500Y-99181500D01*
X201104500Y-108839000D02*
X201337000Y-108839000D01*
D25*
X197739000Y-111061500D02*
X198247000Y-111569500D01*
X198247000Y-112229900D02*
X198247000Y-111569500D01*
D28*
X198247000Y-112229900D02*
X198247000Y-111823500D01*
D27*
X200037700Y-97536000D02*
X197358000Y-97536000D01*
X197358000Y-97536000D02*
X195580000Y-99314000D01*
D26*
X195580000Y-99314000D02*
X195474500Y-99314000D01*
X195474500Y-99314000D02*
X194585500Y-100203000D01*
D27*
X201337000Y-108839000D02*
X200977500Y-108839000D01*
X200624000Y-108295000D02*
X200624000Y-107921000D01*
X200787000Y-108458000D02*
X200624000Y-108295000D01*
X200787000Y-108648500D02*
X200787000Y-108458000D01*
X200977500Y-108839000D02*
X200787000Y-108648500D01*
D29*
X200624000Y-107921000D02*
X200624000Y-106771000D01*
D28*
X200624000Y-106771000D02*
X200305250Y-106452250D01*
D24*
X196442750Y-106452250D02*
X197730250Y-106452250D01*
X197730250Y-106452250D02*
X199017750Y-106452250D01*
X199017750Y-106452250D02*
X200305250Y-106452250D01*
X200305250Y-106452250D02*
X200305250Y-105164750D01*
X200305250Y-105164750D02*
X199017750Y-105164750D01*
X199017750Y-105164750D02*
X197730250Y-105164750D01*
X197730250Y-105164750D02*
X196442750Y-105164750D01*
X196442750Y-105164750D02*
X196442750Y-103877250D01*
X196442750Y-103877250D02*
X197730250Y-103877250D01*
X197730250Y-103877250D02*
X199017750Y-103877250D01*
X199017750Y-103877250D02*
X200305250Y-103877250D01*
X200305250Y-103877250D02*
X200305250Y-102589750D01*
X200305250Y-102589750D02*
X199017750Y-102589750D01*
X199017750Y-102589750D02*
X197730250Y-102589750D01*
X197730250Y-102589750D02*
X196442750Y-102589750D01*
D28*
X196336500Y-105271000D02*
X196442750Y-105164750D01*
X200624000Y-102271000D02*
X200305250Y-102589750D01*
X196124000Y-102271000D02*
X196442750Y-102589750D01*
D29*
X201774000Y-102271000D02*
X200624000Y-102271000D01*
X201774000Y-106271000D02*
X200486500Y-106271000D01*
D28*
X200486500Y-106271000D02*
X200305250Y-106452250D01*
D29*
X201774000Y-106771000D02*
X200624000Y-106771000D01*
D28*
X200624000Y-106771000D02*
X200305250Y-106452250D01*
D29*
X201774000Y-107271000D02*
X201124000Y-107271000D01*
X201124000Y-107271000D02*
X200305250Y-106452250D01*
D28*
X200624000Y-106771000D02*
X200305250Y-106452250D01*
X194974000Y-105271000D02*
X196336500Y-105271000D01*
D29*
X196124000Y-101121000D02*
X196124000Y-102271000D01*
D27*
X193167000Y-103124000D02*
X192024000Y-103124000D01*
X192553500Y-105410000D02*
X191706500Y-105410000D01*
X205047000Y-98234500D02*
X205047000Y-98049500D01*
X205047000Y-98049500D02*
X204533500Y-97536000D01*
X204533500Y-97536000D02*
X204216000Y-97536000D01*
D25*
X195199000Y-109876500D02*
X196151500Y-109876500D01*
X196151500Y-109876500D02*
X196168100Y-109893100D01*
X196168100Y-109893100D02*
X197307200Y-109893100D01*
X196151500Y-109940000D02*
X196173000Y-109918500D01*
X197281800Y-109918500D02*
X197307200Y-109893100D01*
D27*
X193929000Y-108966000D02*
X194749000Y-108966000D01*
D29*
X201124000Y-107921000D02*
X202409000Y-107921000D01*
D28*
X202409000Y-107921000D02*
X202438000Y-107950000D01*
D27*
X204216000Y-97536000D02*
X203396000Y-97536000D01*
X197307200Y-109893100D02*
X197764400Y-109893100D01*
X197764400Y-109893100D02*
X197802500Y-109855000D01*
X192844000Y-99504500D02*
X192844000Y-98811500D01*
X202634000Y-96774000D02*
X203396000Y-97536000D01*
X194881500Y-96774000D02*
X202634000Y-96774000D01*
X192844000Y-98811500D02*
X194881500Y-96774000D01*
D28*
X193929000Y-106807000D02*
X193929000Y-106870500D01*
D29*
X194974000Y-105771000D02*
X194393500Y-105771000D01*
D28*
X194393500Y-105771000D02*
X193929000Y-106235500D01*
X193929000Y-106235500D02*
X193929000Y-106807000D01*
X193929000Y-106870500D02*
X193675000Y-107124500D01*
D27*
X197307200Y-109893100D02*
X197307200Y-110134400D01*
X192844000Y-99504500D02*
X192844000Y-100399000D01*
X192844000Y-100399000D02*
X192786000Y-100457000D01*
D26*
X196405500Y-100139500D02*
X196342000Y-100203000D01*
X196342000Y-100203000D02*
X195685500Y-100203000D01*
D27*
X203396000Y-98552000D02*
X203396000Y-97536000D01*
D28*
X201774000Y-101771000D02*
X202482000Y-101771000D01*
X202482000Y-101771000D02*
X202565000Y-101854000D01*
D29*
X195624000Y-101121000D02*
X194974000Y-101121000D01*
X194974000Y-101771000D02*
X194974000Y-101121000D01*
D27*
X191960500Y-106489500D02*
X191770000Y-106680000D01*
X191960500Y-106489500D02*
X192463000Y-106489500D01*
D28*
X192214500Y-107124500D02*
X191770000Y-106680000D01*
X193675000Y-107124500D02*
X192214500Y-107124500D01*
D27*
X193357500Y-106489500D02*
X192786000Y-105918000D01*
X192786000Y-105918000D02*
X192024000Y-105918000D01*
X192024000Y-105918000D02*
X191897000Y-106045000D01*
X191897000Y-106045000D02*
X191135000Y-106045000D01*
X193363000Y-106489500D02*
X193363000Y-105700500D01*
X193363000Y-105700500D02*
X193653500Y-105410000D01*
X193363000Y-106489500D02*
X193357500Y-106489500D01*
X194974000Y-104771000D02*
X194631500Y-104771000D01*
X194631500Y-104771000D02*
X193992500Y-105410000D01*
X193992500Y-105410000D02*
X193653500Y-105410000D01*
D28*
X200237000Y-108839000D02*
X200237000Y-108670000D01*
X200237000Y-108670000D02*
X200124000Y-108557000D01*
D29*
X200124000Y-108557000D02*
X200124000Y-107921000D01*
D27*
X202496000Y-98552000D02*
X201663300Y-98552000D01*
X201663300Y-98552000D02*
X201536300Y-98679000D01*
X196624000Y-100746500D02*
X196977000Y-100393500D01*
X197421500Y-99123500D02*
X197866000Y-98679000D01*
X200037700Y-98679000D02*
X197866000Y-98679000D01*
X196624000Y-100746500D02*
X196624000Y-101121000D01*
X197040500Y-99504500D02*
X197421500Y-99123500D01*
X197040500Y-100330000D02*
X197040500Y-99504500D01*
X196977000Y-100393500D02*
X197040500Y-100330000D01*
X204978000Y-101605500D02*
X204978000Y-109728000D01*
X204978000Y-109728000D02*
X204089000Y-110617000D01*
X194437000Y-112718000D02*
X194437000Y-114173000D01*
X196850000Y-114300000D02*
X196850000Y-113982500D01*
X196850000Y-113982500D02*
X196151500Y-113284000D01*
X196151500Y-113284000D02*
X196151500Y-112718000D01*
X204470000Y-112718000D02*
X204470000Y-114300000D01*
X201774000Y-105271000D02*
X202997500Y-105271000D01*
X202997500Y-105271000D02*
X203009500Y-105283000D01*
X193744000Y-99504500D02*
X194246500Y-99504500D01*
X194246500Y-99504500D02*
X194437000Y-99314000D01*
X198124000Y-100397500D02*
X197993000Y-100266500D01*
X198124000Y-101121000D02*
X198124000Y-100397500D01*
X202819000Y-106108500D02*
X202501500Y-105791000D01*
X201794000Y-105791000D02*
X202501500Y-105791000D01*
X201794000Y-105791000D02*
X201774000Y-105771000D01*
X196342000Y-108966000D02*
X195649000Y-108966000D01*
X196342000Y-108966000D02*
X196532500Y-108966000D01*
X196532500Y-108966000D02*
X197124000Y-108374500D01*
X197124000Y-108374500D02*
X197124000Y-107921000D01*
X199124000Y-101121000D02*
X199124000Y-100405500D01*
X199124000Y-100405500D02*
X199580500Y-99949000D01*
X202124500Y-104771000D02*
X202569000Y-104771000D01*
X202124500Y-104771000D02*
X201774000Y-104771000D01*
X202569000Y-104771000D02*
X203327000Y-104013000D01*
X204147000Y-99187000D02*
X204147000Y-98234500D01*
X204083500Y-99187000D02*
X203276198Y-99187000D01*
X203276198Y-99187000D02*
X203149198Y-99314000D01*
X203149198Y-99314000D02*
X199529698Y-99314000D01*
X199529698Y-99314000D02*
X199199500Y-98983802D01*
X199199500Y-98983802D02*
X197992254Y-98983802D01*
X197992254Y-98983802D02*
X197358000Y-99618056D01*
X197358000Y-99618056D02*
X197358000Y-100520500D01*
X197358000Y-100520500D02*
X197624000Y-100786500D01*
X197624000Y-100786500D02*
X197624000Y-101121000D01*
X199707500Y-109474000D02*
X199707500Y-109728000D01*
X199834500Y-109855000D02*
X200210000Y-109855000D01*
X199707500Y-109728000D02*
X199834500Y-109855000D01*
X199124000Y-107921000D02*
X199124000Y-108446000D01*
X199707500Y-109029500D02*
X199707500Y-109474000D01*
X199707500Y-109474000D02*
X199707500Y-109479500D01*
X199124000Y-108446000D02*
X199707500Y-109029500D01*
X199624000Y-101121000D02*
X199624000Y-100731000D01*
X203980198Y-99758500D02*
X204927198Y-100705500D01*
X200596500Y-99758500D02*
X203980198Y-99758500D01*
X199624000Y-100731000D02*
X200596500Y-99758500D01*
X204927198Y-100705500D02*
X204978000Y-100705500D01*
X193998000Y-111818000D02*
X193934500Y-111818000D01*
X194500500Y-111818000D02*
X193998000Y-111818000D01*
X193934500Y-111818000D02*
X193611500Y-112141000D01*
X203263500Y-100520500D02*
X203263127Y-100520873D01*
X203263127Y-100520873D02*
X203263127Y-100520127D01*
X202791000Y-102771000D02*
X201774000Y-102771000D01*
D28*
X202791000Y-102771000D02*
X202946000Y-102616000D01*
D27*
X200124000Y-100739000D02*
X200787000Y-100076000D01*
X200124000Y-101121000D02*
X200124000Y-100739000D01*
X202819000Y-100076000D02*
X203263127Y-100520127D01*
X200787000Y-100076000D02*
X202819000Y-100076000D01*
X203263500Y-100520500D02*
X203454000Y-100711000D01*
X203454000Y-100711000D02*
X204089000Y-100711000D01*
X195453000Y-112141000D02*
X195453000Y-112331500D01*
X195453000Y-112141000D02*
X195776000Y-111818000D01*
X196278500Y-111818000D02*
X195776000Y-111818000D01*
X203339698Y-101028500D02*
X203339698Y-101041198D01*
X203898500Y-101600000D02*
X204152500Y-101600000D01*
X203339698Y-101041198D02*
X203898500Y-101600000D01*
X200624000Y-100683500D02*
X200624000Y-101121000D01*
X200926698Y-100380802D02*
X200624000Y-100683500D01*
X202692000Y-100380802D02*
X200926698Y-100380802D01*
X203339698Y-101028500D02*
X202692000Y-100380802D01*
X195453000Y-112331500D02*
X195262500Y-112522000D01*
X203517500Y-107950000D02*
X203644500Y-107823000D01*
X203644500Y-107823000D02*
X203644500Y-106426000D01*
X197624000Y-107921000D02*
X197624000Y-108470000D01*
X197624000Y-108470000D02*
X198310500Y-109156500D01*
X202628500Y-108839000D02*
X203517500Y-107950000D01*
X203581000Y-101854000D02*
X203581000Y-103378000D01*
X202819000Y-101092000D02*
X203581000Y-101854000D01*
X203962000Y-104521000D02*
X203644500Y-104838500D01*
X203644500Y-104838500D02*
X203644500Y-106426000D01*
D28*
X202091500Y-101121000D02*
X202120500Y-101092000D01*
D27*
X201124000Y-101121000D02*
X202091500Y-101121000D01*
X202120500Y-101092000D02*
X202819000Y-101092000D01*
X203962000Y-103759000D02*
X203962000Y-104521000D01*
X203581000Y-103378000D02*
X203962000Y-103759000D01*
X201612500Y-109855000D02*
X201612500Y-110617000D01*
X202628500Y-108839000D02*
X201612500Y-109855000D01*
X202813500Y-111818000D02*
X204470000Y-111818000D01*
X201612500Y-110617000D02*
X202813500Y-111818000D01*
X194974000Y-103771000D02*
X194449000Y-103771000D01*
X194126000Y-101924000D02*
X193167000Y-101924000D01*
X194310000Y-102108000D02*
X194126000Y-101924000D01*
X194310000Y-103632000D02*
X194310000Y-102108000D01*
X194449000Y-103771000D02*
X194310000Y-103632000D01*
X194974000Y-104271000D02*
X193220000Y-104271000D01*
X193220000Y-104271000D02*
X193167000Y-104324000D01*
X202496000Y-97536000D02*
X201536300Y-97536000D01*
X201774000Y-104271000D02*
X202116500Y-104271000D01*
X202116500Y-104271000D02*
X202692000Y-103695500D01*
X202692000Y-103695500D02*
X202692000Y-103441500D01*
M02*
