G04 #@! TF.FileFunction,Copper,L4,Bot,Signal*
%FSLAX46Y46*%
G04 Gerber Fmt 4.6, Leading zero omitted, Abs format (unit mm)*
G04 Created by KiCad (PCBNEW 4.0.2-stable) date 4/26/2016 9:50:36 PM*
%MOMM*%
G01*
G04 APERTURE LIST*
%ADD10C,0.100000*%
%ADD11R,0.700000X2.000000*%
%ADD12R,1.000000X2.600000*%
%ADD13R,1.500000X2.600000*%
%ADD14R,2.700000X1.400000*%
%ADD15R,1.200000X1.200000*%
%ADD16C,0.685800*%
%ADD17R,1.727200X2.032000*%
%ADD18O,1.727200X2.032000*%
%ADD19C,0.254000*%
%ADD20C,0.152400*%
%ADD21C,0.381000*%
%ADD22C,0.155000*%
G04 APERTURE END LIST*
D10*
D11*
X193404500Y-97788500D03*
X194504500Y-97788500D03*
X195604500Y-97788500D03*
X196704500Y-97788500D03*
X197804500Y-97788500D03*
X198904500Y-97788500D03*
X200004500Y-97788500D03*
X201104500Y-97788500D03*
D12*
X191304500Y-98288500D03*
D13*
X204654500Y-98288500D03*
D14*
X194804500Y-110488500D03*
X199704500Y-110488500D03*
D15*
X202754500Y-110588500D03*
D16*
X191579500Y-108839000D03*
X202692000Y-103441500D03*
D17*
X191770000Y-114300000D03*
D18*
X194310000Y-114300000D03*
X196850000Y-114300000D03*
X199390000Y-114300000D03*
X201930000Y-114300000D03*
X204470000Y-114300000D03*
D17*
X191770000Y-111760000D03*
D16*
X204660500Y-96964500D03*
X203073000Y-109410500D03*
X197739000Y-111061500D03*
X192278000Y-97282000D03*
X192278000Y-98615500D03*
X195580000Y-99314000D03*
X200305250Y-105164750D03*
X196442750Y-105164750D03*
X200305250Y-102589750D03*
X196442750Y-102589750D03*
X192024000Y-103124000D03*
X191706500Y-105410000D03*
X193929000Y-108966000D03*
X202438000Y-107950000D03*
X197802500Y-109855000D03*
X192786000Y-100457000D03*
X196405500Y-100139500D03*
X202565000Y-101854000D03*
X194945000Y-101092000D03*
X191770000Y-106680000D03*
X191135000Y-106045000D03*
X204089000Y-110617000D03*
X203009500Y-105283000D03*
X194437000Y-99314000D03*
X197993000Y-100266500D03*
X202819000Y-106108500D03*
X196342000Y-108966000D03*
X199580500Y-99949000D03*
X203327000Y-104013000D03*
X193611500Y-112141000D03*
X202946000Y-102616000D03*
X204089000Y-100711000D03*
X204152500Y-101600000D03*
X195262500Y-112522000D03*
X198310500Y-109156500D03*
X202120500Y-101092000D03*
X201612500Y-110617000D03*
D19*
X204654500Y-96970500D02*
X204660500Y-96964500D01*
X204654500Y-98288500D02*
X204654500Y-96970500D01*
X191304500Y-98288500D02*
X191304500Y-98912000D01*
X191304500Y-98912000D02*
X191833500Y-99441000D01*
X191833500Y-99441000D02*
X192595500Y-99441000D01*
D20*
X194804500Y-110488500D02*
X192911500Y-110488500D01*
X191643000Y-109220000D02*
X191643000Y-108585000D01*
X192911500Y-110488500D02*
X191643000Y-109220000D01*
X191304500Y-98288500D02*
X191304500Y-98827000D01*
X191304500Y-98827000D02*
X190817500Y-99314000D01*
X190817500Y-99314000D02*
X190817500Y-100330000D01*
X202754500Y-110588500D02*
X202754500Y-109729000D01*
X202754500Y-109729000D02*
X203073000Y-109410500D01*
D19*
X199704500Y-110488500D02*
X194804500Y-110488500D01*
X197739000Y-111061500D02*
X197739000Y-111379000D01*
X199704500Y-111318500D02*
X199704500Y-110488500D01*
X199263000Y-111760000D02*
X199704500Y-111318500D01*
X198120000Y-111760000D02*
X199263000Y-111760000D01*
X197739000Y-111379000D02*
X198120000Y-111760000D01*
X204654500Y-98288500D02*
X204606500Y-98288500D01*
X204606500Y-98288500D02*
X203835000Y-99060000D01*
X203835000Y-99060000D02*
X203136500Y-99060000D01*
X204654500Y-98288500D02*
X204524000Y-98288500D01*
X204524000Y-98288500D02*
X203898500Y-97663000D01*
X203898500Y-97663000D02*
X203073000Y-97663000D01*
X191304500Y-98288500D02*
X191304500Y-98001500D01*
X191304500Y-98001500D02*
X192024000Y-97282000D01*
X192024000Y-97282000D02*
X192278000Y-97282000D01*
X191304500Y-98288500D02*
X191316000Y-98288500D01*
X191316000Y-98288500D02*
X191643000Y-98615500D01*
X191643000Y-98615500D02*
X192278000Y-98615500D01*
X191304500Y-98288500D02*
X191652500Y-98288500D01*
D21*
X195604500Y-99289500D02*
X195580000Y-99314000D01*
X195604500Y-97788500D02*
X195604500Y-99289500D01*
D19*
X200279000Y-105156000D02*
X200296500Y-105156000D01*
X200296500Y-105156000D02*
X200305250Y-105164750D01*
X196434000Y-105156000D02*
X196342000Y-105156000D01*
X196442750Y-105164750D02*
X196434000Y-105156000D01*
X200305250Y-102589750D02*
X200279000Y-102616000D01*
X196416500Y-102616000D02*
X196342000Y-102616000D01*
X196442750Y-102589750D02*
X196416500Y-102616000D01*
D21*
X197804500Y-97788500D02*
X197804500Y-98740500D01*
X197804500Y-98740500D02*
X196405500Y-100139500D01*
D20*
X190754000Y-110744000D02*
X191770000Y-111760000D01*
X190754000Y-106426000D02*
X190754000Y-110744000D01*
X191135000Y-106045000D02*
X190754000Y-106426000D01*
X192024000Y-111506000D02*
X191770000Y-111760000D01*
X192976500Y-113093500D02*
X191770000Y-114300000D01*
X193230500Y-111506000D02*
X192976500Y-111760000D01*
X192976500Y-111760000D02*
X192976500Y-113093500D01*
X193230500Y-111506000D02*
X193421000Y-111506000D01*
X195580000Y-111506000D02*
X193230500Y-111506000D01*
X196240396Y-112166396D02*
X195580000Y-111506000D01*
X203682604Y-112166396D02*
X196240396Y-112166396D01*
X204089000Y-111760000D02*
X203682604Y-112166396D01*
X204089000Y-110617000D02*
X204089000Y-111760000D01*
X203422250Y-105695750D02*
X203422250Y-106394250D01*
X203009500Y-105283000D02*
X203422250Y-105695750D01*
X193404500Y-101456500D02*
X193404500Y-97788500D01*
X196342000Y-104394000D02*
X193404500Y-101456500D01*
X200406000Y-104394000D02*
X196342000Y-104394000D01*
X201803000Y-105791000D02*
X200406000Y-104394000D01*
X201803000Y-106045000D02*
X201803000Y-105791000D01*
X202501500Y-106743500D02*
X201803000Y-106045000D01*
X203073000Y-106743500D02*
X202501500Y-106743500D01*
X203422250Y-106394250D02*
X203073000Y-106743500D01*
X194504500Y-97788500D02*
X194504500Y-99246500D01*
X194504500Y-99246500D02*
X193802000Y-99949000D01*
X197802500Y-100457000D02*
X197802500Y-101473000D01*
X197993000Y-100266500D02*
X197802500Y-100457000D01*
X197802500Y-101473000D02*
X197421500Y-101854000D01*
X197421500Y-101854000D02*
X194754500Y-101854000D01*
X194754500Y-101854000D02*
X193802000Y-100901500D01*
X193802000Y-100901500D02*
X193802000Y-99949000D01*
X198628000Y-101917500D02*
X198628000Y-100076000D01*
X198183500Y-99631500D02*
X198628000Y-100076000D01*
X196596000Y-100774500D02*
X197739000Y-99631500D01*
X196215000Y-100774500D02*
X196596000Y-100774500D01*
X195770500Y-100330000D02*
X196215000Y-100774500D01*
X195770500Y-99949000D02*
X195770500Y-100330000D01*
X196704500Y-99015000D02*
X195770500Y-99949000D01*
X196704500Y-99015000D02*
X196704500Y-97788500D01*
X198183500Y-99631500D02*
X197739000Y-99631500D01*
X198882000Y-102171500D02*
X198628000Y-101917500D01*
X202247500Y-105537000D02*
X201104500Y-104394000D01*
X202247500Y-105537000D02*
X202819000Y-106108500D01*
X198882000Y-102171500D02*
X198628000Y-101917500D01*
X201104500Y-104394000D02*
X198882000Y-102171500D01*
X203377800Y-107124500D02*
X203390500Y-107124500D01*
X203377800Y-108229400D02*
X203377800Y-107124500D01*
X202565000Y-109042200D02*
X203377800Y-108229400D01*
X201828400Y-109042200D02*
X202565000Y-109042200D01*
X201333100Y-108546900D02*
X201828400Y-109042200D01*
X203390500Y-107124500D02*
X203771500Y-106743500D01*
X202374500Y-104648000D02*
X203263500Y-104648000D01*
X203771500Y-105156000D02*
X203263500Y-104648000D01*
X203771500Y-105156000D02*
X203771500Y-106743500D01*
X198945500Y-100203000D02*
X198945500Y-100266500D01*
X198945500Y-100266500D02*
X200914000Y-102235000D01*
X200914000Y-102235000D02*
X200914000Y-103187500D01*
X200914000Y-103187500D02*
X202374500Y-104648000D01*
X198945500Y-98806000D02*
X198904500Y-98765000D01*
X198945500Y-98806000D02*
X198945500Y-100203000D01*
X201295000Y-108546900D02*
X201333100Y-108546900D01*
X197827900Y-108546900D02*
X201295000Y-108546900D01*
X201295000Y-108546900D02*
X201333100Y-108546900D01*
X196342000Y-108966000D02*
X197408800Y-108966000D01*
X197408800Y-108966000D02*
X197827900Y-108546900D01*
X198904500Y-97788500D02*
X198904500Y-98765000D01*
X200004500Y-99525000D02*
X200004500Y-97788500D01*
X199580500Y-99949000D02*
X200004500Y-99525000D01*
X201104500Y-97788500D02*
X201104500Y-101790500D01*
X201422000Y-102108000D02*
X201104500Y-101790500D01*
X201422000Y-103060500D02*
X201422000Y-102108000D01*
X202438000Y-104076500D02*
X201422000Y-103060500D01*
X203263500Y-104076500D02*
X202438000Y-104076500D01*
X203327000Y-104013000D02*
X203263500Y-104076500D01*
X204279500Y-104190056D02*
X204279500Y-105600500D01*
X204279500Y-105600500D02*
X204851000Y-106172000D01*
X204089000Y-103568500D02*
X204279500Y-103759000D01*
X204279500Y-103759000D02*
X204279500Y-104190056D01*
X204851000Y-106172000D02*
X204851000Y-112281444D01*
X204851000Y-112281444D02*
X204661246Y-112471198D01*
X204661246Y-112471198D02*
X196100698Y-112471198D01*
X196100698Y-112471198D02*
X195516500Y-111887000D01*
X204089000Y-103568500D02*
X204089000Y-102679500D01*
X195516500Y-111887000D02*
X193929000Y-111887000D01*
X193865500Y-111887000D02*
X193929000Y-111887000D01*
X193611500Y-112141000D02*
X193865500Y-111887000D01*
X203549250Y-101854000D02*
X203581000Y-101854000D01*
X204089000Y-102362000D02*
X204089000Y-102679500D01*
X203581000Y-101854000D02*
X204089000Y-102362000D01*
X203549250Y-101314250D02*
X203549250Y-101854000D01*
X204089000Y-102679500D02*
X203009500Y-102679500D01*
X203009500Y-102679500D02*
X202946000Y-102616000D01*
X204089000Y-100711000D02*
X204089000Y-100774500D01*
X204089000Y-100774500D02*
X203549250Y-101314250D01*
X204597000Y-104076500D02*
X204597000Y-105410000D01*
X204597000Y-105410000D02*
X205168500Y-105981500D01*
X204406500Y-103378000D02*
X204406500Y-101854000D01*
X204406500Y-103441500D02*
X204597000Y-103632000D01*
X204406500Y-103378000D02*
X204406500Y-103441500D01*
X205168500Y-112395000D02*
X204787500Y-112776000D01*
X205168500Y-105981500D02*
X205168500Y-112395000D01*
X204597000Y-103632000D02*
X204597000Y-104076500D01*
X204406500Y-101854000D02*
X204152500Y-101600000D01*
X195516500Y-112776000D02*
X204787500Y-112776000D01*
X195262500Y-112522000D02*
X195516500Y-112776000D01*
X198501000Y-108966000D02*
X198564500Y-108966000D01*
X198310500Y-109156500D02*
X198501000Y-108966000D01*
X201612500Y-109918500D02*
X201612500Y-110617000D01*
X200660000Y-108966000D02*
X201612500Y-109918500D01*
X198247000Y-108966000D02*
X198564500Y-108966000D01*
X198564500Y-108966000D02*
X200660000Y-108966000D01*
D22*
G36*
X192817446Y-98788500D02*
X192833658Y-98874659D01*
X192884578Y-98953791D01*
X192962273Y-99006877D01*
X193054500Y-99025554D01*
X193095800Y-99025554D01*
X193095800Y-99962606D01*
X192900956Y-99881700D01*
X192672048Y-99881500D01*
X192460488Y-99968915D01*
X192298484Y-100130636D01*
X192210700Y-100342044D01*
X192210500Y-100570952D01*
X192297915Y-100782512D01*
X192459636Y-100944516D01*
X192671044Y-101032300D01*
X192899952Y-101032500D01*
X193095800Y-100951577D01*
X193095800Y-101456500D01*
X193119298Y-101574635D01*
X193186216Y-101674784D01*
X196123716Y-104612284D01*
X196223866Y-104679202D01*
X196342000Y-104702700D01*
X200278132Y-104702700D01*
X201161932Y-105586500D01*
X192659000Y-105586500D01*
X192628848Y-105592606D01*
X192603447Y-105609962D01*
X192586800Y-105635832D01*
X192581500Y-105664000D01*
X192581500Y-108458000D01*
X192587606Y-108488152D01*
X192604962Y-108513553D01*
X192630832Y-108530200D01*
X192659000Y-108535500D01*
X193545802Y-108535500D01*
X193441484Y-108639636D01*
X193353700Y-108851044D01*
X193353500Y-109079952D01*
X193404343Y-109203000D01*
X193338037Y-109203000D01*
X193122841Y-109292137D01*
X192958137Y-109456841D01*
X192869000Y-109672037D01*
X192869000Y-110165625D01*
X193015375Y-110312000D01*
X194628000Y-110312000D01*
X194628000Y-109349375D01*
X194481625Y-109203000D01*
X194453623Y-109203000D01*
X194504300Y-109080956D01*
X194504500Y-108852048D01*
X194417085Y-108640488D01*
X194312280Y-108535500D01*
X195958802Y-108535500D01*
X195854484Y-108639636D01*
X195766700Y-108851044D01*
X195766500Y-109079952D01*
X195817343Y-109203000D01*
X195127375Y-109203000D01*
X194981000Y-109349375D01*
X194981000Y-110312000D01*
X196593625Y-110312000D01*
X196740000Y-110165625D01*
X196740000Y-109672037D01*
X196652321Y-109460362D01*
X196667512Y-109454085D01*
X196829516Y-109292364D01*
X196836851Y-109274700D01*
X197408800Y-109274700D01*
X197526935Y-109251202D01*
X197627084Y-109184284D01*
X197735170Y-109076198D01*
X197735000Y-109270452D01*
X197738757Y-109279544D01*
X197688548Y-109279500D01*
X197476988Y-109366915D01*
X197314984Y-109528636D01*
X197227200Y-109740044D01*
X197227000Y-109968952D01*
X197314415Y-110180512D01*
X197476136Y-110342516D01*
X197687544Y-110430300D01*
X197916452Y-110430500D01*
X198128012Y-110343085D01*
X198159151Y-110312000D01*
X199528000Y-110312000D01*
X199528000Y-110292000D01*
X199881000Y-110292000D01*
X199881000Y-110312000D01*
X199901000Y-110312000D01*
X199901000Y-110665000D01*
X199881000Y-110665000D01*
X199881000Y-111627625D01*
X200027375Y-111774000D01*
X201170963Y-111774000D01*
X201386159Y-111684863D01*
X201550863Y-111520159D01*
X201604500Y-111390668D01*
X201658137Y-111520159D01*
X201822841Y-111684863D01*
X202038037Y-111774000D01*
X202431625Y-111774000D01*
X202578000Y-111627625D01*
X202578000Y-110765000D01*
X202558000Y-110765000D01*
X202558000Y-110412000D01*
X202578000Y-110412000D01*
X202578000Y-109549375D01*
X202431625Y-109403000D01*
X202038037Y-109403000D01*
X201822841Y-109492137D01*
X201722773Y-109592205D01*
X200986168Y-108855600D01*
X201205232Y-108855600D01*
X201610116Y-109260484D01*
X201710265Y-109327402D01*
X201828400Y-109350900D01*
X202565000Y-109350900D01*
X202683135Y-109327402D01*
X202783284Y-109260484D01*
X203596084Y-108447684D01*
X203663002Y-108347535D01*
X203686500Y-108229400D01*
X203686500Y-107265068D01*
X203989784Y-106961784D01*
X204056701Y-106861635D01*
X204056702Y-106861634D01*
X204080200Y-106743500D01*
X204080200Y-105837768D01*
X204542300Y-106299868D01*
X204542300Y-110256642D01*
X204415364Y-110129484D01*
X204203956Y-110041700D01*
X203975048Y-110041500D01*
X203940000Y-110055982D01*
X203940000Y-109872037D01*
X203850863Y-109656841D01*
X203686159Y-109492137D01*
X203470963Y-109403000D01*
X203077375Y-109403000D01*
X202931000Y-109549375D01*
X202931000Y-110412000D01*
X202951000Y-110412000D01*
X202951000Y-110765000D01*
X202931000Y-110765000D01*
X202931000Y-111627625D01*
X203077375Y-111774000D01*
X203470963Y-111774000D01*
X203686159Y-111684863D01*
X203780300Y-111590722D01*
X203780300Y-111632132D01*
X203554736Y-111857696D01*
X196368264Y-111857696D01*
X196280583Y-111770015D01*
X196486159Y-111684863D01*
X196650863Y-111520159D01*
X196740000Y-111304963D01*
X196740000Y-110811375D01*
X197769000Y-110811375D01*
X197769000Y-111304963D01*
X197858137Y-111520159D01*
X198022841Y-111684863D01*
X198238037Y-111774000D01*
X199381625Y-111774000D01*
X199528000Y-111627625D01*
X199528000Y-110665000D01*
X197915375Y-110665000D01*
X197769000Y-110811375D01*
X196740000Y-110811375D01*
X196593625Y-110665000D01*
X194981000Y-110665000D01*
X194981000Y-110685000D01*
X194628000Y-110685000D01*
X194628000Y-110665000D01*
X193015375Y-110665000D01*
X192870654Y-110809721D01*
X192870654Y-110744000D01*
X192854442Y-110657841D01*
X192803522Y-110578709D01*
X192725827Y-110525623D01*
X192633600Y-110506946D01*
X191062700Y-110506946D01*
X191062700Y-109605411D01*
X191148847Y-109519264D01*
X191171018Y-109692916D01*
X191528891Y-109784235D01*
X191894469Y-109731650D01*
X191987982Y-109692916D01*
X192010962Y-109512929D01*
X191579500Y-109081467D01*
X191561787Y-109099180D01*
X191319320Y-108856713D01*
X191337033Y-108839000D01*
X191821967Y-108839000D01*
X192253429Y-109270462D01*
X192433416Y-109247482D01*
X192524735Y-108889609D01*
X192472150Y-108524031D01*
X192433416Y-108430518D01*
X192253429Y-108407538D01*
X191821967Y-108839000D01*
X191337033Y-108839000D01*
X191319320Y-108821287D01*
X191561787Y-108578820D01*
X191579500Y-108596533D01*
X192010962Y-108165071D01*
X191987982Y-107985084D01*
X191630109Y-107893765D01*
X191264531Y-107946350D01*
X191171018Y-107985084D01*
X191148847Y-108158736D01*
X191062700Y-108072589D01*
X191062700Y-106620337D01*
X191194652Y-106620453D01*
X191194500Y-106793952D01*
X191281915Y-107005512D01*
X191443636Y-107167516D01*
X191655044Y-107255300D01*
X191883952Y-107255500D01*
X192095512Y-107168085D01*
X192257516Y-107006364D01*
X192345300Y-106794956D01*
X192345500Y-106566048D01*
X192258085Y-106354488D01*
X192096364Y-106192484D01*
X191884956Y-106104700D01*
X191710348Y-106104547D01*
X191710500Y-105931048D01*
X191623085Y-105719488D01*
X191461364Y-105557484D01*
X191249956Y-105469700D01*
X191021048Y-105469500D01*
X190809488Y-105556915D01*
X190782500Y-105583856D01*
X190782500Y-100174000D01*
X190803500Y-100174000D01*
X190803500Y-103505000D01*
X190809606Y-103535152D01*
X190826962Y-103560553D01*
X190852832Y-103577200D01*
X190881000Y-103582500D01*
X191770000Y-103582500D01*
X191800152Y-103576394D01*
X191825553Y-103559038D01*
X191842200Y-103533168D01*
X191847500Y-103505000D01*
X191847500Y-100174000D01*
X191920963Y-100174000D01*
X192136159Y-100084863D01*
X192300863Y-99920159D01*
X192390000Y-99704963D01*
X192390000Y-98611375D01*
X192243625Y-98465000D01*
X191481000Y-98465000D01*
X191481000Y-98485000D01*
X191128000Y-98485000D01*
X191128000Y-98465000D01*
X191108000Y-98465000D01*
X191108000Y-98112000D01*
X191128000Y-98112000D01*
X191128000Y-98092000D01*
X191481000Y-98092000D01*
X191481000Y-98112000D01*
X192243625Y-98112000D01*
X192390000Y-97965625D01*
X192390000Y-96872037D01*
X192361197Y-96802500D01*
X192817446Y-96802500D01*
X192817446Y-98788500D01*
X192817446Y-98788500D01*
G37*
X192817446Y-98788500D02*
X192833658Y-98874659D01*
X192884578Y-98953791D01*
X192962273Y-99006877D01*
X193054500Y-99025554D01*
X193095800Y-99025554D01*
X193095800Y-99962606D01*
X192900956Y-99881700D01*
X192672048Y-99881500D01*
X192460488Y-99968915D01*
X192298484Y-100130636D01*
X192210700Y-100342044D01*
X192210500Y-100570952D01*
X192297915Y-100782512D01*
X192459636Y-100944516D01*
X192671044Y-101032300D01*
X192899952Y-101032500D01*
X193095800Y-100951577D01*
X193095800Y-101456500D01*
X193119298Y-101574635D01*
X193186216Y-101674784D01*
X196123716Y-104612284D01*
X196223866Y-104679202D01*
X196342000Y-104702700D01*
X200278132Y-104702700D01*
X201161932Y-105586500D01*
X192659000Y-105586500D01*
X192628848Y-105592606D01*
X192603447Y-105609962D01*
X192586800Y-105635832D01*
X192581500Y-105664000D01*
X192581500Y-108458000D01*
X192587606Y-108488152D01*
X192604962Y-108513553D01*
X192630832Y-108530200D01*
X192659000Y-108535500D01*
X193545802Y-108535500D01*
X193441484Y-108639636D01*
X193353700Y-108851044D01*
X193353500Y-109079952D01*
X193404343Y-109203000D01*
X193338037Y-109203000D01*
X193122841Y-109292137D01*
X192958137Y-109456841D01*
X192869000Y-109672037D01*
X192869000Y-110165625D01*
X193015375Y-110312000D01*
X194628000Y-110312000D01*
X194628000Y-109349375D01*
X194481625Y-109203000D01*
X194453623Y-109203000D01*
X194504300Y-109080956D01*
X194504500Y-108852048D01*
X194417085Y-108640488D01*
X194312280Y-108535500D01*
X195958802Y-108535500D01*
X195854484Y-108639636D01*
X195766700Y-108851044D01*
X195766500Y-109079952D01*
X195817343Y-109203000D01*
X195127375Y-109203000D01*
X194981000Y-109349375D01*
X194981000Y-110312000D01*
X196593625Y-110312000D01*
X196740000Y-110165625D01*
X196740000Y-109672037D01*
X196652321Y-109460362D01*
X196667512Y-109454085D01*
X196829516Y-109292364D01*
X196836851Y-109274700D01*
X197408800Y-109274700D01*
X197526935Y-109251202D01*
X197627084Y-109184284D01*
X197735170Y-109076198D01*
X197735000Y-109270452D01*
X197738757Y-109279544D01*
X197688548Y-109279500D01*
X197476988Y-109366915D01*
X197314984Y-109528636D01*
X197227200Y-109740044D01*
X197227000Y-109968952D01*
X197314415Y-110180512D01*
X197476136Y-110342516D01*
X197687544Y-110430300D01*
X197916452Y-110430500D01*
X198128012Y-110343085D01*
X198159151Y-110312000D01*
X199528000Y-110312000D01*
X199528000Y-110292000D01*
X199881000Y-110292000D01*
X199881000Y-110312000D01*
X199901000Y-110312000D01*
X199901000Y-110665000D01*
X199881000Y-110665000D01*
X199881000Y-111627625D01*
X200027375Y-111774000D01*
X201170963Y-111774000D01*
X201386159Y-111684863D01*
X201550863Y-111520159D01*
X201604500Y-111390668D01*
X201658137Y-111520159D01*
X201822841Y-111684863D01*
X202038037Y-111774000D01*
X202431625Y-111774000D01*
X202578000Y-111627625D01*
X202578000Y-110765000D01*
X202558000Y-110765000D01*
X202558000Y-110412000D01*
X202578000Y-110412000D01*
X202578000Y-109549375D01*
X202431625Y-109403000D01*
X202038037Y-109403000D01*
X201822841Y-109492137D01*
X201722773Y-109592205D01*
X200986168Y-108855600D01*
X201205232Y-108855600D01*
X201610116Y-109260484D01*
X201710265Y-109327402D01*
X201828400Y-109350900D01*
X202565000Y-109350900D01*
X202683135Y-109327402D01*
X202783284Y-109260484D01*
X203596084Y-108447684D01*
X203663002Y-108347535D01*
X203686500Y-108229400D01*
X203686500Y-107265068D01*
X203989784Y-106961784D01*
X204056701Y-106861635D01*
X204056702Y-106861634D01*
X204080200Y-106743500D01*
X204080200Y-105837768D01*
X204542300Y-106299868D01*
X204542300Y-110256642D01*
X204415364Y-110129484D01*
X204203956Y-110041700D01*
X203975048Y-110041500D01*
X203940000Y-110055982D01*
X203940000Y-109872037D01*
X203850863Y-109656841D01*
X203686159Y-109492137D01*
X203470963Y-109403000D01*
X203077375Y-109403000D01*
X202931000Y-109549375D01*
X202931000Y-110412000D01*
X202951000Y-110412000D01*
X202951000Y-110765000D01*
X202931000Y-110765000D01*
X202931000Y-111627625D01*
X203077375Y-111774000D01*
X203470963Y-111774000D01*
X203686159Y-111684863D01*
X203780300Y-111590722D01*
X203780300Y-111632132D01*
X203554736Y-111857696D01*
X196368264Y-111857696D01*
X196280583Y-111770015D01*
X196486159Y-111684863D01*
X196650863Y-111520159D01*
X196740000Y-111304963D01*
X196740000Y-110811375D01*
X197769000Y-110811375D01*
X197769000Y-111304963D01*
X197858137Y-111520159D01*
X198022841Y-111684863D01*
X198238037Y-111774000D01*
X199381625Y-111774000D01*
X199528000Y-111627625D01*
X199528000Y-110665000D01*
X197915375Y-110665000D01*
X197769000Y-110811375D01*
X196740000Y-110811375D01*
X196593625Y-110665000D01*
X194981000Y-110665000D01*
X194981000Y-110685000D01*
X194628000Y-110685000D01*
X194628000Y-110665000D01*
X193015375Y-110665000D01*
X192870654Y-110809721D01*
X192870654Y-110744000D01*
X192854442Y-110657841D01*
X192803522Y-110578709D01*
X192725827Y-110525623D01*
X192633600Y-110506946D01*
X191062700Y-110506946D01*
X191062700Y-109605411D01*
X191148847Y-109519264D01*
X191171018Y-109692916D01*
X191528891Y-109784235D01*
X191894469Y-109731650D01*
X191987982Y-109692916D01*
X192010962Y-109512929D01*
X191579500Y-109081467D01*
X191561787Y-109099180D01*
X191319320Y-108856713D01*
X191337033Y-108839000D01*
X191821967Y-108839000D01*
X192253429Y-109270462D01*
X192433416Y-109247482D01*
X192524735Y-108889609D01*
X192472150Y-108524031D01*
X192433416Y-108430518D01*
X192253429Y-108407538D01*
X191821967Y-108839000D01*
X191337033Y-108839000D01*
X191319320Y-108821287D01*
X191561787Y-108578820D01*
X191579500Y-108596533D01*
X192010962Y-108165071D01*
X191987982Y-107985084D01*
X191630109Y-107893765D01*
X191264531Y-107946350D01*
X191171018Y-107985084D01*
X191148847Y-108158736D01*
X191062700Y-108072589D01*
X191062700Y-106620337D01*
X191194652Y-106620453D01*
X191194500Y-106793952D01*
X191281915Y-107005512D01*
X191443636Y-107167516D01*
X191655044Y-107255300D01*
X191883952Y-107255500D01*
X192095512Y-107168085D01*
X192257516Y-107006364D01*
X192345300Y-106794956D01*
X192345500Y-106566048D01*
X192258085Y-106354488D01*
X192096364Y-106192484D01*
X191884956Y-106104700D01*
X191710348Y-106104547D01*
X191710500Y-105931048D01*
X191623085Y-105719488D01*
X191461364Y-105557484D01*
X191249956Y-105469700D01*
X191021048Y-105469500D01*
X190809488Y-105556915D01*
X190782500Y-105583856D01*
X190782500Y-100174000D01*
X190803500Y-100174000D01*
X190803500Y-103505000D01*
X190809606Y-103535152D01*
X190826962Y-103560553D01*
X190852832Y-103577200D01*
X190881000Y-103582500D01*
X191770000Y-103582500D01*
X191800152Y-103576394D01*
X191825553Y-103559038D01*
X191842200Y-103533168D01*
X191847500Y-103505000D01*
X191847500Y-100174000D01*
X191920963Y-100174000D01*
X192136159Y-100084863D01*
X192300863Y-99920159D01*
X192390000Y-99704963D01*
X192390000Y-98611375D01*
X192243625Y-98465000D01*
X191481000Y-98465000D01*
X191481000Y-98485000D01*
X191128000Y-98485000D01*
X191128000Y-98465000D01*
X191108000Y-98465000D01*
X191108000Y-98112000D01*
X191128000Y-98112000D01*
X191128000Y-98092000D01*
X191481000Y-98092000D01*
X191481000Y-98112000D01*
X192243625Y-98112000D01*
X192390000Y-97965625D01*
X192390000Y-96872037D01*
X192361197Y-96802500D01*
X192817446Y-96802500D01*
X192817446Y-98788500D01*
G36*
X200605300Y-102362868D02*
X200605300Y-103187500D01*
X200628798Y-103305635D01*
X200695716Y-103405784D01*
X202156216Y-104866284D01*
X202256365Y-104933202D01*
X202374500Y-104956700D01*
X202521957Y-104956700D01*
X202434200Y-105168044D01*
X202434096Y-105287028D01*
X198936700Y-101789632D01*
X198936700Y-100694268D01*
X200605300Y-102362868D01*
X200605300Y-102362868D01*
G37*
X200605300Y-102362868D02*
X200605300Y-103187500D01*
X200628798Y-103305635D01*
X200695716Y-103405784D01*
X202156216Y-104866284D01*
X202256365Y-104933202D01*
X202374500Y-104956700D01*
X202521957Y-104956700D01*
X202434200Y-105168044D01*
X202434096Y-105287028D01*
X198936700Y-101789632D01*
X198936700Y-100694268D01*
X200605300Y-102362868D01*
G36*
X198319300Y-101917500D02*
X198342798Y-102035635D01*
X198409716Y-102135784D01*
X200359232Y-104085300D01*
X196469868Y-104085300D01*
X193713200Y-101328632D01*
X193713200Y-101249268D01*
X194536216Y-102072284D01*
X194636366Y-102139202D01*
X194754500Y-102162700D01*
X197421500Y-102162700D01*
X197539635Y-102139202D01*
X197639784Y-102072284D01*
X198020784Y-101691284D01*
X198036676Y-101667500D01*
X198087702Y-101591134D01*
X198111200Y-101473000D01*
X198111200Y-100840245D01*
X198318512Y-100754585D01*
X198319300Y-100753798D01*
X198319300Y-101917500D01*
X198319300Y-101917500D01*
G37*
X198319300Y-101917500D02*
X198342798Y-102035635D01*
X198409716Y-102135784D01*
X200359232Y-104085300D01*
X196469868Y-104085300D01*
X193713200Y-101328632D01*
X193713200Y-101249268D01*
X194536216Y-102072284D01*
X194636366Y-102139202D01*
X194754500Y-102162700D01*
X197421500Y-102162700D01*
X197539635Y-102139202D01*
X197639784Y-102072284D01*
X198020784Y-101691284D01*
X198036676Y-101667500D01*
X198087702Y-101591134D01*
X198111200Y-101473000D01*
X198111200Y-100840245D01*
X198318512Y-100754585D01*
X198319300Y-100753798D01*
X198319300Y-101917500D01*
G36*
X203319000Y-96872037D02*
X203319000Y-97965625D01*
X203465375Y-98112000D01*
X204478000Y-98112000D01*
X204478000Y-98092000D01*
X204831000Y-98092000D01*
X204831000Y-98112000D01*
X204851000Y-98112000D01*
X204851000Y-98465000D01*
X204831000Y-98465000D01*
X204831000Y-98485000D01*
X204478000Y-98485000D01*
X204478000Y-98465000D01*
X203465375Y-98465000D01*
X203319000Y-98611375D01*
X203319000Y-99704963D01*
X203408137Y-99920159D01*
X203572841Y-100084863D01*
X203788037Y-100174000D01*
X203881871Y-100174000D01*
X203763488Y-100222915D01*
X203601484Y-100384636D01*
X203513700Y-100596044D01*
X203513500Y-100824952D01*
X203539370Y-100887562D01*
X203330966Y-101095966D01*
X203264048Y-101196115D01*
X203246070Y-101286500D01*
X203240550Y-101314250D01*
X203240550Y-101854000D01*
X203264048Y-101972134D01*
X203330966Y-102072284D01*
X203426650Y-102136218D01*
X203661232Y-102370800D01*
X203467269Y-102370800D01*
X203434085Y-102290488D01*
X203272364Y-102128484D01*
X203103222Y-102058250D01*
X203140300Y-101968956D01*
X203140500Y-101740048D01*
X203053085Y-101528488D01*
X202891364Y-101366484D01*
X202679956Y-101278700D01*
X202666014Y-101278688D01*
X202695800Y-101206956D01*
X202696000Y-100978048D01*
X202608585Y-100766488D01*
X202446864Y-100604484D01*
X202235456Y-100516700D01*
X202006548Y-100516500D01*
X201794988Y-100603915D01*
X201632984Y-100765636D01*
X201545200Y-100977044D01*
X201545000Y-101205952D01*
X201632415Y-101417512D01*
X201794136Y-101579516D01*
X202005544Y-101667300D01*
X202019486Y-101667312D01*
X201989700Y-101739044D01*
X201989500Y-101967952D01*
X202076915Y-102179512D01*
X202238636Y-102341516D01*
X202407778Y-102411750D01*
X202370700Y-102501044D01*
X202370500Y-102729952D01*
X202448783Y-102919411D01*
X202366488Y-102953415D01*
X202204484Y-103115136D01*
X202119021Y-103320953D01*
X201730700Y-102932632D01*
X201730700Y-102108000D01*
X201707202Y-101989866D01*
X201707202Y-101989865D01*
X201640284Y-101889716D01*
X201413200Y-101662632D01*
X201413200Y-99025554D01*
X201454500Y-99025554D01*
X201540659Y-99009342D01*
X201619791Y-98958422D01*
X201672877Y-98880727D01*
X201691554Y-98788500D01*
X201691554Y-96802500D01*
X203347803Y-96802500D01*
X203319000Y-96872037D01*
X203319000Y-96872037D01*
G37*
X203319000Y-96872037D02*
X203319000Y-97965625D01*
X203465375Y-98112000D01*
X204478000Y-98112000D01*
X204478000Y-98092000D01*
X204831000Y-98092000D01*
X204831000Y-98112000D01*
X204851000Y-98112000D01*
X204851000Y-98465000D01*
X204831000Y-98465000D01*
X204831000Y-98485000D01*
X204478000Y-98485000D01*
X204478000Y-98465000D01*
X203465375Y-98465000D01*
X203319000Y-98611375D01*
X203319000Y-99704963D01*
X203408137Y-99920159D01*
X203572841Y-100084863D01*
X203788037Y-100174000D01*
X203881871Y-100174000D01*
X203763488Y-100222915D01*
X203601484Y-100384636D01*
X203513700Y-100596044D01*
X203513500Y-100824952D01*
X203539370Y-100887562D01*
X203330966Y-101095966D01*
X203264048Y-101196115D01*
X203246070Y-101286500D01*
X203240550Y-101314250D01*
X203240550Y-101854000D01*
X203264048Y-101972134D01*
X203330966Y-102072284D01*
X203426650Y-102136218D01*
X203661232Y-102370800D01*
X203467269Y-102370800D01*
X203434085Y-102290488D01*
X203272364Y-102128484D01*
X203103222Y-102058250D01*
X203140300Y-101968956D01*
X203140500Y-101740048D01*
X203053085Y-101528488D01*
X202891364Y-101366484D01*
X202679956Y-101278700D01*
X202666014Y-101278688D01*
X202695800Y-101206956D01*
X202696000Y-100978048D01*
X202608585Y-100766488D01*
X202446864Y-100604484D01*
X202235456Y-100516700D01*
X202006548Y-100516500D01*
X201794988Y-100603915D01*
X201632984Y-100765636D01*
X201545200Y-100977044D01*
X201545000Y-101205952D01*
X201632415Y-101417512D01*
X201794136Y-101579516D01*
X202005544Y-101667300D01*
X202019486Y-101667312D01*
X201989700Y-101739044D01*
X201989500Y-101967952D01*
X202076915Y-102179512D01*
X202238636Y-102341516D01*
X202407778Y-102411750D01*
X202370700Y-102501044D01*
X202370500Y-102729952D01*
X202448783Y-102919411D01*
X202366488Y-102953415D01*
X202204484Y-103115136D01*
X202119021Y-103320953D01*
X201730700Y-102932632D01*
X201730700Y-102108000D01*
X201707202Y-101989866D01*
X201707202Y-101989865D01*
X201640284Y-101889716D01*
X201413200Y-101662632D01*
X201413200Y-99025554D01*
X201454500Y-99025554D01*
X201540659Y-99009342D01*
X201619791Y-98958422D01*
X201672877Y-98880727D01*
X201691554Y-98788500D01*
X201691554Y-96802500D01*
X203347803Y-96802500D01*
X203319000Y-96872037D01*
G36*
X195779500Y-97612000D02*
X195801000Y-97612000D01*
X195801000Y-97965000D01*
X195779500Y-97965000D01*
X195779500Y-99227625D01*
X195917404Y-99365529D01*
X195552216Y-99730716D01*
X195485298Y-99830865D01*
X195485298Y-99830866D01*
X195461800Y-99949000D01*
X195461800Y-100330000D01*
X195485298Y-100448135D01*
X195552216Y-100548284D01*
X195996716Y-100992784D01*
X196096865Y-101059702D01*
X196215000Y-101083200D01*
X196596000Y-101083200D01*
X196714135Y-101059702D01*
X196814284Y-100992784D01*
X197420165Y-100386903D01*
X197493800Y-100565112D01*
X197493800Y-101345132D01*
X197293632Y-101545300D01*
X195305358Y-101545300D01*
X195432516Y-101418364D01*
X195520300Y-101206956D01*
X195520500Y-100978048D01*
X195433085Y-100766488D01*
X195271364Y-100604484D01*
X195059956Y-100516700D01*
X194831048Y-100516500D01*
X194619488Y-100603915D01*
X194457484Y-100765636D01*
X194369700Y-100977044D01*
X194369651Y-101032583D01*
X194110700Y-100773632D01*
X194110700Y-100076868D01*
X194305244Y-99882324D01*
X194322044Y-99889300D01*
X194550952Y-99889500D01*
X194762512Y-99802085D01*
X194924516Y-99640364D01*
X195012300Y-99428956D01*
X195012393Y-99321957D01*
X195138037Y-99374000D01*
X195283125Y-99374000D01*
X195429500Y-99227625D01*
X195429500Y-97965000D01*
X195408000Y-97965000D01*
X195408000Y-97612000D01*
X195429500Y-97612000D01*
X195429500Y-97592000D01*
X195779500Y-97592000D01*
X195779500Y-97612000D01*
X195779500Y-97612000D01*
G37*
X195779500Y-97612000D02*
X195801000Y-97612000D01*
X195801000Y-97965000D01*
X195779500Y-97965000D01*
X195779500Y-99227625D01*
X195917404Y-99365529D01*
X195552216Y-99730716D01*
X195485298Y-99830865D01*
X195485298Y-99830866D01*
X195461800Y-99949000D01*
X195461800Y-100330000D01*
X195485298Y-100448135D01*
X195552216Y-100548284D01*
X195996716Y-100992784D01*
X196096865Y-101059702D01*
X196215000Y-101083200D01*
X196596000Y-101083200D01*
X196714135Y-101059702D01*
X196814284Y-100992784D01*
X197420165Y-100386903D01*
X197493800Y-100565112D01*
X197493800Y-101345132D01*
X197293632Y-101545300D01*
X195305358Y-101545300D01*
X195432516Y-101418364D01*
X195520300Y-101206956D01*
X195520500Y-100978048D01*
X195433085Y-100766488D01*
X195271364Y-100604484D01*
X195059956Y-100516700D01*
X194831048Y-100516500D01*
X194619488Y-100603915D01*
X194457484Y-100765636D01*
X194369700Y-100977044D01*
X194369651Y-101032583D01*
X194110700Y-100773632D01*
X194110700Y-100076868D01*
X194305244Y-99882324D01*
X194322044Y-99889300D01*
X194550952Y-99889500D01*
X194762512Y-99802085D01*
X194924516Y-99640364D01*
X195012300Y-99428956D01*
X195012393Y-99321957D01*
X195138037Y-99374000D01*
X195283125Y-99374000D01*
X195429500Y-99227625D01*
X195429500Y-97965000D01*
X195408000Y-97965000D01*
X195408000Y-97612000D01*
X195429500Y-97612000D01*
X195429500Y-97592000D01*
X195779500Y-97592000D01*
X195779500Y-97612000D01*
M02*
