G04 #@! TF.FileFunction,Copper,L3,Inr,Plane*
%FSLAX46Y46*%
G04 Gerber Fmt 4.6, Leading zero omitted, Abs format (unit mm)*
G04 Created by KiCad (PCBNEW 4.0.2-stable) date 4/25/2016 12:45:42 PM*
%MOMM*%
G01*
G04 APERTURE LIST*
%ADD10C,0.100000*%
%ADD11C,0.685800*%
%ADD12R,1.727200X2.032000*%
%ADD13O,1.727200X2.032000*%
%ADD14C,0.155000*%
G04 APERTURE END LIST*
D10*
D11*
X191579500Y-108839000D03*
X202692000Y-103441500D03*
D12*
X191770000Y-111760000D03*
X191770000Y-114300000D03*
D13*
X194310000Y-114300000D03*
X196850000Y-114300000D03*
X199390000Y-114300000D03*
X201930000Y-114300000D03*
X204470000Y-114300000D03*
D11*
X203073000Y-109410500D03*
X204660500Y-96964500D03*
X197739000Y-111061500D03*
X192278000Y-97282000D03*
X192278000Y-98615500D03*
X195580000Y-99314000D03*
X200305250Y-105164750D03*
X196442750Y-105164750D03*
X200305250Y-102589750D03*
X196442750Y-102589750D03*
X192024000Y-103124000D03*
X191706500Y-105410000D03*
X193929000Y-108966000D03*
X202438000Y-107950000D03*
X197802500Y-109855000D03*
X192786000Y-100457000D03*
X196405500Y-100139500D03*
X202565000Y-101854000D03*
X194945000Y-101092000D03*
X191770000Y-106680000D03*
X191135000Y-106045000D03*
X204089000Y-110617000D03*
X203009500Y-105283000D03*
X194437000Y-99314000D03*
X197993000Y-100266500D03*
X202819000Y-106108500D03*
X196342000Y-108966000D03*
X199580500Y-99949000D03*
X203327000Y-104013000D03*
X193675000Y-112141000D03*
X202946000Y-102616000D03*
X204089000Y-100711000D03*
X204152500Y-101600000D03*
X195453000Y-112649000D03*
X198310500Y-109156500D03*
X202120500Y-101092000D03*
X201612500Y-110617000D03*
D14*
G36*
X205457500Y-113666020D02*
X205245060Y-113348080D01*
X204889459Y-113110476D01*
X204470000Y-113027040D01*
X204050541Y-113110476D01*
X203694940Y-113348080D01*
X203457336Y-113703681D01*
X203373900Y-114123140D01*
X203373900Y-114123498D01*
X203231259Y-114123498D01*
X203356040Y-113897337D01*
X203151718Y-113370665D01*
X202761400Y-112962274D01*
X202329328Y-112754608D01*
X202106500Y-112856887D01*
X202106500Y-114123500D01*
X202126500Y-114123500D01*
X202126500Y-114476500D01*
X202106500Y-114476500D01*
X202106500Y-114496500D01*
X201753500Y-114496500D01*
X201753500Y-114476500D01*
X201733500Y-114476500D01*
X201733500Y-114123500D01*
X201753500Y-114123500D01*
X201753500Y-112856887D01*
X201530672Y-112754608D01*
X201098600Y-112962274D01*
X200708282Y-113370665D01*
X200503960Y-113897337D01*
X200628741Y-114123498D01*
X200486100Y-114123498D01*
X200486100Y-114123140D01*
X200402664Y-113703681D01*
X200165060Y-113348080D01*
X199809459Y-113110476D01*
X199390000Y-113027040D01*
X198970541Y-113110476D01*
X198614940Y-113348080D01*
X198377336Y-113703681D01*
X198293900Y-114123140D01*
X198293900Y-114476860D01*
X198377336Y-114896319D01*
X198614940Y-115251920D01*
X198668189Y-115287500D01*
X197571811Y-115287500D01*
X197625060Y-115251920D01*
X197862664Y-114896319D01*
X197946100Y-114476860D01*
X197946100Y-114123140D01*
X197862664Y-113703681D01*
X197625060Y-113348080D01*
X197269459Y-113110476D01*
X196850000Y-113027040D01*
X196430541Y-113110476D01*
X196074940Y-113348080D01*
X195837336Y-113703681D01*
X195753900Y-114123140D01*
X195753900Y-114476860D01*
X195837336Y-114896319D01*
X196074940Y-115251920D01*
X196128189Y-115287500D01*
X195031811Y-115287500D01*
X195085060Y-115251920D01*
X195322664Y-114896319D01*
X195406100Y-114476860D01*
X195406100Y-114123140D01*
X195322664Y-113703681D01*
X195085060Y-113348080D01*
X194729459Y-113110476D01*
X194310000Y-113027040D01*
X193890541Y-113110476D01*
X193534940Y-113348080D01*
X193297336Y-113703681D01*
X193213900Y-114123140D01*
X193213900Y-114476860D01*
X193297336Y-114896319D01*
X193534940Y-115251920D01*
X193588189Y-115287500D01*
X192870654Y-115287500D01*
X192870654Y-113284000D01*
X192854442Y-113197841D01*
X192803522Y-113118709D01*
X192725827Y-113065623D01*
X192633600Y-113046946D01*
X190906400Y-113046946D01*
X190820241Y-113063158D01*
X190782500Y-113087444D01*
X190782500Y-112972736D01*
X190814173Y-112994377D01*
X190906400Y-113013054D01*
X192633600Y-113013054D01*
X192719759Y-112996842D01*
X192798891Y-112945922D01*
X192851977Y-112868227D01*
X192870654Y-112776000D01*
X192870654Y-112762952D01*
X194877500Y-112762952D01*
X194964915Y-112974512D01*
X195126636Y-113136516D01*
X195338044Y-113224300D01*
X195566952Y-113224500D01*
X195778512Y-113137085D01*
X195940516Y-112975364D01*
X196028300Y-112763956D01*
X196028500Y-112535048D01*
X195941085Y-112323488D01*
X195779364Y-112161484D01*
X195567956Y-112073700D01*
X195339048Y-112073500D01*
X195127488Y-112160915D01*
X194965484Y-112322636D01*
X194877700Y-112534044D01*
X194877500Y-112762952D01*
X192870654Y-112762952D01*
X192870654Y-112254952D01*
X193099500Y-112254952D01*
X193186915Y-112466512D01*
X193348636Y-112628516D01*
X193560044Y-112716300D01*
X193788952Y-112716500D01*
X194000512Y-112629085D01*
X194162516Y-112467364D01*
X194250300Y-112255956D01*
X194250500Y-112027048D01*
X194163085Y-111815488D01*
X194001364Y-111653484D01*
X193789956Y-111565700D01*
X193561048Y-111565500D01*
X193349488Y-111652915D01*
X193187484Y-111814636D01*
X193099700Y-112026044D01*
X193099500Y-112254952D01*
X192870654Y-112254952D01*
X192870654Y-110744000D01*
X192868199Y-110730952D01*
X201037000Y-110730952D01*
X201124415Y-110942512D01*
X201286136Y-111104516D01*
X201497544Y-111192300D01*
X201726452Y-111192500D01*
X201938012Y-111105085D01*
X202100016Y-110943364D01*
X202187800Y-110731956D01*
X202187800Y-110730952D01*
X203513500Y-110730952D01*
X203600915Y-110942512D01*
X203762636Y-111104516D01*
X203974044Y-111192300D01*
X204202952Y-111192500D01*
X204414512Y-111105085D01*
X204576516Y-110943364D01*
X204664300Y-110731956D01*
X204664500Y-110503048D01*
X204577085Y-110291488D01*
X204415364Y-110129484D01*
X204203956Y-110041700D01*
X203975048Y-110041500D01*
X203763488Y-110128915D01*
X203601484Y-110290636D01*
X203513700Y-110502044D01*
X203513500Y-110730952D01*
X202187800Y-110730952D01*
X202188000Y-110503048D01*
X202100585Y-110291488D01*
X201938864Y-110129484D01*
X201727456Y-110041700D01*
X201498548Y-110041500D01*
X201286988Y-110128915D01*
X201124984Y-110290636D01*
X201037200Y-110502044D01*
X201037000Y-110730952D01*
X192868199Y-110730952D01*
X192854442Y-110657841D01*
X192803522Y-110578709D01*
X192725827Y-110525623D01*
X192633600Y-110506946D01*
X190906400Y-110506946D01*
X190820241Y-110523158D01*
X190782500Y-110547444D01*
X190782500Y-109968952D01*
X197227000Y-109968952D01*
X197314415Y-110180512D01*
X197476136Y-110342516D01*
X197687544Y-110430300D01*
X197916452Y-110430500D01*
X198128012Y-110343085D01*
X198290016Y-110181364D01*
X198377800Y-109969956D01*
X198378000Y-109741048D01*
X198374243Y-109731956D01*
X198424452Y-109732000D01*
X198636012Y-109644585D01*
X198798016Y-109482864D01*
X198885800Y-109271456D01*
X198886000Y-109042548D01*
X198798585Y-108830988D01*
X198636864Y-108668984D01*
X198425456Y-108581200D01*
X198196548Y-108581000D01*
X197984988Y-108668415D01*
X197822984Y-108830136D01*
X197735200Y-109041544D01*
X197735000Y-109270452D01*
X197738757Y-109279544D01*
X197688548Y-109279500D01*
X197476988Y-109366915D01*
X197314984Y-109528636D01*
X197227200Y-109740044D01*
X197227000Y-109968952D01*
X190782500Y-109968952D01*
X190782500Y-109512929D01*
X191148038Y-109512929D01*
X191171018Y-109692916D01*
X191528891Y-109784235D01*
X191894469Y-109731650D01*
X191987982Y-109692916D01*
X192010962Y-109512929D01*
X191579500Y-109081467D01*
X191148038Y-109512929D01*
X190782500Y-109512929D01*
X190782500Y-109254749D01*
X190905571Y-109270462D01*
X191337033Y-108839000D01*
X191821967Y-108839000D01*
X192253429Y-109270462D01*
X192433416Y-109247482D01*
X192476164Y-109079952D01*
X193353500Y-109079952D01*
X193440915Y-109291512D01*
X193602636Y-109453516D01*
X193814044Y-109541300D01*
X194042952Y-109541500D01*
X194254512Y-109454085D01*
X194416516Y-109292364D01*
X194504300Y-109080956D01*
X194504300Y-109079952D01*
X195766500Y-109079952D01*
X195853915Y-109291512D01*
X196015636Y-109453516D01*
X196227044Y-109541300D01*
X196455952Y-109541500D01*
X196667512Y-109454085D01*
X196829516Y-109292364D01*
X196917300Y-109080956D01*
X196917500Y-108852048D01*
X196830085Y-108640488D01*
X196668364Y-108478484D01*
X196456956Y-108390700D01*
X196228048Y-108390500D01*
X196016488Y-108477915D01*
X195854484Y-108639636D01*
X195766700Y-108851044D01*
X195766500Y-109079952D01*
X194504300Y-109079952D01*
X194504500Y-108852048D01*
X194417085Y-108640488D01*
X194255364Y-108478484D01*
X194043956Y-108390700D01*
X193815048Y-108390500D01*
X193603488Y-108477915D01*
X193441484Y-108639636D01*
X193353700Y-108851044D01*
X193353500Y-109079952D01*
X192476164Y-109079952D01*
X192524735Y-108889609D01*
X192472150Y-108524031D01*
X192433416Y-108430518D01*
X192253429Y-108407538D01*
X191821967Y-108839000D01*
X191337033Y-108839000D01*
X190905571Y-108407538D01*
X190782500Y-108423251D01*
X190782500Y-108165071D01*
X191148038Y-108165071D01*
X191579500Y-108596533D01*
X192010962Y-108165071D01*
X191998052Y-108063952D01*
X201862500Y-108063952D01*
X201949915Y-108275512D01*
X202111636Y-108437516D01*
X202323044Y-108525300D01*
X202551952Y-108525500D01*
X202763512Y-108438085D01*
X202925516Y-108276364D01*
X203013300Y-108064956D01*
X203013500Y-107836048D01*
X202926085Y-107624488D01*
X202764364Y-107462484D01*
X202552956Y-107374700D01*
X202324048Y-107374500D01*
X202112488Y-107461915D01*
X201950484Y-107623636D01*
X201862700Y-107835044D01*
X201862500Y-108063952D01*
X191998052Y-108063952D01*
X191987982Y-107985084D01*
X191630109Y-107893765D01*
X191264531Y-107946350D01*
X191171018Y-107985084D01*
X191148038Y-108165071D01*
X190782500Y-108165071D01*
X190782500Y-106506334D01*
X190808636Y-106532516D01*
X191020044Y-106620300D01*
X191194652Y-106620453D01*
X191194500Y-106793952D01*
X191281915Y-107005512D01*
X191443636Y-107167516D01*
X191655044Y-107255300D01*
X191883952Y-107255500D01*
X192095512Y-107168085D01*
X192257516Y-107006364D01*
X192345300Y-106794956D01*
X192345500Y-106566048D01*
X192258085Y-106354488D01*
X192126280Y-106222452D01*
X202243500Y-106222452D01*
X202330915Y-106434012D01*
X202492636Y-106596016D01*
X202704044Y-106683800D01*
X202932952Y-106684000D01*
X203144512Y-106596585D01*
X203306516Y-106434864D01*
X203394300Y-106223456D01*
X203394500Y-105994548D01*
X203307085Y-105782988D01*
X203306828Y-105782730D01*
X203335012Y-105771085D01*
X203497016Y-105609364D01*
X203584800Y-105397956D01*
X203585000Y-105169048D01*
X203497585Y-104957488D01*
X203335864Y-104795484D01*
X203124456Y-104707700D01*
X202895548Y-104707500D01*
X202683988Y-104794915D01*
X202521984Y-104956636D01*
X202434200Y-105168044D01*
X202434000Y-105396952D01*
X202521415Y-105608512D01*
X202521672Y-105608770D01*
X202493488Y-105620415D01*
X202331484Y-105782136D01*
X202243700Y-105993544D01*
X202243500Y-106222452D01*
X192126280Y-106222452D01*
X192096364Y-106192484D01*
X191884956Y-106104700D01*
X191710348Y-106104547D01*
X191710500Y-105931048D01*
X191623085Y-105719488D01*
X191461364Y-105557484D01*
X191249956Y-105469700D01*
X191021048Y-105469500D01*
X190809488Y-105556915D01*
X190782500Y-105583856D01*
X190782500Y-101205952D01*
X194369500Y-101205952D01*
X194456915Y-101417512D01*
X194618636Y-101579516D01*
X194830044Y-101667300D01*
X195058952Y-101667500D01*
X195270512Y-101580085D01*
X195432516Y-101418364D01*
X195520300Y-101206956D01*
X195520300Y-101205952D01*
X201545000Y-101205952D01*
X201632415Y-101417512D01*
X201794136Y-101579516D01*
X202005544Y-101667300D01*
X202019486Y-101667312D01*
X201989700Y-101739044D01*
X201989500Y-101967952D01*
X202076915Y-102179512D01*
X202238636Y-102341516D01*
X202407778Y-102411750D01*
X202370700Y-102501044D01*
X202370500Y-102729952D01*
X202448783Y-102919411D01*
X202366488Y-102953415D01*
X202204484Y-103115136D01*
X202116700Y-103326544D01*
X202116500Y-103555452D01*
X202203915Y-103767012D01*
X202365636Y-103929016D01*
X202577044Y-104016800D01*
X202751596Y-104016953D01*
X202751500Y-104126952D01*
X202838915Y-104338512D01*
X203000636Y-104500516D01*
X203212044Y-104588300D01*
X203440952Y-104588500D01*
X203652512Y-104501085D01*
X203814516Y-104339364D01*
X203902300Y-104127956D01*
X203902500Y-103899048D01*
X203815085Y-103687488D01*
X203653364Y-103525484D01*
X203441956Y-103437700D01*
X203267404Y-103437547D01*
X203267500Y-103327548D01*
X203189217Y-103138089D01*
X203271512Y-103104085D01*
X203433516Y-102942364D01*
X203521300Y-102730956D01*
X203521500Y-102502048D01*
X203434085Y-102290488D01*
X203272364Y-102128484D01*
X203103222Y-102058250D01*
X203140300Y-101968956D01*
X203140500Y-101740048D01*
X203053085Y-101528488D01*
X202891364Y-101366484D01*
X202679956Y-101278700D01*
X202666014Y-101278688D01*
X202695800Y-101206956D01*
X202696000Y-100978048D01*
X202632742Y-100824952D01*
X203513500Y-100824952D01*
X203600915Y-101036512D01*
X203751455Y-101187316D01*
X203664984Y-101273636D01*
X203577200Y-101485044D01*
X203577000Y-101713952D01*
X203664415Y-101925512D01*
X203826136Y-102087516D01*
X204037544Y-102175300D01*
X204266452Y-102175500D01*
X204478012Y-102088085D01*
X204640016Y-101926364D01*
X204727800Y-101714956D01*
X204728000Y-101486048D01*
X204640585Y-101274488D01*
X204490045Y-101123684D01*
X204576516Y-101037364D01*
X204664300Y-100825956D01*
X204664500Y-100597048D01*
X204577085Y-100385488D01*
X204415364Y-100223484D01*
X204203956Y-100135700D01*
X203975048Y-100135500D01*
X203763488Y-100222915D01*
X203601484Y-100384636D01*
X203513700Y-100596044D01*
X203513500Y-100824952D01*
X202632742Y-100824952D01*
X202608585Y-100766488D01*
X202446864Y-100604484D01*
X202235456Y-100516700D01*
X202006548Y-100516500D01*
X201794988Y-100603915D01*
X201632984Y-100765636D01*
X201545200Y-100977044D01*
X201545000Y-101205952D01*
X195520300Y-101205952D01*
X195520500Y-100978048D01*
X195433085Y-100766488D01*
X195271364Y-100604484D01*
X195059956Y-100516700D01*
X194831048Y-100516500D01*
X194619488Y-100603915D01*
X194457484Y-100765636D01*
X194369700Y-100977044D01*
X194369500Y-101205952D01*
X190782500Y-101205952D01*
X190782500Y-100570952D01*
X192210500Y-100570952D01*
X192297915Y-100782512D01*
X192459636Y-100944516D01*
X192671044Y-101032300D01*
X192899952Y-101032500D01*
X193111512Y-100945085D01*
X193273516Y-100783364D01*
X193361300Y-100571956D01*
X193361500Y-100343048D01*
X193324480Y-100253452D01*
X195830000Y-100253452D01*
X195917415Y-100465012D01*
X196079136Y-100627016D01*
X196290544Y-100714800D01*
X196519452Y-100715000D01*
X196731012Y-100627585D01*
X196893016Y-100465864D01*
X196928482Y-100380452D01*
X197417500Y-100380452D01*
X197504915Y-100592012D01*
X197666636Y-100754016D01*
X197878044Y-100841800D01*
X198106952Y-100842000D01*
X198318512Y-100754585D01*
X198480516Y-100592864D01*
X198568300Y-100381456D01*
X198568500Y-100152548D01*
X198531480Y-100062952D01*
X199005000Y-100062952D01*
X199092415Y-100274512D01*
X199254136Y-100436516D01*
X199465544Y-100524300D01*
X199694452Y-100524500D01*
X199906012Y-100437085D01*
X200068016Y-100275364D01*
X200155800Y-100063956D01*
X200156000Y-99835048D01*
X200068585Y-99623488D01*
X199906864Y-99461484D01*
X199695456Y-99373700D01*
X199466548Y-99373500D01*
X199254988Y-99460915D01*
X199092984Y-99622636D01*
X199005200Y-99834044D01*
X199005000Y-100062952D01*
X198531480Y-100062952D01*
X198481085Y-99940988D01*
X198319364Y-99778984D01*
X198107956Y-99691200D01*
X197879048Y-99691000D01*
X197667488Y-99778415D01*
X197505484Y-99940136D01*
X197417700Y-100151544D01*
X197417500Y-100380452D01*
X196928482Y-100380452D01*
X196980800Y-100254456D01*
X196981000Y-100025548D01*
X196893585Y-99813988D01*
X196731864Y-99651984D01*
X196520456Y-99564200D01*
X196291548Y-99564000D01*
X196079988Y-99651415D01*
X195917984Y-99813136D01*
X195830200Y-100024544D01*
X195830000Y-100253452D01*
X193324480Y-100253452D01*
X193274085Y-100131488D01*
X193112364Y-99969484D01*
X192900956Y-99881700D01*
X192672048Y-99881500D01*
X192460488Y-99968915D01*
X192298484Y-100130636D01*
X192210700Y-100342044D01*
X192210500Y-100570952D01*
X190782500Y-100570952D01*
X190782500Y-99427952D01*
X193861500Y-99427952D01*
X193948915Y-99639512D01*
X194110636Y-99801516D01*
X194322044Y-99889300D01*
X194550952Y-99889500D01*
X194762512Y-99802085D01*
X194924516Y-99640364D01*
X195012300Y-99428956D01*
X195012500Y-99200048D01*
X194925085Y-98988488D01*
X194763364Y-98826484D01*
X194551956Y-98738700D01*
X194323048Y-98738500D01*
X194111488Y-98825915D01*
X193949484Y-98987636D01*
X193861700Y-99199044D01*
X193861500Y-99427952D01*
X190782500Y-99427952D01*
X190782500Y-96802500D01*
X205457500Y-96802500D01*
X205457500Y-113666020D01*
X205457500Y-113666020D01*
G37*
X205457500Y-113666020D02*
X205245060Y-113348080D01*
X204889459Y-113110476D01*
X204470000Y-113027040D01*
X204050541Y-113110476D01*
X203694940Y-113348080D01*
X203457336Y-113703681D01*
X203373900Y-114123140D01*
X203373900Y-114123498D01*
X203231259Y-114123498D01*
X203356040Y-113897337D01*
X203151718Y-113370665D01*
X202761400Y-112962274D01*
X202329328Y-112754608D01*
X202106500Y-112856887D01*
X202106500Y-114123500D01*
X202126500Y-114123500D01*
X202126500Y-114476500D01*
X202106500Y-114476500D01*
X202106500Y-114496500D01*
X201753500Y-114496500D01*
X201753500Y-114476500D01*
X201733500Y-114476500D01*
X201733500Y-114123500D01*
X201753500Y-114123500D01*
X201753500Y-112856887D01*
X201530672Y-112754608D01*
X201098600Y-112962274D01*
X200708282Y-113370665D01*
X200503960Y-113897337D01*
X200628741Y-114123498D01*
X200486100Y-114123498D01*
X200486100Y-114123140D01*
X200402664Y-113703681D01*
X200165060Y-113348080D01*
X199809459Y-113110476D01*
X199390000Y-113027040D01*
X198970541Y-113110476D01*
X198614940Y-113348080D01*
X198377336Y-113703681D01*
X198293900Y-114123140D01*
X198293900Y-114476860D01*
X198377336Y-114896319D01*
X198614940Y-115251920D01*
X198668189Y-115287500D01*
X197571811Y-115287500D01*
X197625060Y-115251920D01*
X197862664Y-114896319D01*
X197946100Y-114476860D01*
X197946100Y-114123140D01*
X197862664Y-113703681D01*
X197625060Y-113348080D01*
X197269459Y-113110476D01*
X196850000Y-113027040D01*
X196430541Y-113110476D01*
X196074940Y-113348080D01*
X195837336Y-113703681D01*
X195753900Y-114123140D01*
X195753900Y-114476860D01*
X195837336Y-114896319D01*
X196074940Y-115251920D01*
X196128189Y-115287500D01*
X195031811Y-115287500D01*
X195085060Y-115251920D01*
X195322664Y-114896319D01*
X195406100Y-114476860D01*
X195406100Y-114123140D01*
X195322664Y-113703681D01*
X195085060Y-113348080D01*
X194729459Y-113110476D01*
X194310000Y-113027040D01*
X193890541Y-113110476D01*
X193534940Y-113348080D01*
X193297336Y-113703681D01*
X193213900Y-114123140D01*
X193213900Y-114476860D01*
X193297336Y-114896319D01*
X193534940Y-115251920D01*
X193588189Y-115287500D01*
X192870654Y-115287500D01*
X192870654Y-113284000D01*
X192854442Y-113197841D01*
X192803522Y-113118709D01*
X192725827Y-113065623D01*
X192633600Y-113046946D01*
X190906400Y-113046946D01*
X190820241Y-113063158D01*
X190782500Y-113087444D01*
X190782500Y-112972736D01*
X190814173Y-112994377D01*
X190906400Y-113013054D01*
X192633600Y-113013054D01*
X192719759Y-112996842D01*
X192798891Y-112945922D01*
X192851977Y-112868227D01*
X192870654Y-112776000D01*
X192870654Y-112762952D01*
X194877500Y-112762952D01*
X194964915Y-112974512D01*
X195126636Y-113136516D01*
X195338044Y-113224300D01*
X195566952Y-113224500D01*
X195778512Y-113137085D01*
X195940516Y-112975364D01*
X196028300Y-112763956D01*
X196028500Y-112535048D01*
X195941085Y-112323488D01*
X195779364Y-112161484D01*
X195567956Y-112073700D01*
X195339048Y-112073500D01*
X195127488Y-112160915D01*
X194965484Y-112322636D01*
X194877700Y-112534044D01*
X194877500Y-112762952D01*
X192870654Y-112762952D01*
X192870654Y-112254952D01*
X193099500Y-112254952D01*
X193186915Y-112466512D01*
X193348636Y-112628516D01*
X193560044Y-112716300D01*
X193788952Y-112716500D01*
X194000512Y-112629085D01*
X194162516Y-112467364D01*
X194250300Y-112255956D01*
X194250500Y-112027048D01*
X194163085Y-111815488D01*
X194001364Y-111653484D01*
X193789956Y-111565700D01*
X193561048Y-111565500D01*
X193349488Y-111652915D01*
X193187484Y-111814636D01*
X193099700Y-112026044D01*
X193099500Y-112254952D01*
X192870654Y-112254952D01*
X192870654Y-110744000D01*
X192868199Y-110730952D01*
X201037000Y-110730952D01*
X201124415Y-110942512D01*
X201286136Y-111104516D01*
X201497544Y-111192300D01*
X201726452Y-111192500D01*
X201938012Y-111105085D01*
X202100016Y-110943364D01*
X202187800Y-110731956D01*
X202187800Y-110730952D01*
X203513500Y-110730952D01*
X203600915Y-110942512D01*
X203762636Y-111104516D01*
X203974044Y-111192300D01*
X204202952Y-111192500D01*
X204414512Y-111105085D01*
X204576516Y-110943364D01*
X204664300Y-110731956D01*
X204664500Y-110503048D01*
X204577085Y-110291488D01*
X204415364Y-110129484D01*
X204203956Y-110041700D01*
X203975048Y-110041500D01*
X203763488Y-110128915D01*
X203601484Y-110290636D01*
X203513700Y-110502044D01*
X203513500Y-110730952D01*
X202187800Y-110730952D01*
X202188000Y-110503048D01*
X202100585Y-110291488D01*
X201938864Y-110129484D01*
X201727456Y-110041700D01*
X201498548Y-110041500D01*
X201286988Y-110128915D01*
X201124984Y-110290636D01*
X201037200Y-110502044D01*
X201037000Y-110730952D01*
X192868199Y-110730952D01*
X192854442Y-110657841D01*
X192803522Y-110578709D01*
X192725827Y-110525623D01*
X192633600Y-110506946D01*
X190906400Y-110506946D01*
X190820241Y-110523158D01*
X190782500Y-110547444D01*
X190782500Y-109968952D01*
X197227000Y-109968952D01*
X197314415Y-110180512D01*
X197476136Y-110342516D01*
X197687544Y-110430300D01*
X197916452Y-110430500D01*
X198128012Y-110343085D01*
X198290016Y-110181364D01*
X198377800Y-109969956D01*
X198378000Y-109741048D01*
X198374243Y-109731956D01*
X198424452Y-109732000D01*
X198636012Y-109644585D01*
X198798016Y-109482864D01*
X198885800Y-109271456D01*
X198886000Y-109042548D01*
X198798585Y-108830988D01*
X198636864Y-108668984D01*
X198425456Y-108581200D01*
X198196548Y-108581000D01*
X197984988Y-108668415D01*
X197822984Y-108830136D01*
X197735200Y-109041544D01*
X197735000Y-109270452D01*
X197738757Y-109279544D01*
X197688548Y-109279500D01*
X197476988Y-109366915D01*
X197314984Y-109528636D01*
X197227200Y-109740044D01*
X197227000Y-109968952D01*
X190782500Y-109968952D01*
X190782500Y-109512929D01*
X191148038Y-109512929D01*
X191171018Y-109692916D01*
X191528891Y-109784235D01*
X191894469Y-109731650D01*
X191987982Y-109692916D01*
X192010962Y-109512929D01*
X191579500Y-109081467D01*
X191148038Y-109512929D01*
X190782500Y-109512929D01*
X190782500Y-109254749D01*
X190905571Y-109270462D01*
X191337033Y-108839000D01*
X191821967Y-108839000D01*
X192253429Y-109270462D01*
X192433416Y-109247482D01*
X192476164Y-109079952D01*
X193353500Y-109079952D01*
X193440915Y-109291512D01*
X193602636Y-109453516D01*
X193814044Y-109541300D01*
X194042952Y-109541500D01*
X194254512Y-109454085D01*
X194416516Y-109292364D01*
X194504300Y-109080956D01*
X194504300Y-109079952D01*
X195766500Y-109079952D01*
X195853915Y-109291512D01*
X196015636Y-109453516D01*
X196227044Y-109541300D01*
X196455952Y-109541500D01*
X196667512Y-109454085D01*
X196829516Y-109292364D01*
X196917300Y-109080956D01*
X196917500Y-108852048D01*
X196830085Y-108640488D01*
X196668364Y-108478484D01*
X196456956Y-108390700D01*
X196228048Y-108390500D01*
X196016488Y-108477915D01*
X195854484Y-108639636D01*
X195766700Y-108851044D01*
X195766500Y-109079952D01*
X194504300Y-109079952D01*
X194504500Y-108852048D01*
X194417085Y-108640488D01*
X194255364Y-108478484D01*
X194043956Y-108390700D01*
X193815048Y-108390500D01*
X193603488Y-108477915D01*
X193441484Y-108639636D01*
X193353700Y-108851044D01*
X193353500Y-109079952D01*
X192476164Y-109079952D01*
X192524735Y-108889609D01*
X192472150Y-108524031D01*
X192433416Y-108430518D01*
X192253429Y-108407538D01*
X191821967Y-108839000D01*
X191337033Y-108839000D01*
X190905571Y-108407538D01*
X190782500Y-108423251D01*
X190782500Y-108165071D01*
X191148038Y-108165071D01*
X191579500Y-108596533D01*
X192010962Y-108165071D01*
X191998052Y-108063952D01*
X201862500Y-108063952D01*
X201949915Y-108275512D01*
X202111636Y-108437516D01*
X202323044Y-108525300D01*
X202551952Y-108525500D01*
X202763512Y-108438085D01*
X202925516Y-108276364D01*
X203013300Y-108064956D01*
X203013500Y-107836048D01*
X202926085Y-107624488D01*
X202764364Y-107462484D01*
X202552956Y-107374700D01*
X202324048Y-107374500D01*
X202112488Y-107461915D01*
X201950484Y-107623636D01*
X201862700Y-107835044D01*
X201862500Y-108063952D01*
X191998052Y-108063952D01*
X191987982Y-107985084D01*
X191630109Y-107893765D01*
X191264531Y-107946350D01*
X191171018Y-107985084D01*
X191148038Y-108165071D01*
X190782500Y-108165071D01*
X190782500Y-106506334D01*
X190808636Y-106532516D01*
X191020044Y-106620300D01*
X191194652Y-106620453D01*
X191194500Y-106793952D01*
X191281915Y-107005512D01*
X191443636Y-107167516D01*
X191655044Y-107255300D01*
X191883952Y-107255500D01*
X192095512Y-107168085D01*
X192257516Y-107006364D01*
X192345300Y-106794956D01*
X192345500Y-106566048D01*
X192258085Y-106354488D01*
X192126280Y-106222452D01*
X202243500Y-106222452D01*
X202330915Y-106434012D01*
X202492636Y-106596016D01*
X202704044Y-106683800D01*
X202932952Y-106684000D01*
X203144512Y-106596585D01*
X203306516Y-106434864D01*
X203394300Y-106223456D01*
X203394500Y-105994548D01*
X203307085Y-105782988D01*
X203306828Y-105782730D01*
X203335012Y-105771085D01*
X203497016Y-105609364D01*
X203584800Y-105397956D01*
X203585000Y-105169048D01*
X203497585Y-104957488D01*
X203335864Y-104795484D01*
X203124456Y-104707700D01*
X202895548Y-104707500D01*
X202683988Y-104794915D01*
X202521984Y-104956636D01*
X202434200Y-105168044D01*
X202434000Y-105396952D01*
X202521415Y-105608512D01*
X202521672Y-105608770D01*
X202493488Y-105620415D01*
X202331484Y-105782136D01*
X202243700Y-105993544D01*
X202243500Y-106222452D01*
X192126280Y-106222452D01*
X192096364Y-106192484D01*
X191884956Y-106104700D01*
X191710348Y-106104547D01*
X191710500Y-105931048D01*
X191623085Y-105719488D01*
X191461364Y-105557484D01*
X191249956Y-105469700D01*
X191021048Y-105469500D01*
X190809488Y-105556915D01*
X190782500Y-105583856D01*
X190782500Y-101205952D01*
X194369500Y-101205952D01*
X194456915Y-101417512D01*
X194618636Y-101579516D01*
X194830044Y-101667300D01*
X195058952Y-101667500D01*
X195270512Y-101580085D01*
X195432516Y-101418364D01*
X195520300Y-101206956D01*
X195520300Y-101205952D01*
X201545000Y-101205952D01*
X201632415Y-101417512D01*
X201794136Y-101579516D01*
X202005544Y-101667300D01*
X202019486Y-101667312D01*
X201989700Y-101739044D01*
X201989500Y-101967952D01*
X202076915Y-102179512D01*
X202238636Y-102341516D01*
X202407778Y-102411750D01*
X202370700Y-102501044D01*
X202370500Y-102729952D01*
X202448783Y-102919411D01*
X202366488Y-102953415D01*
X202204484Y-103115136D01*
X202116700Y-103326544D01*
X202116500Y-103555452D01*
X202203915Y-103767012D01*
X202365636Y-103929016D01*
X202577044Y-104016800D01*
X202751596Y-104016953D01*
X202751500Y-104126952D01*
X202838915Y-104338512D01*
X203000636Y-104500516D01*
X203212044Y-104588300D01*
X203440952Y-104588500D01*
X203652512Y-104501085D01*
X203814516Y-104339364D01*
X203902300Y-104127956D01*
X203902500Y-103899048D01*
X203815085Y-103687488D01*
X203653364Y-103525484D01*
X203441956Y-103437700D01*
X203267404Y-103437547D01*
X203267500Y-103327548D01*
X203189217Y-103138089D01*
X203271512Y-103104085D01*
X203433516Y-102942364D01*
X203521300Y-102730956D01*
X203521500Y-102502048D01*
X203434085Y-102290488D01*
X203272364Y-102128484D01*
X203103222Y-102058250D01*
X203140300Y-101968956D01*
X203140500Y-101740048D01*
X203053085Y-101528488D01*
X202891364Y-101366484D01*
X202679956Y-101278700D01*
X202666014Y-101278688D01*
X202695800Y-101206956D01*
X202696000Y-100978048D01*
X202632742Y-100824952D01*
X203513500Y-100824952D01*
X203600915Y-101036512D01*
X203751455Y-101187316D01*
X203664984Y-101273636D01*
X203577200Y-101485044D01*
X203577000Y-101713952D01*
X203664415Y-101925512D01*
X203826136Y-102087516D01*
X204037544Y-102175300D01*
X204266452Y-102175500D01*
X204478012Y-102088085D01*
X204640016Y-101926364D01*
X204727800Y-101714956D01*
X204728000Y-101486048D01*
X204640585Y-101274488D01*
X204490045Y-101123684D01*
X204576516Y-101037364D01*
X204664300Y-100825956D01*
X204664500Y-100597048D01*
X204577085Y-100385488D01*
X204415364Y-100223484D01*
X204203956Y-100135700D01*
X203975048Y-100135500D01*
X203763488Y-100222915D01*
X203601484Y-100384636D01*
X203513700Y-100596044D01*
X203513500Y-100824952D01*
X202632742Y-100824952D01*
X202608585Y-100766488D01*
X202446864Y-100604484D01*
X202235456Y-100516700D01*
X202006548Y-100516500D01*
X201794988Y-100603915D01*
X201632984Y-100765636D01*
X201545200Y-100977044D01*
X201545000Y-101205952D01*
X195520300Y-101205952D01*
X195520500Y-100978048D01*
X195433085Y-100766488D01*
X195271364Y-100604484D01*
X195059956Y-100516700D01*
X194831048Y-100516500D01*
X194619488Y-100603915D01*
X194457484Y-100765636D01*
X194369700Y-100977044D01*
X194369500Y-101205952D01*
X190782500Y-101205952D01*
X190782500Y-100570952D01*
X192210500Y-100570952D01*
X192297915Y-100782512D01*
X192459636Y-100944516D01*
X192671044Y-101032300D01*
X192899952Y-101032500D01*
X193111512Y-100945085D01*
X193273516Y-100783364D01*
X193361300Y-100571956D01*
X193361500Y-100343048D01*
X193324480Y-100253452D01*
X195830000Y-100253452D01*
X195917415Y-100465012D01*
X196079136Y-100627016D01*
X196290544Y-100714800D01*
X196519452Y-100715000D01*
X196731012Y-100627585D01*
X196893016Y-100465864D01*
X196928482Y-100380452D01*
X197417500Y-100380452D01*
X197504915Y-100592012D01*
X197666636Y-100754016D01*
X197878044Y-100841800D01*
X198106952Y-100842000D01*
X198318512Y-100754585D01*
X198480516Y-100592864D01*
X198568300Y-100381456D01*
X198568500Y-100152548D01*
X198531480Y-100062952D01*
X199005000Y-100062952D01*
X199092415Y-100274512D01*
X199254136Y-100436516D01*
X199465544Y-100524300D01*
X199694452Y-100524500D01*
X199906012Y-100437085D01*
X200068016Y-100275364D01*
X200155800Y-100063956D01*
X200156000Y-99835048D01*
X200068585Y-99623488D01*
X199906864Y-99461484D01*
X199695456Y-99373700D01*
X199466548Y-99373500D01*
X199254988Y-99460915D01*
X199092984Y-99622636D01*
X199005200Y-99834044D01*
X199005000Y-100062952D01*
X198531480Y-100062952D01*
X198481085Y-99940988D01*
X198319364Y-99778984D01*
X198107956Y-99691200D01*
X197879048Y-99691000D01*
X197667488Y-99778415D01*
X197505484Y-99940136D01*
X197417700Y-100151544D01*
X197417500Y-100380452D01*
X196928482Y-100380452D01*
X196980800Y-100254456D01*
X196981000Y-100025548D01*
X196893585Y-99813988D01*
X196731864Y-99651984D01*
X196520456Y-99564200D01*
X196291548Y-99564000D01*
X196079988Y-99651415D01*
X195917984Y-99813136D01*
X195830200Y-100024544D01*
X195830000Y-100253452D01*
X193324480Y-100253452D01*
X193274085Y-100131488D01*
X193112364Y-99969484D01*
X192900956Y-99881700D01*
X192672048Y-99881500D01*
X192460488Y-99968915D01*
X192298484Y-100130636D01*
X192210700Y-100342044D01*
X192210500Y-100570952D01*
X190782500Y-100570952D01*
X190782500Y-99427952D01*
X193861500Y-99427952D01*
X193948915Y-99639512D01*
X194110636Y-99801516D01*
X194322044Y-99889300D01*
X194550952Y-99889500D01*
X194762512Y-99802085D01*
X194924516Y-99640364D01*
X195012300Y-99428956D01*
X195012500Y-99200048D01*
X194925085Y-98988488D01*
X194763364Y-98826484D01*
X194551956Y-98738700D01*
X194323048Y-98738500D01*
X194111488Y-98825915D01*
X193949484Y-98987636D01*
X193861700Y-99199044D01*
X193861500Y-99427952D01*
X190782500Y-99427952D01*
X190782500Y-96802500D01*
X205457500Y-96802500D01*
X205457500Y-113666020D01*
M02*
