G04 #@! TF.FileFunction,Legend,Bot*
%FSLAX46Y46*%
G04 Gerber Fmt 4.6, Leading zero omitted, Abs format (unit mm)*
G04 Created by KiCad (PCBNEW 4.0.2-stable) date Thursday, June 16, 2016 'AMt' 09:32:41 AM*
%MOMM*%
G01*
G04 APERTURE LIST*
%ADD10C,0.100000*%
%ADD11C,0.150000*%
%ADD12C,0.127000*%
%ADD13R,0.900000X2.200000*%
%ADD14R,1.200000X2.800000*%
%ADD15R,1.700000X2.800000*%
%ADD16R,2.900000X1.600000*%
%ADD17R,1.400000X1.400000*%
%ADD18C,0.685800*%
%ADD19R,1.727200X2.032000*%
%ADD20O,1.727200X2.032000*%
G04 APERTURE END LIST*
D10*
X204731904Y-112851381D02*
X204660475Y-112875190D01*
X204541428Y-112875190D01*
X204493809Y-112851381D01*
X204469999Y-112827571D01*
X204446190Y-112779952D01*
X204446190Y-112732333D01*
X204469999Y-112684714D01*
X204493809Y-112660905D01*
X204541428Y-112637095D01*
X204636666Y-112613286D01*
X204684285Y-112589476D01*
X204708094Y-112565667D01*
X204731904Y-112518048D01*
X204731904Y-112470429D01*
X204708094Y-112422810D01*
X204684285Y-112399000D01*
X204636666Y-112375190D01*
X204517618Y-112375190D01*
X204446190Y-112399000D01*
X204231904Y-112875190D02*
X204231904Y-112375190D01*
X202247453Y-112399000D02*
X202295072Y-112375190D01*
X202366500Y-112375190D01*
X202437929Y-112399000D01*
X202485548Y-112446619D01*
X202509357Y-112494238D01*
X202533167Y-112589476D01*
X202533167Y-112660905D01*
X202509357Y-112756143D01*
X202485548Y-112803762D01*
X202437929Y-112851381D01*
X202366500Y-112875190D01*
X202318881Y-112875190D01*
X202247453Y-112851381D01*
X202223643Y-112827571D01*
X202223643Y-112660905D01*
X202318881Y-112660905D01*
X202009357Y-112875190D02*
X202009357Y-112375190D01*
X201723643Y-112875190D01*
X201723643Y-112375190D01*
X201485547Y-112875190D02*
X201485547Y-112375190D01*
X201366500Y-112375190D01*
X201295071Y-112399000D01*
X201247452Y-112446619D01*
X201223643Y-112494238D01*
X201199833Y-112589476D01*
X201199833Y-112660905D01*
X201223643Y-112756143D01*
X201247452Y-112803762D01*
X201295071Y-112851381D01*
X201366500Y-112875190D01*
X201485547Y-112875190D01*
X199485237Y-112375190D02*
X199723332Y-112375190D01*
X199747142Y-112613286D01*
X199723332Y-112589476D01*
X199675713Y-112565667D01*
X199556666Y-112565667D01*
X199509047Y-112589476D01*
X199485237Y-112613286D01*
X199461428Y-112660905D01*
X199461428Y-112779952D01*
X199485237Y-112827571D01*
X199509047Y-112851381D01*
X199556666Y-112875190D01*
X199675713Y-112875190D01*
X199723332Y-112851381D01*
X199747142Y-112827571D01*
X199318571Y-112375190D02*
X199151904Y-112875190D01*
X198985238Y-112375190D01*
X197846190Y-111645048D02*
X197846190Y-111930762D01*
X198346190Y-111787905D02*
X197846190Y-111787905D01*
X197846190Y-112049810D02*
X198346190Y-112383143D01*
X197846190Y-112383143D02*
X198346190Y-112049810D01*
X197822381Y-112930761D02*
X198465238Y-112502190D01*
X198298571Y-113383143D02*
X198322381Y-113359333D01*
X198346190Y-113287905D01*
X198346190Y-113240286D01*
X198322381Y-113168857D01*
X198274762Y-113121238D01*
X198227143Y-113097429D01*
X198131905Y-113073619D01*
X198060476Y-113073619D01*
X197965238Y-113097429D01*
X197917619Y-113121238D01*
X197870000Y-113168857D01*
X197846190Y-113240286D01*
X197846190Y-113287905D01*
X197870000Y-113359333D01*
X197893810Y-113383143D01*
X198322381Y-113573619D02*
X198346190Y-113645048D01*
X198346190Y-113764095D01*
X198322381Y-113811714D01*
X198298571Y-113835524D01*
X198250952Y-113859333D01*
X198203333Y-113859333D01*
X198155714Y-113835524D01*
X198131905Y-113811714D01*
X198108095Y-113764095D01*
X198084286Y-113668857D01*
X198060476Y-113621238D01*
X198036667Y-113597429D01*
X197989048Y-113573619D01*
X197941429Y-113573619D01*
X197893810Y-113597429D01*
X197870000Y-113621238D01*
X197846190Y-113668857D01*
X197846190Y-113787905D01*
X197870000Y-113859333D01*
X195742690Y-111867262D02*
X195504595Y-111700595D01*
X195742690Y-111581548D02*
X195242690Y-111581548D01*
X195242690Y-111772024D01*
X195266500Y-111819643D01*
X195290310Y-111843452D01*
X195337929Y-111867262D01*
X195409357Y-111867262D01*
X195456976Y-111843452D01*
X195480786Y-111819643D01*
X195504595Y-111772024D01*
X195504595Y-111581548D01*
X195242690Y-112033929D02*
X195742690Y-112367262D01*
X195242690Y-112367262D02*
X195742690Y-112033929D01*
X195218881Y-112914880D02*
X195861738Y-112486309D01*
X195695071Y-113367262D02*
X195718881Y-113343452D01*
X195742690Y-113272024D01*
X195742690Y-113224405D01*
X195718881Y-113152976D01*
X195671262Y-113105357D01*
X195623643Y-113081548D01*
X195528405Y-113057738D01*
X195456976Y-113057738D01*
X195361738Y-113081548D01*
X195314119Y-113105357D01*
X195266500Y-113152976D01*
X195242690Y-113224405D01*
X195242690Y-113272024D01*
X195266500Y-113343452D01*
X195290310Y-113367262D01*
X195742690Y-113581548D02*
X195242690Y-113581548D01*
X195742690Y-113867262D02*
X195456976Y-113652976D01*
X195242690Y-113867262D02*
X195528405Y-113581548D01*
X193635262Y-112914881D02*
X193563833Y-112938690D01*
X193444786Y-112938690D01*
X193397167Y-112914881D01*
X193373357Y-112891071D01*
X193349548Y-112843452D01*
X193349548Y-112795833D01*
X193373357Y-112748214D01*
X193397167Y-112724405D01*
X193444786Y-112700595D01*
X193540024Y-112676786D01*
X193587643Y-112652976D01*
X193611452Y-112629167D01*
X193635262Y-112581548D01*
X193635262Y-112533929D01*
X193611452Y-112486310D01*
X193587643Y-112462500D01*
X193540024Y-112438690D01*
X193420976Y-112438690D01*
X193349548Y-112462500D01*
X193040024Y-112438690D02*
X192944786Y-112438690D01*
X192897167Y-112462500D01*
X192849548Y-112510119D01*
X192825739Y-112605357D01*
X192825739Y-112772024D01*
X192849548Y-112867262D01*
X192897167Y-112914881D01*
X192944786Y-112938690D01*
X193040024Y-112938690D01*
X193087643Y-112914881D01*
X193135262Y-112867262D01*
X193159072Y-112772024D01*
X193159072Y-112605357D01*
X193135262Y-112510119D01*
X193087643Y-112462500D01*
X193040024Y-112438690D01*
X198576190Y-103312190D02*
X198623809Y-103288381D01*
X198647618Y-103264571D01*
X198671428Y-103216952D01*
X198671428Y-103074095D01*
X198647618Y-103026476D01*
X198623809Y-103002667D01*
X198576190Y-102978857D01*
X198504761Y-102978857D01*
X198457142Y-103002667D01*
X198433333Y-103026476D01*
X198409523Y-103074095D01*
X198409523Y-103216952D01*
X198433333Y-103264571D01*
X198457142Y-103288381D01*
X198504761Y-103312190D01*
X198576190Y-103312190D01*
X198195237Y-102978857D02*
X198195237Y-103478857D01*
X198195237Y-103002667D02*
X198147618Y-102978857D01*
X198052380Y-102978857D01*
X198004761Y-103002667D01*
X197980952Y-103026476D01*
X197957142Y-103074095D01*
X197957142Y-103216952D01*
X197980952Y-103264571D01*
X198004761Y-103288381D01*
X198052380Y-103312190D01*
X198147618Y-103312190D01*
X198195237Y-103288381D01*
X197552380Y-103288381D02*
X197599999Y-103312190D01*
X197695237Y-103312190D01*
X197742856Y-103288381D01*
X197766666Y-103240762D01*
X197766666Y-103050286D01*
X197742856Y-103002667D01*
X197695237Y-102978857D01*
X197599999Y-102978857D01*
X197552380Y-103002667D01*
X197528571Y-103050286D01*
X197528571Y-103097905D01*
X197766666Y-103145524D01*
X197314285Y-102978857D02*
X197314285Y-103312190D01*
X197314285Y-103026476D02*
X197290476Y-103002667D01*
X197242857Y-102978857D01*
X197171428Y-102978857D01*
X197123809Y-103002667D01*
X197100000Y-103050286D01*
X197100000Y-103312190D01*
X196623809Y-103312190D02*
X196861904Y-103312190D01*
X196861904Y-102812190D01*
X196242857Y-103312190D02*
X196242857Y-103050286D01*
X196266666Y-103002667D01*
X196314285Y-102978857D01*
X196409523Y-102978857D01*
X196457142Y-103002667D01*
X196242857Y-103288381D02*
X196290476Y-103312190D01*
X196409523Y-103312190D01*
X196457142Y-103288381D01*
X196480952Y-103240762D01*
X196480952Y-103193143D01*
X196457142Y-103145524D01*
X196409523Y-103121714D01*
X196290476Y-103121714D01*
X196242857Y-103097905D01*
X195790476Y-102978857D02*
X195790476Y-103383619D01*
X195814285Y-103431238D01*
X195838095Y-103455048D01*
X195885714Y-103478857D01*
X195957142Y-103478857D01*
X196004761Y-103455048D01*
X195790476Y-103288381D02*
X195838095Y-103312190D01*
X195933333Y-103312190D01*
X195980952Y-103288381D01*
X196004761Y-103264571D01*
X196028571Y-103216952D01*
X196028571Y-103074095D01*
X196004761Y-103026476D01*
X195980952Y-103002667D01*
X195933333Y-102978857D01*
X195838095Y-102978857D01*
X195790476Y-103002667D01*
X195361904Y-103288381D02*
X195409523Y-103312190D01*
X195504761Y-103312190D01*
X195552380Y-103288381D01*
X195576190Y-103240762D01*
X195576190Y-103050286D01*
X195552380Y-103002667D01*
X195504761Y-102978857D01*
X195409523Y-102978857D01*
X195361904Y-103002667D01*
X195338095Y-103050286D01*
X195338095Y-103097905D01*
X195576190Y-103145524D01*
X195123809Y-103312190D02*
X195123809Y-102978857D01*
X195123809Y-103074095D02*
X195100000Y-103026476D01*
X195076190Y-103002667D01*
X195028571Y-102978857D01*
X194980952Y-102978857D01*
X199111903Y-104112190D02*
X199278570Y-103874095D01*
X199397617Y-104112190D02*
X199397617Y-103612190D01*
X199207141Y-103612190D01*
X199159522Y-103636000D01*
X199135713Y-103659810D01*
X199111903Y-103707429D01*
X199111903Y-103778857D01*
X199135713Y-103826476D01*
X199159522Y-103850286D01*
X199207141Y-103874095D01*
X199397617Y-103874095D01*
X198707141Y-104088381D02*
X198754760Y-104112190D01*
X198849998Y-104112190D01*
X198897617Y-104088381D01*
X198921427Y-104040762D01*
X198921427Y-103850286D01*
X198897617Y-103802667D01*
X198849998Y-103778857D01*
X198754760Y-103778857D01*
X198707141Y-103802667D01*
X198683332Y-103850286D01*
X198683332Y-103897905D01*
X198921427Y-103945524D01*
X198516665Y-103778857D02*
X198397618Y-104112190D01*
X198278570Y-103778857D01*
X197540476Y-103850286D02*
X197469047Y-103874095D01*
X197445238Y-103897905D01*
X197421428Y-103945524D01*
X197421428Y-104016952D01*
X197445238Y-104064571D01*
X197469047Y-104088381D01*
X197516666Y-104112190D01*
X197707142Y-104112190D01*
X197707142Y-103612190D01*
X197540476Y-103612190D01*
X197492857Y-103636000D01*
X197469047Y-103659810D01*
X197445238Y-103707429D01*
X197445238Y-103755048D01*
X197469047Y-103802667D01*
X197492857Y-103826476D01*
X197540476Y-103850286D01*
X197707142Y-103850286D01*
X196421428Y-103731238D02*
X196469048Y-103707429D01*
X196564286Y-103707429D01*
X196611905Y-103731238D01*
X196659524Y-103778857D01*
X196683333Y-103826476D01*
X196683333Y-103921714D01*
X196659524Y-103969333D01*
X196611905Y-104016952D01*
X196564286Y-104040762D01*
X196469048Y-104040762D01*
X196421428Y-104016952D01*
X196516667Y-103540762D02*
X196635714Y-103564571D01*
X196754762Y-103636000D01*
X196826190Y-103755048D01*
X196850000Y-103874095D01*
X196826190Y-103993143D01*
X196754762Y-104112190D01*
X196635714Y-104183619D01*
X196516667Y-104207429D01*
X196397619Y-104183619D01*
X196278571Y-104112190D01*
X196207143Y-103993143D01*
X196183333Y-103874095D01*
X196207143Y-103755048D01*
X196278571Y-103636000D01*
X196397619Y-103564571D01*
X196516667Y-103540762D01*
X195992857Y-103659810D02*
X195969047Y-103636000D01*
X195921428Y-103612190D01*
X195802381Y-103612190D01*
X195754762Y-103636000D01*
X195730952Y-103659810D01*
X195707143Y-103707429D01*
X195707143Y-103755048D01*
X195730952Y-103826476D01*
X196016666Y-104112190D01*
X195707143Y-104112190D01*
X195397619Y-103612190D02*
X195350000Y-103612190D01*
X195302381Y-103636000D01*
X195278572Y-103659810D01*
X195254762Y-103707429D01*
X195230953Y-103802667D01*
X195230953Y-103921714D01*
X195254762Y-104016952D01*
X195278572Y-104064571D01*
X195302381Y-104088381D01*
X195350000Y-104112190D01*
X195397619Y-104112190D01*
X195445238Y-104088381D01*
X195469048Y-104064571D01*
X195492857Y-104016952D01*
X195516667Y-103921714D01*
X195516667Y-103802667D01*
X195492857Y-103707429D01*
X195469048Y-103659810D01*
X195445238Y-103636000D01*
X195397619Y-103612190D01*
X194754763Y-104112190D02*
X195040477Y-104112190D01*
X194897620Y-104112190D02*
X194897620Y-103612190D01*
X194945239Y-103683619D01*
X194992858Y-103731238D01*
X195040477Y-103755048D01*
X194326192Y-103612190D02*
X194421430Y-103612190D01*
X194469049Y-103636000D01*
X194492858Y-103659810D01*
X194540477Y-103731238D01*
X194564287Y-103826476D01*
X194564287Y-104016952D01*
X194540477Y-104064571D01*
X194516668Y-104088381D01*
X194469049Y-104112190D01*
X194373811Y-104112190D01*
X194326192Y-104088381D01*
X194302382Y-104064571D01*
X194278573Y-104016952D01*
X194278573Y-103897905D01*
X194302382Y-103850286D01*
X194326192Y-103826476D01*
X194373811Y-103802667D01*
X194469049Y-103802667D01*
X194516668Y-103826476D01*
X194540477Y-103850286D01*
X194564287Y-103897905D01*
X199635714Y-104912190D02*
X199635714Y-104412190D01*
X199635714Y-104888381D02*
X199683333Y-104912190D01*
X199778571Y-104912190D01*
X199826190Y-104888381D01*
X199849999Y-104864571D01*
X199873809Y-104816952D01*
X199873809Y-104674095D01*
X199849999Y-104626476D01*
X199826190Y-104602667D01*
X199778571Y-104578857D01*
X199683333Y-104578857D01*
X199635714Y-104602667D01*
X199111904Y-104912190D02*
X199278571Y-104674095D01*
X199397618Y-104912190D02*
X199397618Y-104412190D01*
X199207142Y-104412190D01*
X199159523Y-104436000D01*
X199135714Y-104459810D01*
X199111904Y-104507429D01*
X199111904Y-104578857D01*
X199135714Y-104626476D01*
X199159523Y-104650286D01*
X199207142Y-104674095D01*
X199397618Y-104674095D01*
X198826190Y-104912190D02*
X198873809Y-104888381D01*
X198897618Y-104864571D01*
X198921428Y-104816952D01*
X198921428Y-104674095D01*
X198897618Y-104626476D01*
X198873809Y-104602667D01*
X198826190Y-104578857D01*
X198754761Y-104578857D01*
X198707142Y-104602667D01*
X198683333Y-104626476D01*
X198659523Y-104674095D01*
X198659523Y-104816952D01*
X198683333Y-104864571D01*
X198707142Y-104888381D01*
X198754761Y-104912190D01*
X198826190Y-104912190D01*
X198445237Y-104578857D02*
X198445237Y-104912190D01*
X198445237Y-104626476D02*
X198421428Y-104602667D01*
X198373809Y-104578857D01*
X198302380Y-104578857D01*
X198254761Y-104602667D01*
X198230952Y-104650286D01*
X198230952Y-104912190D01*
X197992856Y-104912190D02*
X197992856Y-104578857D01*
X197992856Y-104412190D02*
X198016666Y-104436000D01*
X197992856Y-104459810D01*
X197969047Y-104436000D01*
X197992856Y-104412190D01*
X197992856Y-104459810D01*
X197754761Y-104578857D02*
X197754761Y-104912190D01*
X197754761Y-104626476D02*
X197730952Y-104602667D01*
X197683333Y-104578857D01*
X197611904Y-104578857D01*
X197564285Y-104602667D01*
X197540476Y-104650286D01*
X197540476Y-104912190D01*
X196921428Y-104721714D02*
X196540476Y-104721714D01*
X195635714Y-104864571D02*
X195659524Y-104888381D01*
X195730952Y-104912190D01*
X195778571Y-104912190D01*
X195850000Y-104888381D01*
X195897619Y-104840762D01*
X195921428Y-104793143D01*
X195945238Y-104697905D01*
X195945238Y-104626476D01*
X195921428Y-104531238D01*
X195897619Y-104483619D01*
X195850000Y-104436000D01*
X195778571Y-104412190D01*
X195730952Y-104412190D01*
X195659524Y-104436000D01*
X195635714Y-104459810D01*
X195135714Y-104864571D02*
X195159524Y-104888381D01*
X195230952Y-104912190D01*
X195278571Y-104912190D01*
X195350000Y-104888381D01*
X195397619Y-104840762D01*
X195421428Y-104793143D01*
X195445238Y-104697905D01*
X195445238Y-104626476D01*
X195421428Y-104531238D01*
X195397619Y-104483619D01*
X195350000Y-104436000D01*
X195278571Y-104412190D01*
X195230952Y-104412190D01*
X195159524Y-104436000D01*
X195135714Y-104459810D01*
X194373810Y-104650286D02*
X194302381Y-104674095D01*
X194278572Y-104697905D01*
X194254762Y-104745524D01*
X194254762Y-104816952D01*
X194278572Y-104864571D01*
X194302381Y-104888381D01*
X194350000Y-104912190D01*
X194540476Y-104912190D01*
X194540476Y-104412190D01*
X194373810Y-104412190D01*
X194326191Y-104436000D01*
X194302381Y-104459810D01*
X194278572Y-104507429D01*
X194278572Y-104555048D01*
X194302381Y-104602667D01*
X194326191Y-104626476D01*
X194373810Y-104650286D01*
X194540476Y-104650286D01*
X193945238Y-104674095D02*
X193945238Y-104912190D01*
X194111905Y-104412190D02*
X193945238Y-104674095D01*
X193778572Y-104412190D01*
D11*
X203454500Y-111188500D02*
X205004500Y-111188500D01*
X201154500Y-111188500D02*
X202054500Y-111188500D01*
X196254500Y-111188500D02*
X198254500Y-111188500D01*
X191004500Y-103388500D02*
X191004500Y-99688500D01*
X191604500Y-103388500D02*
X191604500Y-99688500D01*
X191004500Y-103388500D02*
X191604500Y-103388500D01*
X205204500Y-103388500D02*
X205204500Y-99688500D01*
X204604500Y-103388500D02*
X204604500Y-99688500D01*
X204604500Y-103388500D02*
X205204500Y-103388500D01*
X192854500Y-105788500D02*
X201654500Y-105788500D01*
X192854500Y-108288500D02*
X192854500Y-105788500D01*
X192854500Y-108288500D02*
X201654500Y-108288500D01*
X201654500Y-108288500D02*
X201654500Y-105788500D01*
D12*
X191204500Y-103388500D02*
X191204500Y-111188500D01*
X191204500Y-111188500D02*
X193354500Y-111188500D01*
X205004500Y-111188500D02*
X205004500Y-103388500D01*
D11*
X200786572Y-107449881D02*
X200786572Y-106449881D01*
X200215143Y-107449881D01*
X200215143Y-106449881D01*
X199548477Y-106449881D02*
X199358000Y-106449881D01*
X199262762Y-106497500D01*
X199167524Y-106592738D01*
X199119905Y-106783214D01*
X199119905Y-107116548D01*
X199167524Y-107307024D01*
X199262762Y-107402262D01*
X199358000Y-107449881D01*
X199548477Y-107449881D01*
X199643715Y-107402262D01*
X199738953Y-107307024D01*
X199786572Y-107116548D01*
X199786572Y-106783214D01*
X199738953Y-106592738D01*
X199643715Y-106497500D01*
X199548477Y-106449881D01*
X197929429Y-107449881D02*
X197929429Y-106449881D01*
X197596095Y-107164167D01*
X197262762Y-106449881D01*
X197262762Y-107449881D01*
X196786572Y-106926071D02*
X196453238Y-106926071D01*
X196310381Y-107449881D02*
X196786572Y-107449881D01*
X196786572Y-106449881D01*
X196310381Y-106449881D01*
X196024667Y-106449881D02*
X195453238Y-106449881D01*
X195738953Y-107449881D02*
X195738953Y-106449881D01*
X195167524Y-107164167D02*
X194691333Y-107164167D01*
X195262762Y-107449881D02*
X194929429Y-106449881D01*
X194596095Y-107449881D01*
X193786571Y-107449881D02*
X194262762Y-107449881D01*
X194262762Y-106449881D01*
%LPC*%
D13*
X193404500Y-97788500D03*
X194504500Y-97788500D03*
X195604500Y-97788500D03*
X196704500Y-97788500D03*
X197804500Y-97788500D03*
X198904500Y-97788500D03*
X200004500Y-97788500D03*
X201104500Y-97788500D03*
D14*
X191304500Y-98288500D03*
D15*
X204654500Y-98288500D03*
D16*
X194804500Y-110488500D03*
X199704500Y-110488500D03*
D17*
X202754500Y-110588500D03*
D18*
X191579500Y-108839000D03*
X202692000Y-103441500D03*
D19*
X191770000Y-114300000D03*
D20*
X194310000Y-114300000D03*
X196850000Y-114300000D03*
X199390000Y-114300000D03*
X201930000Y-114300000D03*
X204470000Y-114300000D03*
D18*
X191135000Y-106045000D03*
M02*
